<?xml version="1.0" encoding="UTF-8" standalone="no"?>
<!DOCTYPE svg PUBLIC "-//W3C//DTD SVG 1.1//EN" "http://www.w3.org/Graphics/SVG/1.1/DTD/svg11.dtd">
<!-- Created with Vectornator (http://vectornator.io/) -->
<svg height="100%" stroke-miterlimit="10" style="fill-rule:nonzero;clip-rule:evenodd;stroke-linecap:round;stroke-linejoin:round;" version="1.1" viewBox="0 0 717.67 430.743" width="100%" xml:space="preserve" xmlns="http://www.w3.org/2000/svg" xmlns:vectornator="http://vectornator.io" xmlns:xlink="http://www.w3.org/1999/xlink">
<defs/>
<clipPath id="ArtboardFrame">
<rect height="430.743" width="717.67" x="0" y="0"/>
</clipPath>
<g clip-path="url(#ArtboardFrame)" id="Untitled" vectornator:layerName="Untitled">
<path d="M120.429 410.02C119.252 410.074 118.165 409.386 117.71 408.298C117.256 407.21 117.529 405.954 118.395 405.154L118.587 404.389C118.562 404.328 118.536 404.267 118.511 404.205C117.326 401.408 114.578 399.594 111.54 399.606C108.502 399.617 105.768 401.451 104.604 404.257C102.329 409.735 99.4336 415.223 98.7206 421.015C98.4066 423.575 98.539 426.17 99.1121 428.685C93.7699 417.032 90.9958 404.366 90.978 391.547C90.9769 388.33 91.1556 385.115 91.5134 381.918C91.809 379.298 92.2192 376.695 92.7439 374.112C95.6072 360.094 101.755 346.955 110.682 335.775C115.003 333.417 118.497 329.792 120.694 325.387C121.49 323.804 122.052 322.114 122.364 320.369C121.876 320.433 120.526 313.01 120.894 312.555C120.214 311.524 118.999 311.012 118.257 310.006C114.567 305.004 109.484 305.877 106.831 312.675C101.162 315.536 101.107 320.28 104.585 324.844C106.798 327.747 107.102 331.676 109.044 334.784C108.844 335.039 108.637 335.287 108.437 335.543C104.785 340.238 101.603 345.28 98.9345 350.597C99.5834 344.641 98.809 338.616 96.6751 333.018C94.5124 327.801 90.4588 323.407 86.8891 318.896C82.6013 313.479 73.8088 315.843 73.0533 322.711C73.046 322.777 73.0389 322.844 73.0319 322.91C73.5621 323.209 74.0811 323.527 74.589 323.863C75.8948 324.735 76.5311 326.32 76.1914 327.853C75.8517 329.386 74.6057 330.553 73.0537 330.793L72.976 330.805C73.1649 332.716 73.4988 334.609 73.9748 336.47C69.3953 354.18 79.2821 360.63 93.3991 360.92C93.7107 361.08 94.0144 361.24 94.3261 361.391C91.6455 368.988 89.9641 376.901 89.3242 384.931C88.9618 389.668 88.9832 394.427 89.3881 399.161L89.3641 398.994C88.3412 393.729 85.533 388.979 81.4137 385.546C75.2955 380.52 66.6516 378.669 60.0511 374.629C58.6189 373.71 56.7831 373.705 55.3463 374.618C53.9096 375.531 53.1333 377.194 53.3569 378.881C53.3658 378.94 53.3748 378.999 53.3839 379.058C54.3678 379.459 55.3259 379.92 56.2524 380.44C56.7826 380.739 57.3016 381.057 57.8094 381.393C59.1152 382.265 59.7515 383.85 59.4118 385.383C59.0721 386.916 57.8261 388.083 56.2741 388.323L56.1964 388.335C56.1405 388.343 56.0925 388.351 56.0367 388.359C57.7179 392.373 60.0775 396.068 63.0121 399.281C65.8756 414.741 78.1741 416.208 91.3297 411.706L91.3377 411.706C92.7811 417.978 94.8725 424.084 97.5781 429.924L119.871 429.924C119.951 429.676 120.023 429.42 120.095 429.173C118.031 429.302 115.96 429.179 113.926 428.805C115.58 426.776 117.234 424.73 118.888 422.701C118.925 422.663 118.96 422.623 118.992 422.581C119.831 421.542 120.678 420.511 121.517 419.473L121.517 419.471C121.562 416.287 121.197 413.111 120.43 410.02L120.429 410.02Z" fill="#f2f2f2" fill-rule="nonzero" opacity="1" stroke="none"/>
<path d="M586.052 410.02C587.23 410.074 588.316 409.386 588.771 408.298C589.226 407.21 588.952 405.954 588.086 405.154L587.894 404.389C587.919 404.328 587.945 404.267 587.97 404.205C589.155 401.408 591.903 399.594 594.941 399.606C597.979 399.617 600.713 401.451 601.877 404.257C604.152 409.735 607.047 415.223 607.76 421.015C608.075 423.575 607.942 426.17 607.369 428.685C612.711 417.032 615.485 404.366 615.503 391.547C615.504 388.33 615.325 385.115 614.968 381.918C614.672 379.298 614.262 376.695 613.737 374.112C610.874 360.094 604.726 346.955 595.799 335.775C591.478 333.417 587.984 329.792 585.787 325.387C584.991 323.804 584.429 322.114 584.117 320.369C584.605 320.433 585.955 313.01 585.587 312.555C586.267 311.524 587.482 311.012 588.224 310.006C591.914 305.004 596.997 305.877 599.65 312.675C605.319 315.536 605.374 320.28 601.896 324.844C599.683 327.747 599.379 331.676 597.437 334.784C597.637 335.039 597.845 335.287 598.044 335.543C601.696 340.238 604.878 345.28 607.547 350.597C606.898 344.641 607.672 338.616 609.806 333.018C611.969 327.801 616.022 323.407 619.592 318.896C623.88 313.479 632.672 315.843 633.428 322.711C633.435 322.777 633.442 322.844 633.449 322.91C632.919 323.209 632.4 323.527 631.892 323.863C630.586 324.735 629.95 326.32 630.29 327.853C630.629 329.386 631.875 330.553 633.427 330.793L633.505 330.805C633.316 332.716 632.982 334.609 632.506 336.47C637.086 354.18 627.199 360.63 613.082 360.92C612.77 361.08 612.467 361.24 612.155 361.391C614.836 368.988 616.517 376.901 617.157 384.931C617.519 389.668 617.498 394.427 617.093 399.161L617.117 398.994C618.14 393.729 620.948 388.979 625.067 385.546C631.186 380.52 639.83 378.669 646.43 374.629C647.862 373.71 649.698 373.705 651.135 374.618C652.571 375.531 653.348 377.194 653.124 378.881C653.115 378.94 653.106 378.999 653.097 379.058C652.113 379.459 651.155 379.92 650.229 380.44C649.698 380.739 649.179 381.057 648.672 381.393C647.366 382.265 646.73 383.85 647.069 385.383C647.409 386.916 648.655 388.083 650.207 388.323L650.285 388.335C650.341 388.343 650.389 388.351 650.444 388.359C648.763 392.373 646.404 396.068 643.469 399.281C640.606 414.741 628.307 416.208 615.151 411.706L615.143 411.706C613.7 417.978 611.609 424.084 608.903 429.924L586.61 429.924C586.53 429.676 586.458 429.42 586.386 429.173C588.45 429.302 590.522 429.179 592.555 428.805C590.901 426.776 589.247 424.73 587.593 422.701C587.556 422.663 587.521 422.623 587.489 422.581C586.65 421.542 585.803 420.511 584.964 419.473L584.964 419.471C584.919 416.287 585.284 413.111 586.051 410.02L586.052 410.02Z" fill="#f2f2f2" fill-rule="nonzero" opacity="1" stroke="none"/>
<path d="M108.368 444.277L208.321 433.994C214.474 413.278 182.077 359.749 190.186 339.738C205.745 301.369 225.622 260.885 262.721 242.151C278.561 234.151 295.832 231.027 313.47 231.197C337.836 231.428 362.886 237.968 385.821 246.637C395.203 250.175 404.499 254.065 413.758 258.04C448.643 273.03 483.149 289.358 520.664 293.771C568.135 299.351 623.949 278.112 636.914 232.364C646.81 197.339 628.988 160.976 610.298 129.695C591.608 98.4138 570.716 64.9445 574.129 28.7277C574.141 28.6061 574.153 28.4723 574.178 28.3508C575.462 15.3424 583.229 5.99358 594.079 2.91504e-06L546.84 2.91504e-06C546.216 33.7854 565.762 63.6072 583.351 93.0524C602.041 124.321 619.863 160.696 609.968 195.722C597.002 241.458 489.64 187.845 442.169 182.253C428.763 180.685 450.058 186.265 437.276 182.253C417.228 175.968 415.006 233.616 395.496 225.155C383.35 219.878 371.192 214.638 358.874 209.982C353.774 208.049 348.563 206.238 343.291 204.56C343.279 204.56 343.279 204.56 343.267 204.548C307.868 193.339 269.154 188.974 236.447 205.18C236.227 205.289 235.994 205.399 235.774 205.508C198.675 224.231 155.057 275.931 148.387 316.793C135.311 396.913 114.704 410.82 108.368 444.277Z" fill="#626262" fill-rule="nonzero" opacity="1" stroke="none"/>
<path d="M180.989 263.14C180.989 171.89 254.962 97.9172 346.212 97.9172C437.463 97.9172 511.436 171.89 511.436 263.14C511.436 354.391 437.463 428.364 346.212 428.364C254.962 428.364 180.989 354.391 180.989 263.14Z" fill="#555555" fill-rule="nonzero" opacity="1" stroke="none"/>
<path d="M345.741 429.425C182.269 433.18 178.684 355.516 178.684 263.14C178.684 170.766 253.837 95.6128 346.212 95.6128C438.588 95.6128 513.741 170.766 513.741 263.14C513.741 355.516 438.116 429.425 345.741 429.425ZM346.212 100.223C256.378 100.223 184.807 173.32 183.294 263.14C181.887 346.684 270.638 450.935 346.212 426.059C386.741 381.425 501.325 333.35 509.131 263.14C519.058 173.857 436.046 100.222 346.212 100.223Z" fill="#3f3d56" fill-rule="nonzero" opacity="1" stroke="none"/>
<path d="M323.673 349.131C317.888 349.131 312.441 346.407 308.971 341.778L263.896 281.677C257.8 273.557 259.444 262.032 267.567 255.94C275.69 249.849 287.214 251.498 293.302 259.624L322.792 298.941L398.533 185.331C404.165 176.891 415.572 174.613 424.015 180.241C432.457 185.87 434.741 197.275 429.117 205.721L338.966 340.947C335.657 345.909 330.146 348.958 324.184 349.125C324.014 349.128 323.843 349.131 323.673 349.131Z" fill="#f2f2f2" fill-rule="nonzero" opacity="1" stroke="none"/>
<path d="M1.93359e-06 429.553C-0.000939421 429.869 0.124143 430.172 0.34753 430.395C0.570918 430.619 0.874165 430.744 1.19007 430.743L716.48 430.743C717.137 430.743 717.67 430.21 717.67 429.553C717.67 428.895 717.137 428.363 716.48 428.363L1.19007 428.363C0.874168 428.362 0.570928 428.487 0.347542 428.71C0.124157 428.934-0.000928697 429.237 1.93359e-06 429.553Z" fill="#cccccc" fill-rule="nonzero" opacity="1" stroke="none"/>
<path d="M451.72 417.887L442.046 417.887L437.444 380.57L451.723 380.571L451.72 417.887Z" fill="#ffb6b6" fill-rule="nonzero" opacity="1" stroke="none"/>
<path d="M452.061 427.98L422.311 427.979L422.311 427.602C422.311 421.207 427.496 416.023 433.891 416.023L433.891 416.023L439.326 411.9L449.465 416.023L452.062 416.024L452.061 427.98Z" fill="#2f2e41" fill-rule="nonzero" opacity="1" stroke="none"/>
<path d="M409.66 371.639L400.724 375.345L382.177 342.638L395.367 337.169L409.66 371.639Z" fill="#ffb6b6" fill-rule="nonzero" opacity="1" stroke="none"/>
<path d="M413.841 380.831L386.36 392.227L386.216 391.879C383.766 385.972 386.569 379.197 392.476 376.747L392.477 376.747L395.917 370.857L406.863 370.782L409.262 369.787L413.841 380.831Z" fill="#2f2e41" fill-rule="nonzero" opacity="1" stroke="none"/>
<path d="M462.782 205.609L394.124 212.783L384.94 243.715L353.134 294.829C353.134 294.829 375.328 332.183 373.244 331.776C371.16 331.369 375.325 341.552 378.243 340.96C381.16 340.369 384.194 347.008 382.177 348.189C380.16 349.369 388.252 359.35 388.252 359.35L400.62 348.25C403.25 328.407 400.072 310.747 388.748 296.148L424.181 257.895L430.9 255.107L430.9 255.107L436.233 397.054L455.96 397.378C461.403 369.377 464.138 344.175 459.883 326.197C459.883 326.197 460.494 272.188 462.827 272.779C465.16 273.369 463.183 266.333 463.183 266.333C463.183 266.333 461.139 260.341 463.65 257.855C466.16 255.369 464.593 240.748 464.593 240.748C468.741 226.912 467.492 215.487 462.782 205.609Z" fill="#2f2e41" fill-rule="nonzero" opacity="1" stroke="none"/>
<path d="M409.992 91.4583L428.972 86.5398L437.832 74.3198L458.874 76.9065L463.353 93.5747L478.332 102.27C478.332 102.27 470.053 189.841 472.022 194.65C473.992 199.458 481.053 199.061 475.023 205.26C468.992 211.458 468.193 208.962 469.592 215.71C470.992 222.458 481.193 229.6 469.592 229.529C457.992 229.458 387.992 228.458 389.992 220.458C391.992 212.458 391.96 214.49 394.976 209.474C397.992 204.458 400.021 207.261 399.007 199.86C397.992 192.458 398.992 187.458 398.992 183.458C398.992 179.458 402.342 143.11 402.342 143.11L409.992 91.4583Z" fill="#e6e6e6" fill-rule="nonzero" opacity="1" stroke="none"/>
<path d="M426.003 49.7635C426.003 37.4489 435.986 27.4659 448.3 27.4659C460.615 27.4659 470.598 37.4489 470.598 49.7635C470.598 62.0781 460.615 72.0611 448.3 72.0611C435.986 72.0611 426.003 62.0781 426.003 49.7635Z" fill="#ffb6b6" fill-rule="nonzero" opacity="1" stroke="none"/>
<path d="M424.936 36.269C426.894 37.8512 426.446 45.5458 428.628 44.2917C430.809 43.0375 431.263 40.7915 433.775 40.768C435.823 40.8811 437.755 41.7553 439.192 43.2192C439.459 43.4608 439.714 43.7142 439.961 43.9646C440.187 43.8854 440.41 43.8136 440.644 43.7548C442.406 43.3246 444.266 43.5865 445.841 44.4864C444.387 44.5903 443.002 45.1486 441.883 46.0823C442.362 46.6197 442.849 47.1601 443.36 47.6595C447.631 51.8444 456.387 47.3878 462.274 46.3822C457.371 51.7362 458.337 54.725 459.557 61.8812L459.562 62.2722C459.813 60.6218 465.098 60.7041 464.227 62.8939C463.133 65.0572 461.763 67.0701 460.153 68.8825C467.355 63.8933 473.169 57.0161 474.454 48.7087C474.718 46.962 475.232 45.1798 474.735 43.4768C474.3 41.706 472.726 40.451 470.903 40.4217C472.537 35.2297 471.186 29.5595 467.387 25.6621C463.587 21.7647 457.953 20.2707 452.721 21.7731C450.379 22.6056 448.094 23.5917 445.881 24.7251C443.648 25.8629 441.121 26.291 438.638 25.952C437.091 25.6325 435.524 24.8315 434.008 25.285C432.251 25.8119 431.495 27.6675 430.791 29.4587C432.113 29.9415 433.261 30.8074 434.088 31.9458C432.722 31.4415 431.231 31.3809 429.828 31.7727C429.802 31.7773 429.777 31.7841 429.752 31.7933C428.162 34.6439 428.07 35.3429 424.936 36.269Z" fill="#2f2e41" fill-rule="nonzero" opacity="1" stroke="none"/>
<path d="M432.289 80.5669C420.868 79.6474 410.44 88.3817 405.685 98.8063C400.931 109.231 400.62 121.057 400.389 132.512L399.671 168.121C399.565 173.39 399.459 178.66 399.197 183.924C399.061 189.046 398.417 194.142 397.273 199.136C394.945 208.301 389.823 216.468 384.776 224.465C397.698 228.371 410.84 231.509 424.132 233.864C430.771 212.393 437.485 190.304 435.853 167.889C434.99 156.028 431.799 144.448 430.587 132.617C428.869 115.862 431.146 98.9833 433.418 82.2942" fill="#3f3d56" fill-rule="nonzero" opacity="1" stroke="none"/>
<path d="M460.011 82.5696C471.324 84.3886 479.379 95.3493 481.522 106.605C483.665 117.86 481.159 129.422 478.663 140.605C476.077 152.191 473.49 163.778 470.904 175.365C469.756 180.509 468.607 185.653 467.612 190.829C466.646 195.857 470.694 202.305 470.741 207.425C470.826 216.88 468.99 224.668 471.994 233.634C458.514 234.36 445.002 234.288 431.531 233.418C430.181 210.985 428.904 187.934 435.812 166.548C439.468 155.231 445.317 144.739 449.304 133.535C454.951 117.667 456.748 100.731 458.504 83.9794" fill="#3f3d56" fill-rule="nonzero" opacity="1" stroke="none"/>
<path d="M467.552 244.221C465.806 241.177 466.8 237.295 469.796 235.465C470.091 235.291 470.401 235.142 470.721 235.019L469.279 185.903L484.905 181.925L478.946 239.147C479.785 241.96 478.623 244.984 476.117 246.512C473.183 248.261 469.387 247.301 467.638 244.368C467.608 244.319 467.58 244.27 467.552 244.221Z" fill="#ffb6b6" fill-rule="nonzero" opacity="1" stroke="none"/>
<path d="M466.412 102.191C466.412 102.191 477.319 92.9673 486.498 111.411C495.676 129.854 490.547 171.988 489.255 174.237C487.963 176.486 487.174 173.353 487.882 179.347C488.457 184.222 485.036 183.613 486.263 184.653C489.5 187.396 480.437 187.708 485.091 190.126C489.746 192.543 468.913 192.995 468.913 192.995C468.913 192.995 466.393 191.196 468.143 184.41C469.126 180.598 471.587 179.204 468.962 177.44C466.337 175.676 471.674 170.224 471.677 169.027C471.681 167.831 463.357 141.664 463.357 141.664L466.412 102.191Z" fill="#3f3d56" fill-rule="nonzero" opacity="1" stroke="none"/>
<path d="M376.152 329.399C370.367 329.399 364.92 326.675 361.45 322.046L316.375 261.945C310.279 253.824 311.923 242.3 320.046 236.208C328.169 230.116 339.693 231.766 345.781 239.891L375.271 279.208L451.012 165.598C456.643 157.153 468.054 154.87 476.499 160.501C484.945 166.131 487.227 177.542 481.597 185.988L391.446 321.214C388.137 326.177 382.626 329.226 376.664 329.393C376.493 329.396 376.323 329.399 376.152 329.399Z" fill="#276a75" fill-rule="nonzero" opacity="1" stroke="none"/>
<path d="M410.512 235.69C412.425 232.746 411.646 228.815 408.756 226.823C408.471 226.633 408.17 226.467 407.857 226.326L412.011 177.365L396.629 172.53L399.416 229.994C398.423 232.756 399.417 235.84 401.834 237.503C404.667 239.412 408.51 238.664 410.419 235.832C410.451 235.785 410.482 235.737 410.512 235.69Z" fill="#ffb6b6" fill-rule="nonzero" opacity="1" stroke="none"/>
<path d="M419.514 94.0408C419.514 94.0408 409.133 84.228 398.95 102.136C388.766 120.044 391.559 162.397 392.725 164.714C393.89 167.031 394.851 163.946 393.813 169.892C392.969 174.728 396.419 174.308 395.136 175.279C391.753 177.839 400.785 178.652 396.004 180.808C391.222 182.964 411.999 184.568 411.999 184.568C411.999 184.568 414.614 182.91 413.242 176.038C412.471 172.178 410.091 170.65 412.809 169.034C415.527 167.418 410.501 161.679 410.563 160.484C410.626 159.289 420.383 133.622 420.383 133.622L419.514 94.0408Z" fill="#3f3d56" fill-rule="nonzero" opacity="1" stroke="none"/>
</g>
</svg>
