<?xml version="1.0" encoding="UTF-8" standalone="no"?>
<!DOCTYPE svg PUBLIC "-//W3C//DTD SVG 1.1//EN" "http://www.w3.org/Graphics/SVG/1.1/DTD/svg11.dtd">
<!-- Created with Vectornator (http://vectornator.io/) -->
<svg height="100%" stroke-miterlimit="10" style="fill-rule:nonzero;clip-rule:evenodd;stroke-linecap:round;stroke-linejoin:round;" version="1.1" viewBox="0 0 896 747.971" width="100%" xml:space="preserve" xmlns="http://www.w3.org/2000/svg" xmlns:vectornator="http://vectornator.io" xmlns:xlink="http://www.w3.org/1999/xlink">
<defs/>
<clipPath id="ArtboardFrame">
<rect height="747.971" width="896" x="0" y="0"/>
</clipPath>
<g clip-path="url(#ArtboardFrame)" id="Untitled" vectornator:layerName="Untitled">
<path d="M41.634 712.738C54.0624 735.787 80.44 745.681 80.44 745.681C80.44 745.681 86.6671 718.206 74.2387 695.157C61.8103 672.108 35.4327 662.213 35.4327 662.213C35.4327 662.213 29.2056 689.689 41.634 712.738Z" fill="#2f2e41" fill-rule="nonzero" opacity="1" stroke="none"/>
<path d="M50.1765 705.155C72.6149 718.655 81.2567 745.469 81.2567 745.469C81.2567 745.469 53.5186 750.396 31.0802 736.896C8.64175 723.396 0 696.582 0 696.582C0 696.582 27.7381 691.655 50.1765 705.155Z" fill="#276a75" fill-rule="nonzero" opacity="1" stroke="none"/>
<path d="M583.248 113.908L585.248 113.908L585.248 113.908L585.248 132.408L585.248 132.408L583.248 132.408L583.248 132.408L583.248 113.908L583.248 113.908Z" fill="#f2f2f2" fill-rule="nonzero" opacity="1" stroke="none"/>
<path d="M708.248 158.908L710.248 158.908L710.248 158.908L710.248 177.408L710.248 177.408L708.248 177.408L708.248 177.408L708.248 158.908L708.248 158.908Z" fill="#f2f2f2" fill-rule="nonzero" opacity="1" stroke="none"/>
<path d="M694.248 622.908L696.248 622.908L696.248 622.908L696.248 641.408L696.248 641.408L694.248 641.408L694.248 641.408L694.248 622.908L694.248 622.908Z" fill="#f2f2f2" fill-rule="nonzero" opacity="1" stroke="none"/>
<path d="M723.248 469.908L725.248 469.908L725.248 469.908L725.248 488.408L725.248 488.408L723.248 488.408L723.248 488.408L723.248 469.908L723.248 469.908Z" fill="#f2f2f2" fill-rule="nonzero" opacity="1" stroke="none"/>
<path d="M362.06 702.184L125.274 702.184L125.274 700.481L360.356 700.481L360.356 617.861L145.18 617.861L134.727 596.084L136.263 595.347L146.252 616.157L362.06 616.157L362.06 702.184Z" fill="#f2f2f2" fill-rule="nonzero" opacity="1" stroke="none"/>
<path d="M138.902 726.033C138.902 716.154 146.91 708.146 156.789 708.146C166.667 708.146 174.675 716.154 174.675 726.033C174.675 735.912 166.667 743.92 156.789 743.92C146.91 743.92 138.902 735.912 138.902 726.033Z" fill="#f2f2f2" fill-rule="nonzero" opacity="1" stroke="none"/>
<path d="M315.214 726.033C315.214 716.154 323.222 708.146 333.101 708.146C342.979 708.146 350.987 716.154 350.987 726.033C350.987 735.912 342.979 743.92 333.101 743.92C323.222 743.92 315.214 735.912 315.214 726.033Z" fill="#f2f2f2" fill-rule="nonzero" opacity="1" stroke="none"/>
<path d="M529.855 346.153C529.855 340.038 534.812 335.08 540.927 335.08C547.043 335.08 552 340.038 552 346.153C552 352.268 547.043 357.226 540.927 357.226C534.812 357.226 529.855 352.268 529.855 346.153Z" fill="#f2f2f2" fill-rule="nonzero" opacity="1" stroke="none"/>
<path d="M387.385 589.753L121.237 589.753L63.6484 401.517L446.693 401.517L446.344 402.624L387.385 589.753ZM122.497 588.05L386.136 588.05L444.37 403.22L65.9508 403.22L122.497 588.05Z" fill="#f2f2f2" fill-rule="nonzero" opacity="1" stroke="none"/>
<path d="M366.61 579.958L132.842 579.958L82.26 413.015L418.701 413.015L418.395 413.998L366.61 579.958Z" fill="#a7a7a7" fill-rule="nonzero" opacity="1" stroke="none"/>
<path d="M451.465 384.7L449.818 384.263L461.059 341.894L526.448 341.894L526.448 343.598L462.37 343.598L451.465 384.7Z" fill="#f2f2f2" fill-rule="nonzero" opacity="1" stroke="none"/>
<path d="M82.2584 458.584L427.551 458.584L427.551 458.584L427.551 460.287L427.551 460.287L82.2584 460.287L82.2584 460.287L82.2584 458.584L82.2584 458.584Z" fill="#f2f2f2" fill-rule="nonzero" opacity="1" stroke="none"/>
<path d="M101.459 521.344L407.777 521.344L407.777 521.344L407.777 523.047L407.777 523.047L101.459 523.047L101.459 523.047L101.459 521.344L101.459 521.344Z" fill="#f2f2f2" fill-rule="nonzero" opacity="1" stroke="none"/>
<path d="M254.314 402.368L256.017 402.368L256.017 402.368L256.017 588.901L256.017 588.901L254.314 588.901L254.314 588.901L254.314 402.368L254.314 402.368Z" fill="#f2f2f2" fill-rule="nonzero" opacity="1" stroke="none"/>
<path d="M320.058 588.843L332.286 402.315L332.286 402.315L333.986 402.426L333.986 402.426L321.758 588.955L321.758 588.955L320.058 588.843L320.058 588.843Z" fill="#f2f2f2" fill-rule="nonzero" opacity="1" stroke="none"/>
<path d="M176.38 402.424L178.081 402.313L178.081 402.313L190.238 588.846L190.238 588.846L188.538 588.957L188.538 588.957L176.38 402.424L176.38 402.424Z" fill="#f2f2f2" fill-rule="nonzero" opacity="1" stroke="none"/>
<path d="M0 745L896 745L896 745L896 747L896 747L0 747L0 747L0 745L0 745Z" fill="#f2f2f2" fill-rule="nonzero" opacity="1" stroke="none"/>
<path d="M595.411 61.876C595.411 61.876 610.029 103.482 601.033 109.883C592.037 116.284 631.394 168.559 631.394 168.559L678.623 155.757L652.76 112.017C652.76 112.017 649.386 68.2769 649.386 61.876C649.386 55.475 595.411 61.876 595.411 61.876Z" fill="#a0616a" fill-rule="nonzero" opacity="1" stroke="none"/>
<path d="M595.411 61.876C595.411 61.876 610.029 103.482 601.033 109.883C592.037 116.284 631.394 168.559 631.394 168.559L678.623 155.757L652.76 112.017C652.76 112.017 649.386 68.2769 649.386 61.876C649.386 55.475 595.411 61.876 595.411 61.876Z" fill="#000000" fill-rule="nonzero" opacity="0.1" stroke="none"/>
<path d="M570.874 358.454C570.874 358.454 566.606 411.795 570.874 439.533C575.141 467.27 581.542 544.082 581.542 544.082C581.542 544.082 581.542 689.171 605.012 691.304C628.482 693.438 645.552 695.572 647.685 687.037C649.819 678.502 637.017 674.235 643.418 669.968C649.819 665.7 651.953 650.765 643.418 633.696C634.883 616.626 643.418 443.8 643.418 443.8L683.957 552.617C683.957 552.617 688.225 642.23 692.492 655.032C696.759 667.834 688.225 691.304 703.16 693.438C718.096 695.572 735.165 682.77 743.7 678.502C752.234 674.235 730.898 674.235 735.165 672.101C739.432 669.968 752.234 663.567 747.967 661.433C743.7 659.299 739.432 556.884 739.432 556.884C739.432 556.884 727.697 338.184 712.762 329.65C697.826 321.115 688.225 335.815 688.225 335.815L570.874 358.454Z" fill="#2f2e41" fill-rule="nonzero" opacity="1" stroke="none"/>
<path d="M609.279 682.77L609.279 699.839C609.279 699.839 590.077 746.238 609.279 746.238C628.482 746.238 643.418 751.047 643.418 744.646L643.418 687.037L609.279 682.77Z" fill="#2f2e41" fill-rule="nonzero" opacity="1" stroke="none"/>
<path d="M735.165 682.739L735.165 699.809C735.165 699.809 754.368 746.208 735.165 746.208C715.962 746.208 701.027 751.016 701.027 744.615L701.027 687.007L735.165 682.739Z" fill="#2f2e41" fill-rule="nonzero" opacity="1" stroke="none"/>
<path d="M586.876 54.4082C586.876 33.1973 604.071 16.0024 625.282 16.0024C646.493 16.0024 663.688 33.1973 663.688 54.4082C663.688 75.6191 646.493 92.814 625.282 92.814C604.071 92.814 586.876 75.6191 586.876 54.4082Z" fill="#a0616a" fill-rule="nonzero" opacity="1" stroke="none"/>
<path d="M613.547 125.886C613.547 125.886 624.215 157.89 641.284 151.49L658.354 145.089L688.225 349.919C688.225 349.919 664.754 384.058 630.616 362.721C596.477 341.385 613.547 125.886 613.547 125.886Z" fill="#3f3d56" fill-rule="nonzero" opacity="1" stroke="none"/>
<path d="M643.418 119.485L653.019 99.215C653.019 99.215 709.561 125.886 718.096 134.42C726.63 142.955 726.63 155.757 726.63 155.757L711.695 209.098C711.695 209.098 715.962 326.449 715.962 330.717C715.962 334.984 730.898 358.454 720.229 349.919C709.561 341.385 707.428 332.85 698.893 345.652C690.358 358.454 671.155 373.39 671.155 373.39L643.418 119.485Z" fill="#276a75" fill-rule="nonzero" opacity="1" stroke="none"/>
<path d="M718.096 273.108L711.695 332.85C711.695 332.85 673.289 366.989 681.824 369.122C690.358 371.256 694.626 362.721 694.626 362.721C694.626 362.721 709.561 377.657 718.096 369.122C726.63 360.588 747.967 279.509 747.967 279.509L718.096 273.108Z" fill="#a0616a" fill-rule="nonzero" opacity="1" stroke="none"/>
<path d="M626.1 0.12987C617.586-0.1745 608.475-0.32506 601.296 4.26308C597.993 6.56567 595.096 9.40153 592.724 12.6546C585.732 21.4931 579.691 32.6139 582.288 43.58L585.304 42.4036C585.304 45.3308 584.654 48.2214 583.399 50.8662C583.824 49.6311 585.247 51.6277 584.866 52.877L581.543 63.7777C587.005 61.7753 593.8 65.8296 594.631 71.5874C595.011 58.9262 596.324 44.4078 606.595 36.9941C611.775 33.2554 618.33 32.1141 624.637 31.1006C630.455 30.1656 636.555 29.274 642.128 31.1895C647.701 33.1049 652.446 38.8045 651.183 44.5604C653.753 43.6752 656.626 45.466 657.896 47.8689C659.166 50.2718 659.233 53.1064 659.271 55.824C662.01 57.7598 665.128 53.9158 666.244 50.7529C668.864 43.3285 671.193 35.4255 669.782 27.6799C668.37 19.9343 662.058 12.5322 654.185 12.5059C655.141 11.4562 655.651 10.076 655.607 8.65714L649.118 8.10884C650.765 7.87557 652.28 7.07679 653.404 5.8493C650.798 8.71623 630.313 0.28048 626.1 0.12987Z" fill="#2f2e41" fill-rule="nonzero" opacity="1" stroke="none"/>
<path d="M624.215 113.084C624.215 113.084 606.846 96.0629 600.595 97.1055C594.344 98.1481 585.809 113.084 585.809 113.084C585.809 113.084 534.602 130.153 536.735 147.222C538.869 164.291 562.339 247.504 562.339 247.504C562.339 247.504 581.542 347.786 564.473 358.454C547.403 369.122 645.552 396.86 647.685 384.058C649.819 371.256 654.086 243.237 647.685 224.034C641.284 204.831 624.215 113.084 624.215 113.084Z" fill="#276a75" fill-rule="nonzero" opacity="1" stroke="none"/>
<path d="M698.893 147.222L725.276 147.222C725.276 147.222 743.7 228.301 745.833 236.836C747.967 245.37 752.234 285.91 750.101 285.91C747.967 285.91 705.294 277.375 705.294 283.776L698.893 147.222Z" fill="#276a75" fill-rule="nonzero" opacity="1" stroke="none"/>
<path d="M698 348L597 348C587.144 302.66 586.32 258.854 597 217L698 217C681.701 258.101 680.682 301.607 698 348Z" fill="#f2f2f2" fill-rule="nonzero" opacity="1" stroke="none"/>
<path d="M555.938 292.311L585.809 305.113C585.809 305.113 643.418 313.647 643.418 290.177C643.418 266.707 585.809 279.509 585.809 279.509L566.605 273.369L555.938 292.311Z" fill="#a0616a" fill-rule="nonzero" opacity="1" stroke="none"/>
<path d="M562.339 134.42L536.735 140.821L517.532 253.905C517.532 253.905 511.131 283.776 521.8 285.91C532.468 288.043 562.339 305.113 562.339 305.113C562.339 305.113 566.606 273.108 575.141 273.108L553.804 256.039L566.606 181.361L562.339 134.42Z" fill="#276a75" fill-rule="nonzero" opacity="1" stroke="none"/>
</g>
</svg>
