<?xml version="1.0" encoding="UTF-8" standalone="no"?>
<!DOCTYPE svg PUBLIC "-//W3C//DTD SVG 1.1//EN" "http://www.w3.org/Graphics/SVG/1.1/DTD/svg11.dtd">
<!-- Created with Vectornator (http://vectornator.io/) -->
<svg height="100%" stroke-miterlimit="10" style="fill-rule:nonzero;clip-rule:evenodd;stroke-linecap:round;stroke-linejoin:round;" version="1.1" viewBox="0 0 602.107 696.919" width="100%" xml:space="preserve" xmlns="http://www.w3.org/2000/svg" xmlns:vectornator="http://vectornator.io" xmlns:xlink="http://www.w3.org/1999/xlink">
<defs/>
<clipPath id="ArtboardFrame">
<rect height="696.919" width="602.107" x="0" y="0"/>
</clipPath>
<g clip-path="url(#ArtboardFrame)" id="Untitled" vectornator:layerName="Untitled">
<path d="M336.094 0C189.184-4.06901e-05 70.0938 119.09 70.0938 266C70.0197 312.645 82.2909 358.486 105.625 398.875C107.145 401.515 108.702 404.129 110.312 406.719C123.253 427.424 138.978 446.248 157.031 462.688C159.845 465.247 162.705 467.748 165.625 470.188C221.537 516.94 294.191 538.696 366.594 530.344C438.997 521.991 504.796 484.287 548.594 426.031L219.625 426.031L219.625 422.375L551.312 422.375C552.313 421.005 553.312 419.608 554.281 418.219C556.231 415.435 558.108 412.631 559.938 409.781C561.781 406.918 563.583 404.024 565.312 401.094C565.743 400.364 566.163 399.615 566.594 398.875C567.444 397.405 568.295 395.896 569.125 394.406C569.955 392.916 570.741 391.416 571.531 389.906C572.328 388.393 573.136 386.895 573.906 385.375C574.296 384.605 574.661 383.823 575.031 383.062C575.401 382.313 575.755 381.573 576.125 380.812C576.345 380.353 576.561 379.897 576.781 379.438C577.111 378.747 577.43 378.043 577.75 377.344C579.207 374.197 580.608 371.001 581.938 367.781C582.277 366.981 582.618 366.186 582.938 365.375C583.591 363.768 584.224 362.14 584.844 360.5C585.154 359.69 585.44 358.882 585.75 358.062C586.05 357.242 586.366 356.424 586.656 355.594C586.956 354.774 587.251 353.944 587.531 353.125C587.821 352.295 588.095 351.455 588.375 350.625C588.655 349.795 588.917 348.965 589.188 348.125C589.458 347.295 589.74 346.465 590 345.625C590.23 344.895 590.458 344.146 590.688 343.406C591.498 340.733 592.27 338.043 593 335.344C593.44 333.68 593.861 332.014 594.281 330.344C595.341 326.057 596.296 321.735 597.156 317.375C597.326 316.495 597.496 315.609 597.656 314.719C597.816 313.839 597.975 312.974 598.125 312.094C598.285 311.214 598.422 310.318 598.562 309.438C598.712 308.548 598.87 307.671 599 306.781C599.11 306.101 599.212 305.399 599.312 304.719L598.406 304.719L598.406 302.719L599.594 302.719C599.644 302.299 599.721 301.867 599.781 301.438C599.901 300.538 599.984 299.65 600.094 298.75C600.264 297.42 600.422 296.069 600.562 294.719L595.312 294.719L595.312 292.719L600.781 292.719C601.241 288.175 601.561 283.61 601.781 279C601.811 278.31 601.845 277.616 601.875 276.906C601.895 276.536 601.927 276.182 601.938 275.812C601.988 274.522 602.011 273.227 602.031 271.938C602.078 269.964 602.094 267.98 602.094 266C602.097 259.633 601.888 253.334 601.438 247.094C598.357 202.74 584.128 159.873 560.094 122.469L191.656 122.469C191.105 122.455 190.656 122.02 190.656 121.469C190.656 120.918 191.105 120.451 191.656 120.438L558.781 120.438C509.671 45.2467 425.902-0.0544332 336.094 0ZM214 85.9062C220.034 85.9062 224.937 90.9254 224.938 97.0938C224.938 103.262 220.034 108.25 214 108.25C207.966 108.25 203.094 103.262 203.094 97.0938C203.094 90.9254 207.966 85.9062 214 85.9062ZM251.75 85.9062C257.784 85.9062 262.687 90.9254 262.688 97.0938C262.688 103.262 257.784 108.25 251.75 108.25C245.716 108.25 240.813 103.262 240.812 97.0938C240.812 90.9254 245.716 85.9062 251.75 85.9062ZM289.5 85.9062C295.534 85.9062 300.406 90.9254 300.406 97.0938C300.406 103.262 295.534 108.25 289.5 108.25C283.466 108.25 278.563 103.262 278.562 97.0938C278.562 90.9254 283.466 85.9062 289.5 85.9062ZM399.531 255.562C405.695 255.562 410.688 260.555 410.688 266.719C410.688 272.318 406.5 276.761 401.125 277.562L401.125 421.094L397.469 421.094L397.469 277.469C392.328 276.472 388.375 272.152 388.375 266.719C388.375 260.555 393.367 255.562 399.531 255.562ZM411.594 262.719L423.719 262.719L423.719 264.719L411.594 264.719L411.594 262.719ZM435.844 262.719L447.969 262.719L447.969 264.719L435.844 264.719L435.844 262.719ZM460.062 262.719L472.188 262.719L472.188 264.719L460.062 264.719L460.062 262.719ZM484.312 262.719L496.438 262.719L496.438 264.719L484.312 264.719L484.312 262.719ZM508.531 262.719L520.656 262.719L520.656 264.719L508.531 264.719L508.531 262.719ZM532.781 262.719L544.906 262.719L544.906 264.719L532.781 264.719L532.781 262.719ZM557 262.719L569.125 262.719L569.125 264.719L557 264.719L557 262.719ZM581.25 262.719L593.344 262.719L593.344 264.719L581.25 264.719L581.25 262.719ZM508.969 286.562C515.133 286.562 520.125 291.586 520.125 297.75C520.125 303.349 515.938 307.792 510.562 308.594L510.562 421.094L506.938 421.094L506.938 308.5C501.782 307.516 497.812 303.194 497.812 297.75C497.812 291.586 502.804 286.562 508.969 286.562ZM522.594 292.719L534.719 292.719L534.719 294.719L522.594 294.719L522.594 292.719ZM546.844 292.719L558.969 292.719L558.969 294.719L546.844 294.719L546.844 292.719ZM571.062 292.719L583.188 292.719L583.188 294.719L571.062 294.719L571.062 292.719ZM288.062 294C294.227 294 299.219 298.992 299.219 305.156C299.219 309.956 296.157 313.956 291.906 315.531L291.906 421.094L288.25 421.094L288.25 316.281C288.184 316.282 288.129 316.312 288.062 316.312C281.898 316.312 276.906 311.32 276.906 305.156C276.906 298.992 281.898 294 288.062 294ZM307.594 302.719L319.719 302.719L319.719 304.719L307.594 304.719L307.594 302.719ZM331.844 302.719L343.969 302.719L343.969 304.719L331.844 304.719L331.844 302.719ZM356.062 302.719L368.188 302.719L368.188 304.719L356.062 304.719L356.062 302.719ZM380.312 302.719L392.438 302.719L392.438 304.719L380.312 304.719L380.312 302.719ZM404.531 302.719L416.656 302.719L416.656 304.719L404.531 304.719L404.531 302.719ZM428.781 302.719L440.906 302.719L440.906 304.719L428.781 304.719L428.781 302.719ZM453 302.719L465.125 302.719L465.125 304.719L453 304.719L453 302.719ZM477.25 302.719L489.344 302.719L489.344 304.719L477.25 304.719L477.25 302.719ZM525.719 302.719L537.812 302.719L537.812 304.719L525.719 304.719L525.719 302.719ZM549.938 302.719L562.062 302.719L562.062 304.719L549.938 304.719L549.938 302.719ZM574.188 302.719L586.281 302.719L586.281 304.719L574.188 304.719L574.188 302.719Z" fill="#555555" fill-rule="nonzero" opacity="1" stroke="none"/>
<path d="M601.438 247.094C591.827 251.464 583.207 258.509 575.688 268.219C566.997 279.449 557.697 287.359 548.188 292.719L558.969 292.719L558.969 294.719L546.844 294.719L546.844 293.469C538.318 298.063 528.979 300.904 519.344 301.875C519.323 301.877 519.302 301.873 519.281 301.875C517.83 305.502 514.536 308.07 510.562 308.656L510.562 421.094L506.938 421.094L506.938 308.562C503.014 307.806 499.826 305.098 498.531 301.375C498.501 301.371 498.468 301.379 498.438 301.375C482.417 299.095 467.917 292.946 457.188 287.156C442.486 279.048 426.519 273.452 409.969 270.625C409.948 270.622 409.927 270.628 409.906 270.625C408.501 274.353 405.165 277.022 401.125 277.625L401.125 421.094L397.469 421.094L397.469 277.5C393.102 276.633 389.718 273.298 388.812 268.906C388.729 268.906 388.646 268.906 388.562 268.906C387.043 268.916 385.551 268.971 384.031 269.031C359.292 270 327.288 276.991 298.156 300.531C298.808 301.949 299.219 303.494 299.219 305.156C299.219 309.956 296.157 313.956 291.906 315.531L291.906 421.094L288.25 421.094L288.25 316.281C288.184 316.282 288.129 316.312 288.062 316.312C286.123 316.312 284.402 315.683 282.812 314.812C281.765 315.941 280.669 317.026 279.656 318.188C274.891 323.649 270.494 329.411 266.469 335.438C261.688 342.493 256.088 348.983 249.812 354.75C231.053 372.062 220.272 396.35 220 421.875L220 422.375L551.312 422.375C552.312 421.005 553.311 419.609 554.281 418.219C556.231 415.439 558.107 412.634 559.938 409.781C561.788 406.921 563.589 404.027 565.312 401.094C565.743 400.364 566.163 399.615 566.594 398.875C567.444 397.405 568.295 395.897 569.125 394.406C569.955 392.916 570.741 391.417 571.531 389.906C572.331 388.396 573.14 386.898 573.906 385.375C574.296 384.605 574.661 383.822 575.031 383.062C575.401 382.312 575.755 381.573 576.125 380.812C576.345 380.352 576.561 379.897 576.781 379.438C577.111 378.748 577.43 378.044 577.75 377.344C579.21 374.194 580.611 370.998 581.938 367.781C582.278 366.981 582.618 366.185 582.938 365.375C583.587 363.765 584.22 362.136 584.844 360.5C585.154 359.69 585.44 358.882 585.75 358.062C586.05 357.242 586.367 356.424 586.656 355.594C586.956 354.774 587.252 353.945 587.531 353.125C587.821 352.295 588.095 351.455 588.375 350.625C588.655 349.795 588.918 348.965 589.188 348.125C589.458 347.295 589.74 346.465 590 345.625C590.23 344.895 590.458 344.146 590.688 343.406C591.498 340.736 592.27 338.047 593 335.344C593.44 333.684 593.861 332.017 594.281 330.344C595.341 326.064 596.296 321.742 597.156 317.375C597.326 316.495 597.496 315.609 597.656 314.719C597.816 313.839 597.975 312.974 598.125 312.094C598.285 311.214 598.422 310.317 598.562 309.438C598.713 308.547 598.87 307.671 599 306.781C599.11 306.101 599.213 305.399 599.312 304.719L598.406 304.719L598.406 302.719L599.594 302.719C599.654 302.289 599.721 301.857 599.781 301.438C599.901 300.537 599.984 299.65 600.094 298.75C600.264 297.42 600.422 296.069 600.562 294.719L595.312 294.719L595.312 292.719L600.781 292.719C601.241 288.179 601.561 283.613 601.781 279C601.811 278.31 601.845 277.616 601.875 276.906C601.895 276.536 601.928 276.183 601.938 275.812C601.988 274.522 602.011 273.228 602.031 271.938C602.081 269.967 602.097 267.983 602.094 266C602.094 259.64 601.885 253.341 601.438 247.094ZM581.25 262.719L593.344 262.719L593.344 264.719L581.25 264.719L581.25 262.719ZM571.062 292.719L583.188 292.719L583.188 294.719L571.062 294.719L571.062 292.719ZM307.594 302.719L319.719 302.719L319.719 304.719L307.594 304.719L307.594 302.719ZM331.844 302.719L343.969 302.719L343.969 304.719L331.844 304.719L331.844 302.719ZM356.062 302.719L368.188 302.719L368.188 304.719L356.062 304.719L356.062 302.719ZM380.312 302.719L392.438 302.719L392.438 304.719L380.312 304.719L380.312 302.719ZM404.531 302.719L416.656 302.719L416.656 304.719L404.531 304.719L404.531 302.719ZM428.781 302.719L440.906 302.719L440.906 304.719L428.781 304.719L428.781 302.719ZM453 302.719L465.125 302.719L465.125 304.719L453 304.719L453 302.719ZM477.25 302.719L489.344 302.719L489.344 304.719L477.25 304.719L477.25 302.719ZM525.719 302.719L537.812 302.719L537.812 304.719L525.719 304.719L525.719 302.719ZM549.938 302.719L562.062 302.719L562.062 304.719L549.938 304.719L549.938 302.719ZM574.188 302.719L586.281 302.719L586.281 304.719L574.188 304.719L574.188 302.719Z" fill="#276a75" fill-rule="nonzero" opacity="1" stroke="none"/>
<path d="M127.115 685.125L137.686 685.125L142.715 644.349L127.113 644.35L127.115 685.125Z" fill="#ffb8b8" fill-rule="nonzero" opacity="1" stroke="none"/>
<path d="M154.617 685.56C153.389 684.321 151.928 683.338 150.317 682.67C148.704 682.01 146.979 681.67 145.237 681.67L139.007 676.95L138.677 677.08L127.397 681.67L124.417 681.67L124.417 695.37L158.507 695.37L158.507 694.94C158.517 691.419 157.116 688.04 154.617 685.56Z" fill="#2f2e41" fill-rule="nonzero" opacity="1" stroke="none"/>
<path d="M176.228 685.125L186.799 685.125L191.828 644.349L176.226 644.35L176.228 685.125Z" fill="#ffb8b8" fill-rule="nonzero" opacity="1" stroke="none"/>
<path d="M203.737 685.56C202.508 684.318 201.042 683.336 199.427 682.67C197.815 682.008 196.089 681.668 194.347 681.67L188.127 676.95L187.787 677.09L176.507 681.67L173.527 681.67L173.537 695.37L207.617 695.37L207.617 694.94C207.626 691.421 206.229 688.044 203.737 685.56Z" fill="#2f2e41" fill-rule="nonzero" opacity="1" stroke="none"/>
<path d="M184.678 461.981L101.619 464.148L103.064 504.594C103.064 504.594 101.619 515.428 104.508 518.317C107.397 521.206 108.842 521.206 107.397 526.262C105.953 531.317 113.585 539.575 112.658 540.502C111.731 541.429 109.564 546.485 109.564 546.485L116.787 587.653C116.787 587.653 121.842 659.155 123.287 660.6C124.731 662.044 126.176 660.6 124.731 664.211C123.287 667.822 121.842 666.378 123.287 667.822C124.566 669.202 125.772 670.648 126.898 672.156L144.36 672.156C144.36 672.156 145.677 664.933 145.677 664.211C145.677 663.489 147.121 659.155 147.121 658.433C147.121 657.711 145.844 656.434 145.844 656.434C145.403 654.966 145.105 653.458 144.954 651.933C144.954 650.488 140.621 594.875 140.621 594.875L149.288 522.65L170.233 593.431C170.233 593.431 170.233 655.544 171.678 656.989C173.122 658.433 173.122 657.711 172.4 660.6C171.678 663.489 168.789 662.767 170.955 664.933C173.122 667.1 173.844 663.489 173.122 667.1L172.4 670.711L194.067 671.021C194.067 671.021 196.956 664.933 195.512 662.767C194.067 660.6 194.154 661.191 195.916 657.645C197.678 654.1 198.401 653.377 197.678 652.655C196.956 651.933 196.956 648.091 196.956 648.091L193.345 578.986C193.345 578.986 192.623 506.039 192.623 503.872C192.568 502.757 192.774 501.645 193.223 500.623L193.223 497.682L190.456 487.26L184.678 461.981Z" fill="#2f2e41" fill-rule="nonzero" opacity="1" stroke="none"/>
<path d="M278.675 304.457C277.867 306.703 276.105 308.476 273.865 309.298C271.624 310.121 269.134 309.908 267.065 308.719L231.011 338.924L229.052 324.159L264.316 297.164C266.595 293.746 271.071 292.572 274.734 294.433C278.398 296.294 280.09 300.6 278.675 304.457Z" fill="#ffb8b8" fill-rule="nonzero" opacity="1" stroke="none"/>
<path d="M97.3067 294.534C97.3067 282.168 107.331 272.144 119.696 272.144C132.062 272.144 142.086 282.168 142.086 294.534C142.086 306.899 132.062 316.923 119.696 316.923C107.331 316.923 97.3067 306.899 97.3067 294.534Z" fill="#ffb8b8" fill-rule="nonzero" opacity="1" stroke="none"/>
<path d="M137.848 272.251C135.763 267.283 126.83 264.333 112.695 264.777C98.5594 265.221 96.0839 282.078 96.0839 282.078C88.2981 289.335 100.868 311.992 103.049 308.868C105.23 305.745 108.891 308.697 108.891 308.697L105.402 289.071C109.087 290.488 113.05 291.44 116.516 289.789L110.773 286.718L125.051 288.495L119.163 283.965C119.306 283.918 119.448 283.869 119.591 283.821C121.953 284.839 124.481 285.413 127.051 285.514C130.053 285.492 133.243 284.085 134.501 281.359C134.836 280.611 135.017 279.803 135.034 278.983C139.173 280.327 141.347 285.176 141.347 285.176C140.561 280.774 139.39 276.449 137.848 272.251Z" fill="#2f2e41" fill-rule="nonzero" opacity="1" stroke="none"/>
<path d="M137.618 317.925C132.618 317.925 129.398 318.615 121.618 319.925C107.258 322.345 115.858 335.989 115.858 335.989C115.858 335.989 116.508 335.659 114.748 335.989C112.988 336.319 106.988 341.509 106.988 341.509L96.2585 351.039C80.0885 363.729 83.7085 383.529 83.7085 383.529L107.288 407.259L96.9585 454.869C96.9585 454.869 101.348 461.939 99.0784 465.109C96.8084 468.279 119.078 467.369 119.078 467.369C134.448 474.219 188.598 468.429 188.598 468.429C187.848 466.469 180.598 451.279 180.598 451.279C183.748 445.839 180.748 437.979 180.748 437.979C180.748 437.979 177.618 400.799 175.618 395.659C173.618 390.519 180.738 362.669 185.418 362.969C190.098 363.269 220.328 347.849 220.328 347.849C220.328 347.849 219.568 346.639 229.548 342.559C235.281 340.307 240.536 336.992 245.038 332.789L249.138 324.599C247.168 325.359 240.518 312.819 240.518 312.819L237.618 313.925L235.938 313.439C235.938 313.439 222.828 317.169 220.148 319.889C217.468 322.609 216.568 321.849 214.148 322.459C211.728 323.069 211.428 324.769 210.668 324.579C209.908 324.389 208.558 326.689 207.498 326.389C206.438 326.089 204.168 327.299 202.658 327.599C201.148 327.899 190.418 332.439 190.418 332.439C183.778 329.079 165.778 330.439 165.778 330.439C165.778 330.439 159.888 326.969 158.218 330.439C157.301 332.452 155.3 333.751 153.088 333.769L145.908 330.699C145.491 332.222 137.66 316.346 137.618 317.925Z" fill="#3f3d56" fill-rule="nonzero" opacity="1" stroke="none"/>
<path d="M57.3312 640.99L56.3335 618.556C45.9324 612.996 34.3314 610.06 22.5379 610.001C38.7693 623.271 36.7409 648.852 47.7454 666.698C54.7843 677.919 66.5445 685.33 79.7046 686.838L93.2877 695.154C97.0597 674.126 91.4348 652.501 77.8949 635.975C74.0962 631.432 69.7405 627.384 64.9305 623.929C61.6773 632.507 57.3312 640.99 57.3312 640.99Z" fill="#f2f2f2" fill-rule="nonzero" opacity="1" stroke="none"/>
<path d="M1.05723e-05 696.04C-0.00197396 696.438 0.26172 696.821 0.732658 697.102C1.2036 697.384 1.84289 697.542 2.50888 697.541L599.731 697.541C601.117 697.541 602.24 696.869 602.24 696.04C602.24 695.211 601.117 694.539 599.731 694.539L2.50888 694.539C1.8429 694.537 1.20362 694.695 0.732683 694.977C0.261749 695.259-0.00195135 695.641 1.05723e-05 696.04Z" fill="#cccccc" fill-rule="nonzero" opacity="1" stroke="none"/>
<path d="M153.107 501.309L153.107 436.899C153.11 434.185 155.309 431.985 158.024 431.982L206.667 431.982C209.382 431.985 211.581 434.185 211.584 436.899L211.584 501.309C211.581 504.023 209.382 506.223 206.667 506.226L158.024 506.226C155.309 506.223 153.11 504.023 153.107 501.309Z" fill="#e6e6e6" fill-rule="nonzero" opacity="1" stroke="none"/>
<path d="M156.838 481.855L156.838 440.446C156.841 437.904 158.901 435.844 161.443 435.841L203.248 435.841C205.79 435.844 207.85 437.904 207.853 440.446L207.853 497.762C207.85 500.304 205.79 502.364 203.248 502.367L177.351 502.367C166.027 502.354 156.851 493.178 156.838 481.855Z" fill="#ffffff" fill-rule="nonzero" opacity="1" stroke="none"/>
<path d="M163.607 452C163.609 449.516 165.623 447.503 168.107 447.5L197.107 447.5C199.592 447.5 201.607 449.515 201.607 452C201.607 454.485 199.592 456.5 197.107 456.5L168.107 456.5C165.623 456.497 163.609 454.484 163.607 452Z" fill="#e6e6e6" fill-rule="nonzero" opacity="1" stroke="none"/>
<path d="M163.607 466C163.609 463.516 165.623 461.503 168.107 461.5L197.107 461.5C199.592 461.5 201.607 463.515 201.607 466C201.607 468.485 199.592 470.5 197.107 470.5L168.107 470.5C165.623 470.497 163.609 468.484 163.607 466Z" fill="#e6e6e6" fill-rule="nonzero" opacity="1" stroke="none"/>
<path d="M163.607 480C163.609 477.516 165.623 475.503 168.107 475.5L197.107 475.5C199.592 475.5 201.607 477.515 201.607 480C201.607 482.485 199.592 484.5 197.107 484.5L168.107 484.5C165.623 484.497 163.609 482.484 163.607 480Z" fill="#e6e6e6" fill-rule="nonzero" opacity="1" stroke="none"/>
<path d="M154.256 478.809C152.042 478.85 149.923 477.908 148.47 476.237C147.017 474.565 146.379 472.336 146.727 470.149L105.198 447.41L117.352 440.836L155.838 463.951C159.555 464.798 162.05 468.292 161.646 472.082C161.243 475.873 158.068 478.763 154.256 478.809Z" fill="#ffb8b8" fill-rule="nonzero" opacity="1" stroke="none"/>
<path d="M130.107 462L115.38 459.384L110.107 455L106.56 453.194L94.3375 444.615L94.3011 444.506L74.8797 387.097C73.0283 377.309 79.1308 367.776 88.7943 365.36L88.7943 365.36C94.0006 364.065 99.5124 365.058 103.939 368.088C108.367 371.119 111.286 375.898 111.963 381.22L118.213 430.423L128.574 441.122L133.107 442L134.15 446.881L138.107 453L130.107 462Z" fill="#3f3d56" fill-rule="nonzero" opacity="1" stroke="none"/>
</g>
</svg>
