<?xml version="1.0" encoding="UTF-8" standalone="no"?>
<!DOCTYPE svg PUBLIC "-//W3C//DTD SVG 1.1//EN" "http://www.w3.org/Graphics/SVG/1.1/DTD/svg11.dtd">
<!-- Created with Vectornator (http://vectornator.io/) -->
<svg height="100%" stroke-miterlimit="10" style="fill-rule:nonzero;clip-rule:evenodd;stroke-linecap:round;stroke-linejoin:round;" version="1.1" viewBox="0 0 722.73 493.998" width="100%" xml:space="preserve" xmlns="http://www.w3.org/2000/svg" xmlns:vectornator="http://vectornator.io" xmlns:xlink="http://www.w3.org/1999/xlink">
<defs/>
<clipPath id="ArtboardFrame">
<rect height="493.998" width="722.73" x="0" y="0"/>
</clipPath>
<g clip-path="url(#ArtboardFrame)" id="Untitled" vectornator:layerName="Untitled">
<path d="M251.111 473.199C249.933 473.253 248.847 472.566 248.392 471.478C247.937 470.39 248.211 469.134 249.077 468.333L249.269 467.568C249.244 467.507 249.218 467.446 249.193 467.385C248.008 464.587 245.26 462.774 242.222 462.785C239.184 462.796 236.449 464.63 235.286 467.437C233.011 472.915 230.115 478.402 229.402 484.194C229.088 486.754 229.221 489.35 229.794 491.865C224.452 480.211 221.678 467.546 221.66 454.726C221.659 451.509 221.837 448.295 222.195 445.098C222.491 442.477 222.901 439.875 223.426 437.291C226.289 423.273 232.437 410.135 241.364 398.954C245.685 396.597 249.179 392.971 251.376 388.567C252.171 386.983 252.734 385.293 253.046 383.549C252.558 383.613 251.208 376.19 251.575 375.734C250.896 374.704 249.68 374.191 248.939 373.185C245.249 368.183 240.166 369.057 237.512 375.854C231.844 378.715 231.789 383.46 235.267 388.023C237.48 390.927 237.784 394.855 239.726 397.963C239.526 398.219 239.318 398.467 239.119 398.722C235.467 403.418 232.284 408.46 229.616 413.776C230.265 407.82 229.491 401.796 227.357 396.197C225.194 390.98 221.141 386.586 217.571 382.076C213.283 376.658 204.491 379.023 203.735 385.89C203.728 385.957 203.721 386.023 203.714 386.09C204.244 386.389 204.763 386.706 205.271 387.042C206.577 387.914 207.213 389.499 206.873 391.032C206.534 392.565 205.287 393.733 203.735 393.972L203.658 393.984C203.847 395.895 204.181 397.789 204.657 399.649C200.077 417.359 209.964 423.81 224.081 424.099C224.392 424.259 224.696 424.419 225.008 424.571C222.327 432.167 220.646 440.08 220.006 448.11C219.644 452.848 219.665 457.607 220.07 462.341L220.046 462.173C219.023 456.909 216.215 452.159 212.095 448.725C205.977 443.7 197.333 441.849 190.733 437.809C189.301 436.889 187.465 436.885 186.028 437.797C184.591 438.71 183.815 440.374 184.039 442.061C184.047 442.12 184.056 442.179 184.066 442.237C185.05 442.638 186.008 443.1 186.934 443.62C187.464 443.919 187.983 444.236 188.491 444.572C189.797 445.444 190.433 447.029 190.094 448.562C189.754 450.095 188.508 451.263 186.956 451.502L186.878 451.514C186.822 451.522 186.774 451.53 186.718 451.538C188.4 455.552 190.759 459.247 193.694 462.461C196.557 477.921 208.856 479.388 222.011 474.885L222.019 474.885C223.463 481.158 225.554 487.263 228.26 493.103L250.553 493.103C250.633 492.856 250.704 492.6 250.776 492.352C248.713 492.482 246.641 492.359 244.608 491.985C246.262 489.955 247.916 487.91 249.57 485.88C249.607 485.842 249.641 485.802 249.674 485.76C250.513 484.722 251.36 483.691 252.199 482.652L252.199 482.651C252.244 479.467 251.878 476.29 251.112 473.2L251.111 473.199Z" fill="#f2f2f2" fill-rule="nonzero" opacity="1" stroke="none"/>
<path d="M79.642 439.481L85.793 445.982L114.354 424.822L105.276 415.227L79.642 439.481Z" fill="#a0616a" fill-rule="nonzero" opacity="1" stroke="none"/>
<path d="M89.7216 443.077L82.758 436.535L81.048 434.933L63.32 449.107L67.9316 453.981L73.3598 450.5L70.8661 457.083L83.0929 470.005C84.2953 471.278 86.1852 471.62 87.7576 470.851C89.33 470.082 90.2197 468.379 89.9535 466.649L87.3147 449.578L91.9646 445.18L89.7216 443.077Z" fill="#2f2e41" fill-rule="nonzero" opacity="1" stroke="none"/>
<path d="M214.824 202.78L212.874 224.07C212.874 224.07 209.47 240.11 211.827 238.81C214.184 237.51 209.958 243.361 211.071 248.435C212.184 253.51 201.564 291.35 206.374 287.43C211.184 283.51 203.594 310.59 198.794 323.95C197.324 328.08 195.814 332.26 194.294 336.41C193.994 337.25 193.694 338.08 193.384 338.92C191.414 344.32 189.444 349.64 187.554 354.66C187.284 355.36 187.024 356.06 186.764 356.75C186.754 356.77 186.754 356.79 186.744 356.79C180.524 373.16 175.194 386.04 173.064 388.17C171.954 389.28 154.344 402 136.594 414.74C117.964 428.11 99.1842 441.51 99.1842 441.51L81.6442 423.11C81.6442 423.11 82.0641 422.99 82.8542 422.75C84.3142 422.33 87.0143 421.54 90.5544 420.49C105.314 416.14 86.5641 409.37 99.9645 404.53C103.744 403.17 106.264 402.11 106.834 401.55C110.164 398.3 114.634 390.55 116.744 393.8C118.854 397.05 128.424 372.9 131.184 370.51C132.664 369.22 137.494 363.19 141.634 357.89C145.194 353.33 148.254 349.3 148.254 349.3C148.254 349.3 148.314 347.14 148.404 343.7C148.534 338.61 148.724 330.7 148.924 322.78C148.914 322.769 148.914 322.769 148.924 322.769C148.994 319.789 149.064 316.809 149.134 313.979C149.184 311.79 149.234 309.68 149.284 307.729C149.414 301.89 149.504 297.47 149.504 296.37C149.504 292.76 149.504 295.57 152.354 293.39C152.78 293.055 153.184 292.695 153.564 292.31C154.174 291.761 154.736 291.162 155.244 290.52C155.454 290.07 154.144 290.68 152.444 290.34C151.523 290.155 150.672 289.719 149.984 289.08C146.404 285.86 150.264 275.96 150.264 275.96C142.124 259.68 142.715 246.33 146.524 236.04C149.373 228.656 153.895 222.032 159.734 216.69C161.957 214.572 164.378 212.673 166.965 211.02L167.215 209.67L169.965 194.78C171.427 193.976 172.948 193.285 174.514 192.71C179.399 190.957 184.64 190.435 189.774 191.19C194.877 191.928 199.817 193.528 204.384 195.92C208.118 197.796 211.621 200.098 214.824 202.78Z" fill="#2f2e41" fill-rule="nonzero" opacity="1" stroke="none"/>
<path d="M138.02 472.651L146.931 473.48L154.44 438.736L141.287 437.513L138.02 472.651Z" fill="#a0616a" fill-rule="nonzero" opacity="1" stroke="none"/>
<path d="M163.684 486.27L150.444 475.18L151.044 468.8L147.964 468.7L138.424 468.39L138.414 468.39L136.074 468.31L132.104 490.65L138.794 491.27L140.564 485.07L143.034 491.67L146.574 492L160.744 493.32C160.864 493.33 160.994 493.34 161.114 493.34C162.254 493.341 163.339 492.853 164.094 492C164.674 491.365 165.029 490.557 165.104 489.7C165.223 488.392 164.692 487.11 163.684 486.27Z" fill="#2f2e41" fill-rule="nonzero" opacity="1" stroke="none"/>
<path d="M187.554 354.66C184.164 373.11 169.814 416.37 161.134 441.69C157.184 453.26 154.424 461.09 154.424 461.09L149.924 459.67L149.914 459.67L142.304 457.27L139.534 456.39L139.524 456.39L136.164 455.32C136.164 455.32 136.554 434.66 136.594 414.74C136.624 406.39 136.584 398.16 136.424 391.64C136.244 384.53 135.934 379.44 135.424 378.43C133.314 374.29 136.844 373.85 140.574 372.81C144.314 371.76 141.394 370.18 139.944 366.82C138.964 364.58 140.894 361.59 142.264 359.89C142.642 359.411 143.046 358.954 143.474 358.52C143.474 358.52 142.814 358.29 141.634 357.89C145.194 353.33 148.254 349.3 148.254 349.3C148.254 349.3 148.314 347.14 148.404 343.7C148.534 338.61 148.724 330.7 148.924 322.78C148.914 322.77 148.914 322.77 148.924 322.77C148.994 319.79 149.064 316.81 149.134 313.98C154.854 318.37 160.414 322.67 165.454 326.65C165.467 326.659 165.474 326.674 165.474 326.69C177.584 336.26 186.674 343.94 187.954 346.38C188.534 347.48 188.334 350.42 187.554 354.66Z" fill="#2f2e41" fill-rule="nonzero" opacity="1" stroke="none"/>
<path d="M485.683 28.8926C489.149 28.5685 492.243 31.0631 492.662 34.5193C492.697 34.8578 492.705 35.1986 492.684 35.5384L513.306 44.3446L512.519 56.3807L485.574 41.2631C482.691 40.8628 480.439 38.5697 480.092 35.6795C479.72 32.3123 482.148 29.2809 485.515 28.9088C485.571 28.9027 485.627 28.8973 485.683 28.8926Z" fill="#ffb6b6" fill-rule="nonzero" opacity="1" stroke="none"/>
<path d="M625.984 103.19C625.475 100.857 624.528 98.6406 623.194 96.6597C622.823 96.096 622.419 95.555 621.984 95.0396C620.364 93.1099 618.854 91.3399 617.454 89.7598C616.604 88.7696 615.774 87.8497 614.994 87C610.464 82.0298 607.494 79.4 606.134 79.1797C605.474 79.0699 604.824 78.9898 604.194 78.9097C600.964 78.5098 598.624 78.2198 598.554 74.8096C598.547 74.3211 598.58 73.8327 598.654 73.3496C598.775 72.5384 598.952 71.7366 599.184 70.9497C599.317 70.5037 599.421 70.0495 599.494 69.5899C599.594 69 599.554 68.5596 599.234 68.2896C598.834 67.96 598.164 68.0098 596.904 68.5098C596.704 68.5899 596.474 68.6797 596.234 68.7896C596.154 68.8199 596.074 68.8599 595.984 68.8999C595.824 68.9698 595.644 69.0498 595.464 69.1397C593.954 69.8599 591.624 69.9497 588.964 69.6797C581.114 68.8799 570.494 64.9199 570.364 64.8696L503.484 38.8799L502.864 39.8799L501.394 42.2598L500.884 43.0796L500.304 44.0195L497.774 48.0996L496.494 50.1597L518.094 66.4497L520.444 68.2197L522.464 69.7499L563.704 100.86L579.084 111.01L582.514 113.269L597.134 122.91C601.38 125.715 606.578 126.685 611.55 125.6C616.521 124.516 620.843 121.468 623.534 117.15C626.13 112.99 627.009 107.985 625.984 103.19Z" fill="#e6e6e6" fill-rule="nonzero" opacity="1" stroke="none"/>
<path d="M721.73 493.998L1 493.998C0.447715 493.998 8.33927e-08 493.55 0 492.998C-1.19209e-07 492.446 0.447715 491.998 1 491.998L721.73 491.998C722.283 491.998 722.73 492.446 722.73 492.998C722.73 493.55 722.283 493.998 721.73 493.998Z" fill="#e6e6e6" fill-rule="nonzero" opacity="1" stroke="none"/>
<path d="M164.915 166.791L166.789 184.173L165.687 206.965L216.172 200.968L220.915 166.791L214.871 166.851L164.915 166.791Z" fill="#ffb6b6" fill-rule="nonzero" opacity="1" stroke="none"/>
<path d="M207.858 110.649L188.858 95.6492L188.858 95.6492L178.884 95.0693L164.085 104.55L160.461 123.037L151.891 143.856L164.461 200.037C164.461 200.037 165.64 204.069 162.551 204.553C159.461 205.037 159.832 210.98 159.832 210.98C159.832 210.98 160.461 216.13 157.461 216.584C154.461 217.037 146.461 217.037 153.461 226.037C160.461 235.037 215.827 200.998 215.827 200.998L223.868 158.804C223.868 158.804 239.464 137.858 222.669 125.861L207.858 110.649Z" fill="#e6e6e6" fill-rule="nonzero" opacity="1" stroke="none"/>
<path d="M124.914 238.208C123.219 236.093 122.548 233.336 123.082 230.679C123.615 228.022 125.298 225.738 127.678 224.441L151.577 144.236L166.52 151.759L140.494 228.635C142.451 232.87 140.931 237.899 136.956 240.341C132.981 242.784 127.808 241.867 124.914 238.208Z" fill="#a0616a" fill-rule="nonzero" opacity="1" stroke="none"/>
<path d="M167.517 103.808C167.517 103.808 163.245 101.538 160.323 111.362C157.984 119.227 139.003 166.075 138.761 177.465C135.547 178.146 133.203 180.917 133.064 184.198L156.533 187.343C160.634 183.884 161.71 179.213 160.123 177.826L165.219 163.909L186.477 119.63L170.634 105.394L167.517 103.808Z" fill="#e6e6e6" fill-rule="nonzero" opacity="1" stroke="none"/>
<path d="M292.918 211.844C293.532 209.205 292.945 206.429 291.315 204.264C289.685 202.099 287.179 200.767 284.473 200.626L229.649 138.013L218.02 151.89L274.731 209.95C274.798 214.615 278.343 218.492 282.983 218.976C287.623 219.459 291.892 216.395 292.918 211.844L292.918 211.844Z" fill="#a0616a" fill-rule="nonzero" opacity="1" stroke="none"/>
<path d="M196.385 109.085C196.385 109.085 199.255 105.19 206.138 112.785C211.648 118.865 249.022 152.898 254.166 163.063C257.357 162.287 260.669 163.772 262.213 166.671L242.413 179.655C237.219 178.31 234.229 174.563 235.06 172.627L224.447 162.282L186.131 131.55L194.26 111.863L196.385 109.085Z" fill="#e6e6e6" fill-rule="nonzero" opacity="1" stroke="none"/>
<path d="M260.827 140.998C260.827 63.6781 323.507 0.997955 400.827 0.997955C478.147 0.997955 540.827 63.6781 540.827 140.998C540.827 218.318 478.147 280.998 400.827 280.998C323.507 280.998 260.827 218.318 260.827 140.998Z" fill="#276a75" fill-rule="nonzero" opacity="1" stroke="none"/>
<path d="M394.205 190.548C380.849 203.903 359.196 203.903 345.84 190.548L345.84 190.548C334.486 179.189 332.563 161.46 341.219 147.931L333.695 155.607C320.339 168.962 320.339 190.616 333.695 203.971L333.695 203.971C347.05 217.327 368.704 217.327 382.059 203.971L398.733 186.659L398.986 185.583L394.205 190.548Z" fill="#000000" fill-rule="nonzero" opacity="0.2" stroke="none"/>
<path d="M410.088 83.5908C425.698 72.9586 446.972 76.9945 457.605 92.6052L457.605 92.6052C466.643 105.881 465.228 123.658 454.202 135.337L463.025 129.197C478.635 118.565 482.671 97.291 472.039 81.6803L472.039 81.6802C461.407 66.0695 440.133 62.0337 424.522 72.6658L404.914 86.5674L404.464 87.5775L410.088 83.5908Z" fill="#000000" fill-rule="nonzero" opacity="0.2" stroke="none"/>
<path d="M357.877 218.266C342.832 218.267 329.267 209.204 323.51 195.303C317.752 181.403 320.935 165.403 331.574 154.764L363.142 122.557C377.665 108.009 401.235 108 415.77 122.536C416.941 123.707 416.941 125.606 415.77 126.778C414.598 127.949 412.699 127.949 411.528 126.778C399.344 114.594 379.59 114.594 367.406 126.778C362.769 143.124 352.751 154.34 335.837 158.985C323.631 171.161 323.614 190.928 335.799 203.125C347.984 215.321 367.751 215.323 379.939 203.129C379.255 196.423 381.214 190.119 396.572 185.856C397.315 185.081 398.415 184.762 399.458 185.019C400.5 185.277 401.326 186.072 401.622 187.104C401.918 188.136 401.64 189.247 400.893 190.018L384.22 207.331C377.254 214.352 367.767 218.29 357.877 218.266Z" fill="#ffffff" fill-rule="nonzero" opacity="1" stroke="none"/>
<path d="M409.129 172.704C399.257 172.731 389.786 168.807 382.825 161.808C381.654 160.636 381.654 158.737 382.826 157.565C383.997 156.394 385.897 156.394 387.068 157.566C399.252 169.75 419.006 169.75 431.19 157.566C435.188 133.481 451.488 130.082 465.656 123.1C477.83 110.914 477.825 91.1683 465.645 78.9885C453.465 66.8087 433.719 66.804 421.534 78.978C417.592 90.3491 413.723 101.854 401.984 98.5278C400.812 99.6993 398.913 99.6993 397.742 98.5279C396.57 97.3564 396.57 95.457 397.742 94.2855L417.291 74.7357C431.818 60.2087 455.371 60.2086 469.898 74.7355C484.425 89.2624 484.425 112.815 469.898 127.342L435.432 161.809C428.471 168.807 419 172.731 409.129 172.704Z" fill="#ffffff" fill-rule="nonzero" opacity="1" stroke="none"/>
<path d="M522.464 69.75C516.585 59.7642 509.509 50.5326 501.394 42.2598C499.584 40.4199 497.714 38.6196 495.804 36.8696C494.744 35.8999 493.674 34.9497 492.584 34.0195C490.514 32.2397 488.384 30.5195 486.214 28.8599C461.701 10.1089 431.687-0.0348956 400.824-4.71864e-06C323.084-4.71864e-06 259.824 63.25 259.824 141C259.821 149.573 260.6 158.128 262.154 166.56C262.156 166.607 262.163 166.654 262.174 166.7C262.884 170.57 263.764 174.39 264.784 178.14C279.55 232.229 324.963 272.429 380.444 280.523C435.926 288.617 490.931 263.067 520.534 215.45C522.484 212.31 524.317 209.089 526.034 205.79C548.292 162.84 546.944 111.473 522.464 69.75ZM400.824 280C324.046 280.026 261.798 217.778 261.824 141C261.824 64.3495 324.184 1.99992 400.824 1.99992C438.293 2.02117 474.166 17.1734 500.304 44.0195C503.679 47.464 506.863 51.0895 509.844 54.8798C512.796 58.5887 515.549 62.4507 518.094 66.4496C539.555 100.163 545.458 141.486 534.294 179.86C533.064 184.1 531.624 188.25 530.004 192.32C528.374 196.4 526.564 200.4 524.564 204.28C500.722 250.673 452.985 279.884 400.824 280Z" fill="#3f3d56" fill-rule="nonzero" opacity="1" stroke="none"/>
<path d="M592.636 472.969L583.445 472.891L579.376 436.612L592.942 436.727L592.636 472.969Z" fill="#ffb6b6" fill-rule="nonzero" opacity="1" stroke="none"/>
<path d="M595.074 468.73L592.674 468.57L582.884 467.9L579.734 467.69L579.674 474.26L564.994 484.22C563.506 485.231 562.848 487.092 563.371 488.813C563.894 490.535 565.475 491.716 567.274 491.73L585.544 491.88L588.744 485.4L589.914 491.92L596.814 491.979L595.074 468.73Z" fill="#2f2e41" fill-rule="nonzero" opacity="1" stroke="none"/>
<path d="M689.407 466.253L680.622 468.954L665.792 435.596L678.759 431.61L689.407 466.253Z" fill="#ffb6b6" fill-rule="nonzero" opacity="1" stroke="none"/>
<path d="M690.454 461.48L688.114 462.05L678.585 464.36L675.514 465.11L677.444 471.4L666.454 485.32C665.48 486.558 665.299 488.243 665.986 489.66C666.674 491.077 668.109 491.977 669.684 491.979C670.091 491.979 670.495 491.918 670.884 491.8L688.354 486.43L689.444 479.28L692.534 485.14L699.125 483.11L690.454 461.48Z" fill="#2f2e41" fill-rule="nonzero" opacity="1" stroke="none"/>
<path d="M574.148 167.916L556.608 218.89L556.029 222.969C551.61 227.165 557.162 228.547 555.08 229.654C552.998 230.761 551.598 233.863 554.403 234.417C557.209 234.971 566.254 433.79 578.184 441.51C590.115 449.23 597.375 454.813 595.184 443.51C594.301 438.956 595.55 414.538 597.356 387.002C597.561 383.881 600.794 380.578 597.989 377.544C595.184 374.51 598.335 372.513 598.511 369.995C601.027 334.038 603.933 298.539 603.933 298.539C603.933 298.539 622.527 362.396 627.356 357.453C632.184 352.51 630.273 364.681 631.748 368.318C632.981 371.357 627.721 377.327 635.452 377.418C643.184 377.51 661.342 439.58 663.184 439.51C666.834 439.371 677.092 439.764 683.184 438.51C686.193 437.891 672.839 390.897 661.688 350.317C660.799 347.081 655.959 347.005 659.071 340.758C662.184 334.51 646.697 294.083 648.026 292.214C651.554 287.251 652.897 285.094 649.418 284.769C645.939 284.444 644.911 286.352 644.723 281.538C644.536 276.724 643.935 264.853 643.935 264.853C643.935 264.853 641.415 217.904 623.769 191.966L622.264 176.554L574.148 167.916Z" fill="#2f2e41" fill-rule="nonzero" opacity="1" stroke="none"/>
<path d="M617.969 70.5939L594.708 73.9059L593.305 90.749L581.826 108.704C581.826 108.704 556.313 126.659 574.106 155.022C567.335 179.456 560.603 202.888 554.184 218.51C549.184 249.51 593.977 252.481 645.184 241.51C645.184 241.51 644.478 228.255 639.831 221.882C635.184 215.51 637.714 214.118 637.714 214.118L634.467 202.213C636.304 185.005 630.1 183.46 627.184 175.51L636.037 93.0153L617.969 70.5939Z" fill="#e6e6e6" fill-rule="nonzero" opacity="1" stroke="none"/>
<path d="M506.305 214.786C506.817 211.342 509.978 208.933 513.435 209.351C513.772 209.397 514.105 209.471 514.43 209.572L527.903 191.648L539.404 195.285L518.292 217.843C517.215 220.548 514.451 222.187 511.561 221.835C508.202 221.392 505.838 218.311 506.28 214.952C506.288 214.897 506.296 214.841 506.305 214.786Z" fill="#ffb6b6" fill-rule="nonzero" opacity="1" stroke="none"/>
<path d="M625.984 103.19C625.654 102.78 625.294 102.38 624.914 101.99C619.508 96.4184 611.238 94.7349 604.084 97.75C603.744 97.8896 603.404 98.0498 603.074 98.21C591.124 104.08 584.674 107.99 583.894 109.82C583.624 110.44 583.394 111.05 583.164 111.64C582.944 112.22 582.734 112.77 582.514 113.27C581.594 115.41 580.534 116.74 577.834 116.14C576.939 115.921 576.075 115.588 575.264 115.15C574.894 114.97 574.554 114.78 574.234 114.6C573.074 113.96 572.234 113.5 571.664 113.92C571.114 114.33 571.094 115.37 571.594 117.78C571.76 118.786 571.733 119.814 571.514 120.81C570.853 123.714 569.818 126.521 568.434 129.16C566.361 133.296 564.03 137.297 561.454 141.14L537.664 175.06L536.054 177.35L534.294 179.86L520.254 199.88L521.084 200.729L524.564 204.28L525.334 205.07L526.034 205.789L527.844 207.64L529.544 209.37L567.474 178.47L571.704 175.019L579.284 168.84L594.814 156.19L624.204 128.99C627.953 125.548 630.137 120.727 630.254 115.64C630.254 115.47 630.264 115.31 630.264 115.14C630.275 110.779 628.761 106.552 625.984 103.19Z" fill="#e6e6e6" fill-rule="nonzero" opacity="1" stroke="none"/>
<path d="M578.013 43.989C578.013 29.6341 589.65 17.9972 604.004 17.9972C618.359 17.9972 629.996 29.6341 629.996 43.989C629.996 58.3439 618.359 69.9808 604.004 69.9808C589.65 69.9808 578.013 58.3439 578.013 43.989Z" fill="#ffb6b6" fill-rule="nonzero" opacity="1" stroke="none"/>
<path d="M638.449 80.0304C641.938 85.0229 644.271 90.7292 645.28 96.7354C642.469 98.5339 639.197 99.4785 635.859 99.4548C635.746 99.0178 635.633 98.5807 635.503 98.1437C634.536 94.7594 633.098 91.528 631.23 88.5448C631.486 91.7617 631.05 94.9961 629.951 98.0304C628.188 97.229 626.298 96.7414 624.367 96.5898C622.794 96.5896 621.242 96.9554 619.834 97.6581C618.199 92.2354 616.694 87.2498 615.626 83.6725C615.593 92.6401 602.449 100.458 588.108 99.3254C587.59 99.0016 592.786 84.2553 592.284 83.9153C591.135 83.1546 590.018 82.329 588.901 81.5196C593.595 74.2678 598.694 66.498 597.82 65.3326C597.885 66.7733 592.737 73.7013 587.137 80.2408C584.029 77.9585 601.689 40.8255 592.964 37.8147C592.818 39.1259 590.892 39.1259 588.545 38.8507C587.926 36.6873 587.005 34.622 585.809 32.7157C585.965 34.636 585.734 36.568 585.129 38.3974C582.812 38.398 580.5 38.6422 578.234 39.1258C577.709 38.3006 577.131 37.5111 576.502 36.7625C576.564 37.6748 576.537 38.591 576.421 39.4981C574.106 39.9999 572.196 40.5826 571.921 41.0521C570.108 40.3883 573.2 37.3938 572.067 35.8398C569.185 31.955 573.459 26.2895 576.162 22.2751C581.714 14.0521 593.903 11.2032 602.53 16.1402C602.919 14.7967 604.91 13.9064 607.468 13.3075C608.551 13.0686 609.66 12.9653 610.77 12.9999C621.777 13.1942 637.057 22.2751 637.656 33.2661C637.705 34.3668 637.786 35.5646 637.867 36.8434C638.644 49.1456 637.689 60.4927 646.09 69.4927C649.133 72.7462 649.165 88.1563 648 96.0879C644.973 92.8991 642.82 80.4999 638.449 80.0304Z" fill="#2f2e41" fill-rule="nonzero" opacity="1" stroke="none"/>
<path d="M349.184 141.51C349.184 139.853 350.527 138.51 352.184 138.51C353.841 138.51 355.184 139.853 355.184 141.51C355.184 143.167 353.841 144.51 352.184 144.51C350.527 144.51 349.184 143.167 349.184 141.51Z" fill="#276a75" fill-rule="nonzero" opacity="1" stroke="none"/>
<path d="M444.184 139.51C444.184 137.853 445.527 136.51 447.184 136.51C448.841 136.51 450.184 137.853 450.184 139.51C450.184 141.167 448.841 142.51 447.184 142.51C445.527 142.51 444.184 141.167 444.184 139.51Z" fill="#276a75" fill-rule="nonzero" opacity="1" stroke="none"/>
<path d="M161.614 54.7966C159.331 60.4827 152.89 71.6647 152.018 77.7647L152.411 77.3785C153.16 78.6581 154.011 79.8752 154.956 81.0177C156.65 79.2389 158.695 77.8322 160.963 76.8875C159.725 79.4279 159.008 82.1904 158.854 85.0123C161.285 92.6317 172.522 89.2386 179.106 88.4066C185.681 95.9273 194.428 97.8899 205.883 93.5661C209.087 93.8959 212.673 94.0961 214.918 92.2031C217.163 90.3101 215.826 86.8044 217.034 84.1528C225.637 65.2659 217.697 58.4516 210.951 49.8875C209.467 48.0029 209.473 45.1904 207.667 43.3923C205.16 40.8999 201.318 40.1332 197.776 39.5191C199.648 39.6177 201.435 38.7332 202.492 37.1857C203.421 35.6226 203.396 33.6705 202.427 32.1315C201.161 30.0313 198.528 28.81 195.988 28.5049C193.486 28.335 190.973 28.551 188.537 29.1454C186.959 29.353 185.43 29.8415 184.024 30.5878C182.666 31.3125 181.9 32.8041 182.102 34.3305C182.53 35.725 183.572 36.8476 184.93 37.3794C185.953 37.8117 187.028 38.1061 188.128 38.2549C183.076 37.5992 177.943 38.4976 173.413 40.8305C167.736 43.8587 163.905 49.1135 161.614 54.7966Z" fill="#2f2e41" fill-rule="nonzero" opacity="1" stroke="none"/>
<path d="M172.061 66.3824C172.061 55.175 181.146 46.0896 192.353 46.0896C203.561 46.0896 212.646 55.175 212.646 66.3824C212.646 77.5897 203.561 86.6751 192.353 86.6751C181.146 86.6751 172.061 77.5897 172.061 66.3824Z" fill="#a0616a" fill-rule="nonzero" opacity="1" stroke="none"/>
<path d="M172.827 55.5017C174.003 59.0577 177.366 60.2036 180.474 60.9182C181.453 61.1466 182.439 61.3594 183.434 61.5488C183.802 61.0898 184.192 60.64 184.6 60.2148C186.294 58.436 188.339 57.0294 190.607 56.0846C189.626 58.0913 188.975 60.2425 188.677 62.4559C190.555 62.7285 192.445 62.9512 194.344 63.1242C197.682 63.8346 200.991 61.8044 201.87 58.5068C203.599 61.3347 205.644 63.9979 208.44 65.1212C211.722 66.3006 215.39 65.2033 217.485 62.4151C219.097 60.1994 220.215 57.6634 220.763 54.9786C221.557 51.8296 221.998 48.202 220.44 46.2041C219.191 44.5871 217.038 44.5581 215.052 44.7015C210.667 45.0379 206.328 45.8245 202.104 47.0488L201.747 47.8528C202.473 43.492 200.898 39.2963 197.985 37.8042C196.02 36.8065 193.656 36.9738 191.359 37.1762C188.408 37.3078 185.493 37.8716 182.706 38.8495C179.509 40.0793 176.77 42.2668 174.864 45.1129C172.825 48.2086 171.812 52.4307 172.827 55.5017Z" fill="#2f2e41" fill-rule="nonzero" opacity="1" stroke="none"/>
<path d="M201.756 36.535C201.556 36.4759 202.075 36.5519 201.895 36.5567C201.984 36.5515 202.073 36.5391 202.16 36.5195C202.175 36.5165 202.377 36.4521 202.243 36.4995C202.544 36.4094 202.813 36.2339 203.017 35.9943C203.494 35.4049 203.868 34.7393 204.123 34.0256C204.446 33.0824 204.964 32.2181 205.644 31.4894C206.036 31.0961 206.591 30.9132 207.14 30.9969C207.688 31.0807 208.164 31.421 208.42 31.9132C208.677 32.8493 208.589 33.8464 208.173 34.7232C207.882 35.6153 207.449 36.4547 206.891 37.2089C205.955 38.4423 204.681 39.377 203.224 39.899C201.537 40.5116 199.698 40.5642 197.979 40.0489C197.515 39.8563 197.208 39.4079 197.197 38.9057C197.186 38.4034 197.473 37.9421 197.928 37.7295L200.795 36.556C201.43 36.2767 202.171 36.5648 202.45 37.1995C202.729 37.8342 202.441 38.5751 201.807 38.8544L198.94 40.0279L198.889 37.7086C199.247 37.8118 199.615 37.8748 199.986 37.8962C200.383 37.9359 200.783 37.9191 201.175 37.8461C201.55 37.7969 201.919 37.7069 202.275 37.5779C202.503 37.4946 202.726 37.3999 202.945 37.294C203.024 37.2555 203.103 37.2155 203.18 37.1741C203.175 37.1771 203.508 36.9828 203.362 37.0741C203.733 36.8371 204.081 36.5661 204.401 36.2646C204.515 36.1577 204.619 36.0417 204.713 35.9178C204.876 35.7171 205.028 35.5071 205.167 35.2888C205.449 34.8264 205.673 34.3307 205.833 33.8131C205.905 33.5955 205.967 33.3743 206.017 33.1504C206.031 33.0274 206.053 32.9056 206.083 32.7857C206.19 32.5 206.063 32.9525 206.186 33.0763L206.714 33.4657C206.915 33.5256 207.132 33.4908 207.305 33.3712C207.367 33.283 207.354 33.2977 207.264 33.415C207.159 33.5531 207.063 33.6977 206.977 33.8479C206.787 34.2016 206.616 34.5646 206.463 34.9357C206.148 35.7247 205.749 36.4779 205.274 37.1823C204.318 38.6437 202.533 39.3265 200.846 38.8754C200.204 38.6198 199.885 37.8963 200.131 37.2502C200.393 36.6142 201.11 36.2986 201.756 36.535Z" fill="#2f2e41" fill-rule="nonzero" opacity="1" stroke="none"/>
</g>
</svg>
