<?xml version="1.0" encoding="UTF-8" standalone="no"?>
<!DOCTYPE svg PUBLIC "-//W3C//DTD SVG 1.1//EN" "http://www.w3.org/Graphics/SVG/1.1/DTD/svg11.dtd">
<!-- Created with Vectornator (http://vectornator.io/) -->
<svg height="100%" stroke-miterlimit="10" style="fill-rule:nonzero;clip-rule:evenodd;stroke-linecap:round;stroke-linejoin:round;" version="1.1" viewBox="0 0 717.67 628.751" width="100%" xml:space="preserve" xmlns="http://www.w3.org/2000/svg" xmlns:vectornator="http://vectornator.io" xmlns:xlink="http://www.w3.org/1999/xlink">
<defs/>
<clipPath id="ArtboardFrame">
<rect height="628.751" width="717.67" x="0" y="0"/>
</clipPath>
<g clip-path="url(#ArtboardFrame)" id="Untitled" vectornator:layerName="Untitled">
<path d="M391.43 606.493C390.252 606.547 389.166 605.859 388.711 604.771C388.256 603.684 388.529 602.427 389.395 601.627L389.587 600.862C389.562 600.801 389.537 600.74 389.511 600.679C388.327 597.881 385.579 596.067 382.54 596.079C379.502 596.09 376.768 597.924 375.604 600.73C373.33 606.208 370.434 611.696 369.721 617.488C369.407 620.048 369.539 622.644 370.112 625.159C364.77 613.505 361.996 600.839 361.978 588.02C361.977 584.803 362.156 581.588 362.514 578.392C362.809 575.771 363.219 573.169 363.744 570.585C366.607 556.567 372.755 543.428 381.682 532.248C386.003 529.89 389.497 526.265 391.694 521.86C392.49 520.277 393.052 518.587 393.364 516.842C392.877 516.906 391.526 509.483 391.894 509.028C391.215 507.997 389.999 507.485 389.257 506.479C385.568 501.477 380.485 502.35 377.831 509.148C372.162 512.009 372.107 516.754 375.586 521.317C377.799 524.22 378.103 528.149 380.044 531.257C379.844 531.513 379.637 531.76 379.437 532.016C375.785 536.711 372.603 541.753 369.935 547.07C370.584 541.114 369.809 535.089 367.675 529.491C365.513 524.274 361.459 519.88 357.889 515.37C353.602 509.952 344.809 512.316 344.054 519.184C344.046 519.25 344.039 519.317 344.032 519.383C344.562 519.682 345.081 520 345.589 520.336C346.895 521.208 347.531 522.793 347.192 524.326C346.852 525.859 345.606 527.026 344.054 527.266L343.976 527.278C344.165 529.189 344.499 531.083 344.975 532.943C340.396 550.653 350.282 557.103 364.399 557.393C364.711 557.553 365.015 557.713 365.326 557.865C362.646 565.461 360.964 573.374 360.324 581.404C359.962 586.141 359.983 590.9 360.388 595.634L360.364 595.467C359.341 590.202 356.533 585.453 352.414 582.019C346.296 576.993 337.652 575.142 331.051 571.103C329.619 570.183 327.783 570.179 326.346 571.091C324.91 572.004 324.133 573.667 324.357 575.355C324.366 575.413 324.375 575.472 324.384 575.531C325.368 575.932 326.326 576.393 327.253 576.913C327.783 577.212 328.302 577.53 328.81 577.866C330.115 578.738 330.752 580.323 330.412 581.856C330.072 583.389 328.826 584.556 327.274 584.796L327.197 584.808C327.141 584.816 327.093 584.824 327.037 584.832C328.718 588.846 331.078 592.541 334.012 595.754C336.876 611.215 349.174 612.681 362.33 608.179L362.338 608.179C363.781 614.452 365.873 620.557 368.578 626.397L390.871 626.397C390.951 626.149 391.023 625.894 391.095 625.646C389.031 625.776 386.96 625.652 384.926 625.278C386.58 623.249 388.234 621.203 389.888 619.174C389.925 619.136 389.96 619.096 389.992 619.054C390.831 618.015 391.678 616.984 392.517 615.946L392.517 615.945C392.562 612.76 392.197 609.584 391.43 606.493L391.43 606.493Z" fill="#f2f2f2" fill-rule="nonzero" opacity="1" stroke="none"/>
<path d="M358.401 254C288.26 254 231.401 197.14 231.401 127C231.401 56.8598 288.26-1.30952e-06 358.401-4.73112e-07C428.541-4.73112e-07 485.401 56.8598 485.401 127C485.321 197.107 428.508 253.921 358.401 254ZM358.401 2C289.365 2 233.401 57.9644 233.401 127C233.401 196.036 289.365 252 358.401 252C427.436 252 483.401 196.036 483.401 127C483.323 57.9967 427.404 2.07798 358.401 2Z" fill="#f2f2f2" fill-rule="nonzero" opacity="1" stroke="none"/>
<path d="M372.335 173L345.335 173C342.574 173 340.335 170.761 340.335 168C340.335 165.239 342.574 163 345.335 163L372.335 163C375.096 163 377.335 165.239 377.335 168C377.335 170.761 375.096 173 372.335 173Z" fill="#e6e6e6" fill-rule="nonzero" opacity="1" stroke="none"/>
<path d="M378.538 318.117L339.132 318.117C335.102 318.117 331.835 314.85 331.835 310.82C331.835 306.79 335.102 303.522 339.132 303.522L378.538 303.522C382.568 303.522 385.835 306.79 385.835 310.82C385.835 314.85 382.568 318.117 378.538 318.117Z" fill="#276a75" fill-rule="nonzero" opacity="1" stroke="none"/>
<path d="M490.547 287.53L227.123 287.53C222.236 287.525 218.275 283.564 218.269 278.677L218.269 200.143C218.275 195.256 222.236 191.295 227.123 191.289L490.547 191.289C495.434 191.295 499.395 195.256 499.401 200.143L499.401 278.677C499.395 283.564 495.434 287.525 490.547 287.53Z" fill="#e6e6e6" fill-rule="nonzero" opacity="1" stroke="none"/>
<path d="M464.952 281.559L233.096 281.559C228.208 281.553 224.248 277.593 224.242 272.706L224.242 206.119C224.248 201.232 228.208 197.271 233.096 197.266L484.576 197.266C489.463 197.271 493.423 201.232 493.429 206.119L493.429 253.082C493.411 268.802 480.672 281.541 464.952 281.559Z" fill="#ffffff" fill-rule="nonzero" opacity="1" stroke="none"/>
<path d="M384.975 220.947L279.099 220.947C277.837 220.948 276.815 219.925 276.815 218.664C276.815 217.403 277.837 216.38 279.099 216.381L384.975 216.381C386.236 216.381 387.258 217.403 387.258 218.664C387.258 219.925 386.236 220.947 384.975 220.947Z" fill="#276a75" fill-rule="nonzero" opacity="1" stroke="none"/>
<path d="M438.572 230.286L279.099 230.286C277.837 230.286 276.815 229.264 276.815 228.003C276.815 226.741 277.837 225.719 279.099 225.719L438.572 225.719C439.833 225.72 440.854 226.742 440.854 228.003C440.854 229.263 439.833 230.285 438.572 230.286Z" fill="#e6e6e6" fill-rule="nonzero" opacity="1" stroke="none"/>
<path d="M438.572 241.005L279.099 241.005C278.282 241.007 277.526 240.572 277.117 239.865C276.708 239.158 276.708 238.286 277.117 237.579C277.526 236.872 278.282 236.437 279.099 236.439L438.572 236.439C439.831 236.441 440.85 237.463 440.85 238.722C440.85 239.981 439.831 241.002 438.572 241.005Z" fill="#e6e6e6" fill-rule="nonzero" opacity="1" stroke="none"/>
<path d="M438.572 251.724L279.099 251.724C278.282 251.726 277.526 251.291 277.117 250.584C276.708 249.877 276.708 249.005 277.117 248.298C277.526 247.591 278.282 247.156 279.099 247.158L438.572 247.158C439.831 247.161 440.85 248.182 440.85 249.441C440.85 250.7 439.831 251.722 438.572 251.724Z" fill="#e6e6e6" fill-rule="nonzero" opacity="1" stroke="none"/>
<path d="M438.572 262.444L279.099 262.444C278.282 262.446 277.526 262.011 277.117 261.304C276.708 260.596 276.708 259.725 277.117 259.018C277.526 258.31 278.282 257.876 279.099 257.877L438.572 257.877C439.831 257.88 440.85 258.901 440.85 260.161C440.85 261.42 439.831 262.441 438.572 262.444Z" fill="#e6e6e6" fill-rule="nonzero" opacity="1" stroke="none"/>
<path d="M578.689 615.836L567.988 615.835L562.897 574.558L578.692 574.559L578.689 615.836Z" fill="#a0616a" fill-rule="nonzero" opacity="1" stroke="none"/>
<path d="M579.066 627L546.158 626.999L546.158 626.583C546.158 619.509 551.893 613.774 558.967 613.774L558.967 613.774L564.978 609.214L576.194 613.775L579.067 613.775L579.066 627Z" fill="#2f2e41" fill-rule="nonzero" opacity="1" stroke="none"/>
<path d="M666.179 602.133L656.59 606.883L633.703 572.157L647.856 565.146L666.179 602.133Z" fill="#a0616a" fill-rule="nonzero" opacity="1" stroke="none"/>
<path d="M671.473 611.969L641.985 626.578L641.8 626.205C638.66 619.867 641.253 612.182 647.591 609.042L647.592 609.041L650.953 602.286L663.028 601.394L665.602 600.119L671.473 611.969Z" fill="#2f2e41" fill-rule="nonzero" opacity="1" stroke="none"/>
<path d="M546.987 393.964C546.987 393.964 534.805 410.946 543.598 440.285C552.391 469.623 547.455 495.853 549.923 501.113C552.391 506.372 557.359 511.367 553.254 515.355C549.148 519.342 546.987 522.585 550.229 523.666C553.472 524.746 564.28 600.406 564.28 600.406L582.655 601.486C582.655 601.486 589.311 566.341 582.2 537.978C582.2 537.978 583.761 517.387 580.506 511.339C577.25 505.291 577.889 510.746 578.11 503.155C578.232 497.665 579.033 492.211 580.493 486.917C581.574 482.593 582.2 439.019 582.2 439.019L600.087 496.844C600.805 498.836 601.074 500.962 600.876 503.07C600.433 506.049 600.429 510.5 600.972 512.057C601.514 513.615 602.118 513.942 601.816 517.021C601.514 520.1 637.514 585 637.514 585L655.401 573L637.778 516.1C636.028 514.161 634.571 511.976 633.454 509.615C631.293 505.291 631.209 505.053 632.332 501.93C633.454 498.806 633.454 492.721 633.454 490.9C633.454 489.079 634.577 406.397 620.505 394.236C606.433 382.075 546.987 393.964 546.987 393.964Z" fill="#2f2e41" fill-rule="nonzero" opacity="1" stroke="none"/>
<path d="M613.063 262.423L609.401 252L599.401 242L580.955 239.798L568.947 247.692L557.826 258.656L541.401 395C541.401 395 618.983 424.912 629.149 399.809L613.063 262.423Z" fill="#cccccc" fill-rule="nonzero" opacity="1" stroke="none"/>
<path d="M619.352 262.423L608.576 251.647C608.576 251.647 603.428 320.519 605.621 325.363C607.814 330.207 610.397 328.97 607.605 331.588C604.814 334.206 601.814 331.608 604.814 336.407C606.582 339.098 607.449 342.281 607.291 345.497C607.291 345.497 622.814 443.206 631.814 443.206C640.814 443.206 646.449 440.572 646.131 437.889C645.814 435.206 640.505 428.527 642.16 426.867C643.814 425.206 647.892 426.46 643.853 423.333C639.814 420.207 637.814 421.206 638.814 417.206C639.814 413.206 632.169 361.352 632.169 361.352L631.423 274.739L619.352 262.423Z" fill="#3f3d56" fill-rule="nonzero" opacity="1" stroke="none"/>
<path d="M568.947 247.692L554.991 249.667L538.401 256C538.401 256 545.978 341.482 544.396 344.344C542.814 347.206 540.003 345.419 542.408 348.313C544.814 351.206 546.978 349.923 544.396 352.565C541.814 355.207 537.467 351.86 540.141 356.533C542.814 361.207 529.932 425.549 533.401 429C536.869 432.451 545.806 430.304 545.81 427.755C545.537 425.008 544.499 422.393 542.814 420.207C541.814 419.061 541.814 417.352 542.814 416.207C544.231 414.844 545.204 413.085 545.607 411.161C545.814 409.207 547.341 406.805 548.078 405.006C548.814 403.206 567.356 281.415 567.356 281.415L568.947 247.692Z" fill="#3f3d56" fill-rule="nonzero" opacity="1" stroke="none"/>
<path d="M509.401 315L515.695 311.714C507.836 304.625 488.338 293.028 488.338 293.028L454.731 270.371C453.371 267.169 449.906 265.408 446.518 266.195C443.129 266.982 440.795 270.09 440.986 273.564C441.176 277.038 443.835 279.873 447.29 280.285L484.951 314.026L509.401 315Z" fill="#a0616a" fill-rule="nonzero" opacity="1" stroke="none"/>
<path d="M555.401 290L555.469 262.366L540.118 255.024L501.401 296L498.401 294L491.401 294L474.401 314C474.401 314 483.455 319.366 487.928 317.183C492.401 315 491.98 318.136 491.98 318.136C493.346 319.854 495.712 320.411 497.7 319.482C501.401 318 508.401 322 508.401 322L555.401 290Z" fill="#3f3d56" fill-rule="nonzero" opacity="1" stroke="none"/>
<path d="M569.808 211.063C569.808 198.7 579.83 188.677 592.194 188.677C604.558 188.677 614.58 198.7 614.58 211.063C614.58 223.427 604.558 233.45 592.194 233.45C579.83 233.45 569.808 223.427 569.808 211.063Z" fill="#a0616a" fill-rule="nonzero" opacity="1" stroke="none"/>
<path d="M619.218 216.747C617.105 220.883 614.269 224.608 610.843 227.744C609.86 228.862 608.605 229.708 607.2 230.201C605.743 230.676 604.154 230.042 603.425 228.694L603.01 228.127C604.21 227.76 605.341 227.2 606.361 226.469C607.389 225.723 607.992 224.526 607.982 223.255C607.906 221.955 606.816 220.948 605.514 220.974C604.115 221.141 602.865 222.774 601.612 222.144C600.6 221.63 600.745 220.157 601.036 219.044C602.593 213.239 601.942 204.241 599.7 203.927C597.47 203.473 595.346 202.603 593.438 201.364C591.528 200.122 589.394 199.264 587.157 198.837C586.995 198.816 586.832 198.805 586.658 198.791C586.594 197.594 586.386 196.409 586.037 195.262C585.794 196.473 585.422 197.655 584.929 198.787C582.99 199.052 581.033 199.15 579.078 199.083C576.994 198.841 571.004 203.697 570.96 203.029C570.896 201.832 570.687 200.647 570.339 199.5C570.096 200.711 569.724 201.893 569.231 203.025C569.208 203.072 569.198 203.111 569.175 203.157C568.539 201.604 568.356 199.868 568.372 201.165C567.035 192.916 569.687 187.949 576.457 183.057C577.809 181.978 579.413 181.26 581.119 180.971C582.851 180.694 584.602 181.341 585.738 182.677C591.032 179.877 597.427 180.167 602.446 183.434C607.316 186.697 611.157 188.868 610.509 194.702C615.125 195.146 619.024 198.853 620.482 203.247C621.928 207.647 621.177 212.558 619.218 216.747Z" fill="#2f2e41" fill-rule="nonzero" opacity="1" stroke="none"/>
<path d="M647.793 333.396L631.732 331.095C626.301 340.178 624.37 364.353 624.37 364.353L608.652 401.712C605.774 403.667 604.717 407.407 606.146 410.579C607.575 413.751 611.076 415.438 614.447 414.578C617.818 413.719 620.084 410.561 619.819 407.092L645.627 363.608L647.793 333.396Z" fill="#a0616a" fill-rule="nonzero" opacity="1" stroke="none"/>
<path d="M610.813 277.704L617.619 268.331L631.418 274.744L642.896 319.017C642.896 319.017 651.277 324.471 649.489 328.319C647.701 332.166 646.751 335.271 648.599 337.475C650.447 339.68 655.83 339.842 651.82 343.437C647.811 347.032 651.243 356.424 651.243 356.424L647.401 365L623.401 364L610.813 277.704Z" fill="#3f3d56" fill-rule="nonzero" opacity="1" stroke="none"/>
<path d="M55.7382 415.015C58.8882 412.544 59.4978 408.013 57.1132 404.797C56.8751 404.486 56.6117 404.196 56.3257 403.929L66.5738 380.264L56.3956 370.839L45.8618 404.774C43.7715 407.389 43.7059 411.085 45.7022 413.772C48.0553 416.878 52.4801 417.487 55.5853 415.134C55.6368 415.095 55.6878 415.056 55.7382 415.015Z" fill="#ffb6b6" fill-rule="nonzero" opacity="1" stroke="none"/>
<path d="M115.275 261.5C115.275 261.5 107.689 247.079 90.0915 262.653C72.4936 278.227 51.6984 356.182 52.1022 359.113C52.5061 362.043 56.8074 360.884 51.3669 365.104C45.9264 369.323 42.9183 365.532 45.9264 369.323C48.9345 373.115 55.6614 377.131 49.7052 377.695C43.749 378.259 65.5838 387.653 65.5838 387.653C65.5838 387.653 69.0182 386.828 70.0719 378.904C70.6637 374.453 68.6583 371.925 72.1885 371.184C75.7186 370.442 72.4097 362.393 72.9179 361.126C73.426 359.86 101.613 304.546 101.613 304.546L115.275 261.5Z" fill="#276a75" fill-rule="nonzero" opacity="1" stroke="none"/>
<path d="M149.919 613.706L162.661 613.705L168.724 564.551L149.916 564.552L149.919 613.706Z" fill="#ffb6b6" fill-rule="nonzero" opacity="1" stroke="none"/>
<path d="M149.469 627L188.657 626.999L188.657 626.503C188.657 618.079 181.828 611.251 173.404 611.25L173.403 611.25L166.245 605.82L152.89 611.251L149.469 611.251L149.469 627Z" fill="#2f2e41" fill-rule="nonzero" opacity="1" stroke="none"/>
<path d="M60.597 590.265L71.021 597.594L104.255 560.873L88.868 550.055L60.597 590.265Z" fill="#ffb6b6" fill-rule="nonzero" opacity="1" stroke="none"/>
<path d="M52.583 600.881L84.6401 623.421L84.9252 623.016C89.7701 616.125 88.1119 606.611 81.2215 601.765L81.2207 601.765L78.4889 593.205L64.4397 589.966L61.6414 587.998L52.583 600.881Z" fill="#2f2e41" fill-rule="nonzero" opacity="1" stroke="none"/>
<path d="M99.1449 369.166L98.0861 371.428C91.1259 386.297 89.3463 402.919 92.0511 419.112C92.2523 419.744 92.2139 420.428 91.9432 421.034C90.2658 423.001 92.8976 431.549 94.4061 436.322L95.7658 444.762C95.7658 444.762 93.5112 452.601 96.9358 452.025C100.36 451.449 95.2608 459.811 98.5274 461.905L107.001 514.508L71.6477 572.776L84.7416 591.762L137.117 524.329L137.772 463.442L145.628 512.544L146.283 589.798L170.104 587.266L178.832 512.367L170.507 408.785L157.413 363.874L99.1449 369.166Z" fill="#2f2e41" fill-rule="nonzero" opacity="1" stroke="none"/>
<path d="M115.512 234.31L134.783 235.227L143.998 251.148L143.998 251.148C152.276 253.631 158.979 259.737 162.221 267.748L168.222 282.573L161.396 368.291C161.396 368.291 160.027 373.476 162.547 372.719C165.066 371.962 164.039 378.459 164.039 378.459L173.326 414.175L88.8988 406.834L93.5868 368.993C93.5868 368.993 87.069 369.203 91.6519 364.62C96.2347 360.038 98.4635 361.497 94.061 356.079C89.6586 350.661 89.0039 346.733 89.0039 346.733L87.0398 319.891L83.8018 282.114C82.7581 269.937 87.9121 258.053 97.5149 250.493L97.5149 250.493L115.512 234.31Z" fill="#276a75" fill-rule="nonzero" opacity="1" stroke="none"/>
<path d="M101.065 205.45C101.065 191.952 112.007 181.01 125.505 181.01C139.002 181.01 149.944 191.952 149.944 205.45C149.944 218.947 139.002 229.889 125.505 229.889C112.007 229.889 101.065 218.947 101.065 205.45Z" fill="#ffb6b6" fill-rule="nonzero" opacity="1" stroke="none"/>
<path d="M116.062 227.886C123.075 227.656 123.712 225.803 130.725 225.573C132.958 225.5 135.593 225.194 136.673 223.238C137.31 221.752 137.213 220.054 136.411 218.65C135.611 217.275 134.89 215.856 134.251 214.4C133.469 212.081 133.881 209.526 135.351 207.57C136.821 205.614 139.161 204.508 141.606 204.613C143.74 204.706 145.744 205.709 147.873 205.893C150.791 206.144 157.246 196.507 155.902 193.904C154.594 191.37 151.961 189.458 151.547 186.636C151.277 184.791 152.039 182.957 152.143 181.095C152.297 178.334 145.298 184.56 146.579 182.109C149.724 176.098 120.092 168.645 115.214 176.175C113.391 178.989 110.141 178.797 107.245 180.487C105.347 181.595 100.554 185.417 99.4643 187.798C98.4631 190.229 97.99 192.844 98.0763 195.472C98.0325 207.69 99.8939 218.929 109.749 226.151" fill="#2f2e41" fill-rule="nonzero" opacity="1" stroke="none"/>
<path d="M185.442 413.965C182.445 411.31 182.107 406.751 184.68 403.683C184.936 403.387 185.216 403.113 185.517 402.863L176.7 378.629L187.423 369.828L195.912 404.332C197.843 407.067 197.688 410.76 195.534 413.323C193 416.283 188.547 416.627 185.588 414.093C185.539 414.051 185.49 414.008 185.442 413.965Z" fill="#ffb6b6" fill-rule="nonzero" opacity="1" stroke="none"/>
<path d="M135.175 257.17C135.175 257.17 143.609 243.227 160.245 259.823C176.882 276.42 192.987 355.478 192.409 358.379C191.831 361.28 187.606 359.867 192.785 364.403C197.964 368.94 201.193 365.335 197.964 368.94C194.735 372.545 187.78 376.153 193.692 377.071C199.604 377.989 177.248 386.063 177.248 386.063C177.248 386.063 173.869 385.035 173.29 377.062C172.965 372.584 175.117 370.181 171.638 369.229C168.158 368.278 171.942 360.441 171.51 359.147C171.078 357.852 146.243 300.954 146.243 300.954L135.175 257.17Z" fill="#276a75" fill-rule="nonzero" opacity="1" stroke="none"/>
<path d="M378.35 124.271C378.353 135.319 369.399 144.278 358.35 144.281C347.302 144.283 338.343 135.329 338.34 124.281C338.338 113.232 347.292 104.273 358.34 104.271C363.648 104.263 368.74 106.368 372.494 110.12C376.248 113.872 378.355 118.963 378.35 124.271Z" fill="#276a75" fill-rule="nonzero" opacity="1" stroke="none"/>
<path d="M351.787 120.17C351.787 116.304 354.921 113.17 358.787 113.17C362.653 113.17 365.787 116.304 365.787 120.17C365.787 124.036 362.653 127.17 358.787 127.17C354.921 127.17 351.787 124.036 351.787 120.17Z" fill="#ffffff" fill-rule="nonzero" opacity="1" stroke="none"/>
<path d="M366.29 129.671L351.29 129.671C349.358 129.673 347.793 131.238 347.79 133.171C348.004 136.168 348.472 139.142 349.19 142.061C355.306 145.212 362.612 144.996 368.53 141.491C369.173 138.755 369.594 135.973 369.79 133.171C369.788 131.238 368.223 129.673 366.29 129.671Z" fill="#ffffff" fill-rule="nonzero" opacity="1" stroke="none"/>
<path d="M0 627.561C-0.000941452 627.877 0.124139 628.18 0.347525 628.404C0.570911 628.627 0.874154 628.752 1.19006 628.751L716.48 628.751C717.137 628.751 717.67 628.218 717.67 627.561C717.67 626.904 717.137 626.371 716.48 626.371L1.19006 626.371C0.874158 626.37 0.57092 626.495 0.347537 626.719C0.124154 626.942-0.000930552 627.245 0 627.561Z" fill="#cccccc" fill-rule="nonzero" opacity="1" stroke="none"/>
</g>
</svg>
