<?xml version="1.0" encoding="UTF-8" standalone="no"?>
<!DOCTYPE svg PUBLIC "-//W3C//DTD SVG 1.1//EN" "http://www.w3.org/Graphics/SVG/1.1/DTD/svg11.dtd">
<!-- Created with Vectornator (http://vectornator.io/) -->
<svg height="100%" stroke-miterlimit="10" style="fill-rule:nonzero;clip-rule:evenodd;stroke-linecap:round;stroke-linejoin:round;" version="1.1" viewBox="0 0 583.022 586.406" width="100%" xml:space="preserve" xmlns="http://www.w3.org/2000/svg" xmlns:vectornator="http://vectornator.io" xmlns:xlink="http://www.w3.org/1999/xlink">
<defs/>
<clipPath id="ArtboardFrame">
<rect height="586.406" width="583.022" x="0" y="0"/>
</clipPath>
<g clip-path="url(#ArtboardFrame)" id="Untitled" vectornator:layerName="Untitled">
<path d="M28.6621 450.064C33.144 404.317 60.2324 358.652 103.333 342.679C87.4066 390.06 88.7527 441.548 107.133 488.032C114.287 505.934 124.108 525.1 118.297 543.481C114.682 554.918 105.34 563.84 94.7873 569.542C84.2336 575.244 72.4317 578.138 60.7769 580.976L58.5199 582.944C38.8179 541.415 24.1803 495.811 28.6621 450.064Z" fill="#f0f0f0" fill-rule="nonzero" opacity="1" stroke="none"/>
<path d="M103.787 343.53C79.4519 372.253 64.1353 408.937 61.4573 446.545C60.8783 454.675 60.9986 462.973 62.9798 470.921C64.9705 478.653 68.9954 485.711 74.6362 491.361C79.79 496.735 85.684 501.636 89.4416 508.169C93.4023 515.055 93.7544 522.988 91.361 530.475C88.4327 539.635 82.3875 547.197 76.2188 554.386C69.3697 562.369 62.1291 570.552 59.4008 580.969C59.0702 582.231 57.1311 581.644 57.4612 580.384C62.2079 562.26 79.4031 551.587 87.308 535.169C90.9966 527.507 92.3988 518.688 88.5479 510.803C85.1805 503.907 79.1069 498.849 73.8416 493.453C68.313 487.787 64.0239 481.523 61.6995 473.891C59.3217 466.084 58.8768 457.773 59.2453 449.663C60.2183 431.28 64.0756 413.164 70.6762 395.978C78.1005 376.323 88.8324 358.082 102.408 342.046C103.248 341.054 104.622 342.544 103.787 343.53Z" fill="#ffffff" fill-rule="nonzero" opacity="1" stroke="none"/>
<path d="M61.6828 434.275C48.676 431.474 39.6135 419.662 40.2754 406.374C40.3075 405.829 40.7657 405.407 41.3116 405.42C41.8576 405.433 42.2951 405.876 42.3012 406.422C41.6617 418.8 50.1359 429.798 62.2676 432.335C63.5433 432.603 62.9511 434.541 61.6828 434.275Z" fill="#ffffff" fill-rule="nonzero" opacity="1" stroke="none"/>
<path d="M71.6642 488.98C82.7909 481.937 90.8541 470.959 94.2459 458.234C94.5809 456.973 96.5202 457.56 96.1855 458.819C92.6312 472.054 84.217 483.461 72.6222 490.766C71.5165 491.461 70.5645 489.672 71.6642 488.98Z" fill="#ffffff" fill-rule="nonzero" opacity="1" stroke="none"/>
<path d="M80.0293 378.192C84.757 380.29 90.2223 379.869 94.5735 377.073C95.6697 376.364 96.6206 378.154 95.5315 378.858C90.7119 381.924 84.6863 382.401 79.4445 380.132C78.9211 379.956 78.6247 379.403 78.7671 378.87C78.9309 378.336 79.494 378.034 80.0293 378.192Z" fill="#ffffff" fill-rule="nonzero" opacity="1" stroke="none"/>
<path d="M238.013 420.668C237.342 421.131 236.67 421.593 235.997 422.072C226.996 428.333 218.518 435.316 210.647 442.95C210.029 443.53 209.411 444.128 208.812 444.725C190.045 463.32 174.894 485.237 164.128 509.363C159.853 518.967 156.315 528.883 153.544 539.023C149.719 553.029 146.685 568.518 138.692 580.101C137.871 581.319 136.976 582.484 136.012 583.592L61.0958 585.545C60.9233 585.464 60.7504 585.4 60.5771 585.319L57.5895 585.534C57.6959 585.001 57.8176 584.45 57.924 583.917C57.9844 583.608 58.0615 583.298 58.1219 582.988C58.1675 582.782 58.2139 582.575 58.2432 582.386C58.2581 582.318 58.2739 582.249 58.2892 582.197C58.3185 582.008 58.3658 581.836 58.3956 581.664C59.0678 578.585 59.7628 575.505 60.4806 572.425C60.4801 572.408 60.4801 572.408 60.4964 572.39C66.0257 548.934 73.5618 525.732 84.3799 504.412C84.7056 503.771 85.03 503.113 85.3899 502.47C90.3195 492.887 96.0241 483.723 102.447 475.07C105.979 470.343 109.748 465.798 113.74 461.452C124.075 450.242 136.109 440.728 149.401 433.258C175.901 418.371 206.867 412.125 235.808 420.042C236.548 420.245 237.273 420.448 238.013 420.668Z" fill="#f0f0f0" fill-rule="nonzero" opacity="1" stroke="none"/>
<path d="M237.87 421.624C201.146 429.906 166.83 449.974 142.05 478.389C136.692 484.533 131.792 491.231 128.589 498.769C125.523 506.141 124.488 514.2 125.59 522.108C126.469 529.501 128.225 536.963 127.292 544.441C126.308 552.324 121.813 558.87 115.394 563.407C107.541 568.958 98.1616 571.356 88.9077 573.383C78.633 575.633 67.9252 577.807 59.475 584.482C58.4511 585.29 57.2561 583.654 58.2784 582.847C72.9803 571.234 93.1354 573.065 109.332 564.715C116.89 560.818 123.319 554.621 124.992 546.006C126.455 538.473 124.651 530.778 123.696 523.299C122.693 515.446 123.039 507.863 125.778 500.37C128.58 492.705 133.229 485.801 138.406 479.548C150.251 465.455 164.238 453.313 179.855 443.565C197.617 432.342 217.168 424.239 237.662 419.608C238.93 419.322 239.13 421.339 237.87 421.624Z" fill="#ffffff" fill-rule="nonzero" opacity="1" stroke="none"/>
<path d="M149.617 468.728C140.918 458.661 140.794 443.774 149.323 433.562C150.162 432.565 151.751 433.822 150.911 434.821C142.949 444.318 143.093 458.202 151.252 467.532C152.109 468.514 150.469 469.705 149.617 468.728Z" fill="#ffffff" fill-rule="nonzero" opacity="1" stroke="none"/>
<path d="M124.65 518.417C137.775 519.493 150.823 515.582 161.192 507.464C162.218 506.659 163.414 508.295 162.388 509.099C151.582 517.526 137.996 521.568 124.34 520.419C123.039 520.309 123.356 518.308 124.65 518.417Z" fill="#ffffff" fill-rule="nonzero" opacity="1" stroke="none"/>
<path d="M198.031 434.996C200.543 439.517 205.16 442.471 210.318 442.859C211.62 442.953 211.302 444.954 210.008 444.861C204.314 444.406 199.216 441.16 196.397 436.192C196.085 435.736 196.181 435.117 196.616 434.777C197.068 434.449 197.699 434.547 198.031 434.996Z" fill="#ffffff" fill-rule="nonzero" opacity="1" stroke="none"/>
<path d="M376.505 181.772C376.505 181.772 363.142 238.193 379.474 238.193C395.807 238.193 434.411 174.348 434.411 174.348L421.048 158.015L397.063 191.315L395.807 174.348L376.505 181.772Z" fill="#a0616a" fill-rule="nonzero" opacity="1" stroke="none"/>
<path d="M417.85 163.801C417.85 156.621 423.67 150.801 430.85 150.801C438.03 150.801 443.85 156.621 443.85 163.801C443.85 170.98 438.03 176.801 430.85 176.801C423.67 176.801 417.85 170.98 417.85 163.801Z" fill="#a0616a" fill-rule="nonzero" opacity="1" stroke="none"/>
<path d="M365.175 566.048L382.478 566.047L390.711 499.301L365.171 499.302L365.175 566.048Z" fill="#a0616a" fill-rule="nonzero" opacity="1" stroke="none"/>
<path d="M364.565 584.1L417.778 584.098L417.778 583.425C417.777 571.986 408.505 562.714 397.066 562.713L397.065 562.713L387.345 555.339L369.209 562.714L364.564 562.714L364.565 584.1Z" fill="#2f2e41" fill-rule="nonzero" opacity="1" stroke="none"/>
<path d="M179.038 544.459L194.521 552.185L231.693 496.14L208.841 484.736L179.038 544.459Z" fill="#a0616a" fill-rule="nonzero" opacity="1" stroke="none"/>
<path d="M170.431 560.338L218.044 584.1L218.345 583.497C223.452 573.262 219.296 560.825 209.062 555.716L209.061 555.716L203.657 544.777L184.137 543.278L179.98 541.203L170.431 560.338Z" fill="#2f2e41" fill-rule="nonzero" opacity="1" stroke="none"/>
<path d="M0 584.165L569.85 584.165L569.85 584.165L569.85 586.406L569.85 586.406L0 586.406L0 586.406L0 584.165L0 584.165Z" fill="#cccccc" fill-rule="nonzero" opacity="1" stroke="none"/>
<path d="M253.298 284.128C253.298 284.128 246.383 367.276 244.898 385.094C243.88 396.262 241.384 407.247 237.474 417.758C237.474 417.758 234.505 423.698 234.505 429.637L200.85 490.801C200.85 490.801 190.566 498.36 192.05 504.299C193.535 510.238 185.85 513.801 185.85 513.801L221.292 520.631C221.292 520.631 219.807 516.177 224.261 514.692C228.715 513.208 232.261 500.329 232.261 500.329L282.017 419.243L317.652 345.005C317.652 345.005 338.439 411.819 342.893 419.243C342.893 419.243 359.225 502.39 362.195 509.814C365.164 517.238 366.649 517.238 365.164 520.208C363.68 523.177 363.68 526.147 365.164 527.631C366.649 529.116 394.86 527.631 394.86 527.631L387.436 422.213L374.073 296.007L305.774 275.221L253.298 284.128Z" fill="#2f2e41" fill-rule="nonzero" opacity="1" stroke="none"/>
<path d="M288.987 54.4516C288.987 37.2313 302.947 23.2715 320.167 23.2715C337.387 23.2715 351.347 37.2313 351.347 54.4516C351.347 71.6719 337.387 85.6317 320.167 85.6317C302.947 85.6317 288.987 71.6719 288.987 54.4516Z" fill="#a0616a" fill-rule="nonzero" opacity="1" stroke="none"/>
<path d="M377.043 131.198L339.925 108.71C339.925 108.71 338.896 94.7447 328.32 94.0876C323.01 93.7577 315.042 93.2533 303.085 92.4824C300.558 92.3195 298.853 106.145 295.957 105.957L256.776 116.35L262.715 217.315C262.715 217.315 253.807 257.403 256.776 264.827C259.746 272.251 249.352 275.221 252.322 276.705C255.291 278.19 252.322 288.584 252.322 288.584C252.322 288.584 310.228 318.279 374.073 296.007L368.134 276.705C369.777 271.576 368.654 265.961 365.164 261.858C365.164 261.858 371.103 252.949 363.68 245.525C363.68 245.525 366.649 232.162 359.225 226.223L357.74 205.436L362.195 195.043L377.043 131.198Z" fill="#e6e6e6" fill-rule="nonzero" opacity="1" stroke="none"/>
<path d="M293.111 72.2639L292.239 70.2395C292.127 69.9778 281.1 43.9104 290.874 27.8313C295.398 20.3875 303.625 16.1848 315.326 15.3411C333.633 14.0174 346.162 18.3601 352.577 28.2395C354.767 31.6502 354.92 35.9852 352.974 39.5413C351.028 43.0975 347.295 45.3065 343.242 45.3005L342.995 45.3005L339.632 40.9329L339.436 41.3577C338.218 43.9924 335.421 45.4348 332.145 45.1189C331.588 45.0789 331.095 45.5598 330.698 46.5891C330.426 47.5063 329.676 48.2019 328.741 48.4031C326.32 48.8743 322.87 45.8255 321.326 44.3059C321.205 45.0135 320.784 45.6341 320.17 46.0071C318.543 46.9461 316.01 45.7195 315.283 45.3289C309.492 46.5594 305.743 46.2303 304.137 44.3518C303.048 52.0554 300.711 65.9217 297.909 66.6902C297.307 66.8285 296.686 66.5571 296.379 66.0218C295.704 65.1458 295.101 64.7093 294.725 64.8318C293.813 65.1218 293.275 68.1238 293.198 70.0613L293.111 72.2639Z" fill="#2f2e41" fill-rule="nonzero" opacity="1" stroke="none"/>
<path d="M360.71 132.683L375.521 130.277C386.191 140.528 393.459 153.805 396.345 168.317C400.799 192.074 402.284 196.528 402.284 196.528L366.649 205.437L347.347 168.317L360.71 132.683Z" fill="#e6e6e6" fill-rule="nonzero" opacity="1" stroke="none"/>
<path d="M285.834 279.617L294.987 163.583L294.987 163.583L528.572 182.008L528.572 182.008L519.419 298.043L519.419 298.043L285.834 279.617L285.834 279.617Z" fill="#ffffff" fill-rule="nonzero" opacity="1" stroke="none"/>
<path d="M319.943 172.572C314.226 168.49 306.969 168.195 304.196 168.254C305.042 170.894 307.671 177.665 313.387 181.749C319.117 185.842 326.366 186.128 329.134 186.071C328.289 183.431 325.66 176.657 319.943 172.572Z" fill="#276a75" fill-rule="nonzero" opacity="1" stroke="none"/>
<path d="M342.493 246.407L304.986 243.449C300.326 243.081 296.249 246.561 295.882 251.222C295.514 255.883 298.994 259.959 303.655 260.327L303.655 260.327L341.162 263.285C345.823 263.653 349.899 260.173 350.267 255.512C350.634 250.851 347.154 246.775 342.493 246.407Z" fill="#276a75" fill-rule="nonzero" opacity="1" stroke="none"/>
<path d="M519.364 170.73L309.074 154.14C298.787 153.33 289.792 161.012 288.982 171.299L280.894 273.75C280.085 284.039 287.767 293.037 298.056 293.851L508.346 310.441C518.633 311.251 527.628 303.569 528.438 293.282L536.123 195.907L536.278 193.917L536.523 190.822C537.333 180.535 529.65 171.539 519.364 170.73ZM513.154 259.868L511.822 276.746C511.314 282.952 505.888 287.583 499.68 287.107L471.546 284.89C465.34 284.383 460.71 278.957 461.186 272.749L462.518 255.87C463.027 249.665 468.452 245.036 474.66 245.509L502.783 247.729C508.989 248.238 513.62 253.659 513.154 259.868ZM294.02 251.067C294.475 245.38 299.447 241.134 305.135 241.576L342.64 244.536C348.338 244.976 352.6 249.954 352.155 255.652C351.711 261.35 346.729 265.607 341.032 265.158L341.012 265.163L303.507 262.203C300.771 261.986 298.233 260.691 296.454 258.602C294.674 256.513 293.799 253.802 294.02 251.067ZM302.05 167.585L301.793 166.536L302.872 166.437C303.294 166.391 313.271 165.496 321.037 171.043C328.803 176.591 331.185 186.324 331.288 186.731L331.535 187.783L330.459 187.891C328.931 188.005 327.396 187.995 325.87 187.861C321.014 187.577 316.325 185.993 312.291 183.275C304.525 177.728 302.143 167.994 302.05 167.585Z" fill="#276a75" fill-rule="nonzero" opacity="1" stroke="none"/>
<path d="M481.603 271.062L469.414 270.1C467.603 269.96 466.021 271.313 465.879 273.123C465.736 274.934 467.086 276.518 468.896 276.664L481.085 277.625C482.896 277.765 484.478 276.412 484.621 274.602C484.763 272.792 483.413 271.208 481.603 271.062Z" fill="#276a75" fill-rule="nonzero" opacity="1" stroke="none"/>
<path d="M504.107 272.837L491.918 271.875C490.108 271.737 488.528 273.089 488.385 274.899C488.242 276.708 489.591 278.292 491.4 278.439L503.59 279.4C505.399 279.539 506.98 278.186 507.122 276.377C507.265 274.568 505.916 272.984 504.107 272.837Z" fill="#276a75" fill-rule="nonzero" opacity="1" stroke="none"/>
<path d="M482.269 262.622L470.079 261.661C468.27 261.523 466.689 262.875 466.547 264.685C466.404 266.494 467.752 268.077 469.561 268.225L481.751 269.186C483.562 269.326 485.143 267.973 485.286 266.163C485.429 264.352 484.079 262.768 482.269 262.622Z" fill="#276a75" fill-rule="nonzero" opacity="1" stroke="none"/>
<path d="M504.773 264.398L492.583 263.436C490.773 263.297 489.191 264.649 489.049 266.46C488.906 268.27 490.256 269.854 492.066 270L504.255 270.961C506.066 271.101 507.648 269.748 507.79 267.938C507.933 266.128 506.583 264.544 504.773 264.398Z" fill="#276a75" fill-rule="nonzero" opacity="1" stroke="none"/>
<path d="M482.935 254.183L470.745 253.222C468.934 253.082 467.353 254.435 467.21 256.245C467.067 258.056 468.417 259.64 470.227 259.786L482.417 260.747C484.227 260.885 485.807 259.533 485.95 257.723C486.092 255.914 484.744 254.331 482.935 254.183Z" fill="#276a75" fill-rule="nonzero" opacity="1" stroke="none"/>
<path d="M505.439 255.959L493.249 254.997C491.439 254.859 489.859 256.211 489.716 258.021C489.574 259.83 490.922 261.414 492.731 261.561L504.921 262.522C506.731 262.661 508.311 261.308 508.454 259.499C508.597 257.689 507.248 256.106 505.439 255.959Z" fill="#276a75" fill-rule="nonzero" opacity="1" stroke="none"/>
<path d="M285.7 205.62L285.856 203.625L285.856 203.625L532.709 223.017L532.709 223.017L532.552 225.011L532.552 225.011L285.7 205.62L285.7 205.62Z" fill="#ffffff" fill-rule="nonzero" opacity="1" stroke="none"/>
<path d="M536.278 193.917L536.123 195.907L527.532 195.233L435.999 188.043L436.164 186.051L527.687 193.243L536.278 193.917Z" fill="#3f3d56" fill-rule="nonzero" opacity="1" stroke="none"/>
<path d="M234.505 172.772C234.505 172.772 221.142 229.193 237.474 229.193C253.807 229.193 292.411 165.348 292.411 165.348L279.048 149.015L255.063 182.315L253.807 165.348L234.505 172.772Z" fill="#a0616a" fill-rule="nonzero" opacity="1" stroke="none"/>
<path d="M275.85 154.801C275.85 147.621 281.67 141.801 288.85 141.801C296.03 141.801 301.85 147.621 301.85 154.801C301.85 161.98 296.03 167.801 288.85 167.801C281.67 167.801 275.85 161.98 275.85 154.801Z" fill="#a0616a" fill-rule="nonzero" opacity="1" stroke="none"/>
<path d="M267.592 125.259L258.684 116.35C258.684 116.35 240.866 126.744 239.382 137.137C237.897 147.531 230.473 180.196 230.473 180.196L257.941 182.423L266.85 169.06L267.592 125.259Z" fill="#e6e6e6" fill-rule="nonzero" opacity="1" stroke="none"/>
</g>
</svg>
