<?xml version="1.0" encoding="UTF-8" standalone="no"?>
<!DOCTYPE svg PUBLIC "-//W3C//DTD SVG 1.1//EN" "http://www.w3.org/Graphics/SVG/1.1/DTD/svg11.dtd">
<!-- Created with Vectornator (http://vectornator.io/) -->
<svg height="100%" stroke-miterlimit="10" style="fill-rule:nonzero;clip-rule:evenodd;stroke-linecap:round;stroke-linejoin:round;" version="1.1" viewBox="0 0 564.468 449.265" width="100%" xml:space="preserve" xmlns="http://www.w3.org/2000/svg" xmlns:vectornator="http://vectornator.io" xmlns:xlink="http://www.w3.org/1999/xlink">
<defs/>
<g id="Untitled" vectornator:layerName="Untitled">
<path d="M239.346 431.63C241.412 431.759 242.553 429.193 240.99 427.697L240.835 427.078C240.855 427.029 240.876 426.979 240.897 426.93C242.986 421.948 250.067 421.983 252.138 426.972C253.977 431.4 256.318 435.836 256.894 440.518C257.152 442.585 257.036 444.69 256.577 446.718C260.885 437.308 263.153 427.032 263.153 416.697C263.153 414.101 263.01 411.504 262.72 408.914C262.481 406.796 262.151 404.69 261.725 402.604C259.419 391.327 254.427 380.586 247.225 371.615C243.763 369.722 240.876 366.764 239.132 363.218C238.506 361.939 238.015 360.563 237.782 359.162C238.176 359.213 239.268 353.213 238.971 352.845C239.52 352.012 240.502 351.598 241.102 350.785C244.084 346.741 248.193 347.447 250.338 352.942C254.92 355.255 254.965 359.09 252.153 362.779C250.364 365.126 250.119 368.301 248.549 370.814C248.711 371.02 248.878 371.221 249.04 371.427C252.001 375.225 254.562 379.307 256.721 383.596C256.111 378.83 257.012 373.088 258.547 369.386C260.296 365.169 263.572 361.617 266.458 357.971C269.924 353.592 277.031 355.503 277.642 361.055C277.648 361.108 277.654 361.162 277.659 361.216C277.231 361.458 276.811 361.714 276.401 361.986C274.061 363.533 274.87 367.16 277.642 367.587L277.704 367.597C277.549 369.141 277.285 370.671 276.897 372.176C280.599 386.492 272.607 391.706 261.196 391.941C260.944 392.07 260.698 392.199 260.446 392.322C261.602 395.577 262.526 398.916 263.211 402.301C263.824 405.291 264.251 408.314 264.49 411.349C264.787 415.179 264.761 419.029 264.438 422.853L264.457 422.717C265.277 418.506 267.564 414.572 270.884 411.847C275.829 407.784 282.817 406.288 288.152 403.023C290.72 401.451 294.012 403.482 293.563 406.46L293.541 406.602C292.747 406.925 291.972 407.3 291.223 407.72C290.794 407.961 290.374 408.218 289.964 408.489C287.625 410.037 288.433 413.663 291.205 414.091L291.268 414.101C291.313 414.107 291.352 414.114 291.397 414.12C290.034 417.356 288.135 420.36 285.759 422.95C283.444 435.447 273.503 436.632 262.868 432.993L262.862 432.993C261.699 438.057 260.001 443.004 257.817 447.719L239.797 447.719C239.733 447.519 239.675 447.312 239.616 447.112C241.283 447.216 242.962 447.119 244.603 446.815C243.266 445.175 241.929 443.521 240.592 441.88C240.559 441.848 240.534 441.816 240.508 441.784C239.83 440.944 239.145 440.111 238.467 439.271L238.466 439.27C238.424 436.693 238.733 434.124 239.345 431.63C239.345 431.63 239.346 431.63 239.346 431.63Z" fill="#f2f2f2" fill-rule="nonzero" opacity="1" stroke="none"/>
<path d="M0 448.075C0 448.735 0.53003 449.265 1.19006 449.265L404.48 449.265C405.14 449.265 405.67 448.735 405.67 448.075C405.67 447.415 405.14 446.885 404.48 446.885L1.19006 446.885C0.53003 446.885 0 447.415 0 448.075Z" fill="#cccccc" fill-rule="nonzero" opacity="1" stroke="none"/>
<path d="M544.743 449L338.192 449C327.316 449 318.468 440.151 318.468 429.275L318.468 19.7246C318.468 8.84863 327.316 0 338.192 0L544.743 0C555.619 0 564.468 8.84863 564.468 19.7246L564.468 429.275C564.468 440.151 555.619 449 544.743 449ZM338.192 2C328.403 2 320.468 9.93536 320.468 19.7241L320.468 429.275C320.468 439.064 328.403 447 338.192 447L544.743 447C554.532 447 562.468 439.064 562.468 429.275L562.468 150.705C562.468 68.5774 495.89 2 413.763 2C413.763 2 338.192 2 338.192 2Z" fill="#e6e6e6" fill-rule="nonzero" opacity="1" stroke="none"/>
<g opacity="1">
<path d="M353.134 178.118C353.134 164.863 363.879 154.118 377.134 154.118C390.389 154.118 401.134 164.863 401.134 178.118C401.134 191.373 390.389 202.118 377.134 202.118C363.879 202.118 353.134 191.373 353.134 178.118Z" fill="#555555" fill-rule="nonzero" opacity="1" stroke="none"/>
<path d="M481.801 178.118C481.801 164.863 492.546 154.118 505.801 154.118C519.056 154.118 529.801 164.863 529.801 178.118C529.801 191.373 519.056 202.118 505.801 202.118C492.546 202.118 481.801 191.373 481.801 178.118Z" fill="#555555" fill-rule="nonzero" opacity="1" stroke="none"/>
<path d="M417.467 178.118C417.467 164.863 428.213 154.118 441.467 154.118C454.722 154.118 465.467 164.863 465.467 178.118C465.467 191.373 454.722 202.118 441.467 202.118C428.213 202.118 417.467 191.373 417.467 178.118Z" fill="#555555" fill-rule="nonzero" opacity="1" stroke="none"/>
</g>
<path d="M353.134 247.118C353.134 233.863 363.879 223.118 377.134 223.118C390.389 223.118 401.134 233.863 401.134 247.118C401.134 260.373 390.389 271.118 377.134 271.118C363.879 271.118 353.134 260.373 353.134 247.118Z" fill="#555555" fill-rule="nonzero" opacity="1" stroke="none"/>
<path d="M481.801 247.118C481.801 233.863 492.546 223.118 505.801 223.118C519.056 223.118 529.801 233.863 529.801 247.118C529.801 260.373 519.056 271.118 505.801 271.118C492.546 271.118 481.801 260.373 481.801 247.118Z" fill="#555555" fill-rule="nonzero" opacity="1" stroke="none"/>
<path d="M417.467 247.118C417.467 233.863 428.213 223.118 441.467 223.118C454.722 223.118 465.467 233.863 465.467 247.118C465.467 260.373 454.722 271.118 441.467 271.118C428.213 271.118 417.467 260.373 417.467 247.118Z" fill="#555555" fill-rule="nonzero" opacity="1" stroke="none"/>
<path d="M353.134 316.118C353.134 302.863 363.879 292.118 377.134 292.118C390.389 292.118 401.134 302.863 401.134 316.118C401.134 329.373 390.389 340.118 377.134 340.118C363.879 340.118 353.134 329.373 353.134 316.118Z" fill="#555555" fill-rule="nonzero" opacity="1" stroke="none"/>
<path d="M481.31 385C481.31 371.745 492.055 361 505.31 361C518.565 361 529.31 371.745 529.31 385C529.31 398.255 518.565 409 505.31 409C492.055 409 481.31 398.255 481.31 385Z" fill="#555555" fill-rule="nonzero" opacity="1" stroke="none"/>
<path d="M353.31 385C353.31 371.745 378.606 361 409.81 361C441.014 361 466.31 371.745 466.31 385C466.31 398.255 441.014 409 409.81 409C378.606 409 353.31 398.255 353.31 385Z" fill="#555555" fill-rule="nonzero" opacity="1" stroke="none"/>
<path d="M481.801 316.118C481.801 302.863 492.546 292.118 505.801 292.118C519.056 292.118 529.801 302.863 529.801 316.118C529.801 329.373 519.056 340.118 505.801 340.118C492.546 340.118 481.801 329.373 481.801 316.118Z" fill="#555555" fill-rule="nonzero" opacity="1" stroke="none"/>
<path d="M417.467 316.118C417.467 302.863 428.213 292.118 441.467 292.118C454.722 292.118 465.467 302.863 465.467 316.118C465.467 329.373 454.722 340.118 441.467 340.118C428.213 340.118 417.467 329.373 417.467 316.118Z" fill="#276a75" fill-rule="nonzero" opacity="1" stroke="none"/>
<path d="M446.184 28L216.65 28C209.844 28 204.31 33.5343 204.31 40.3403L204.31 124.66C204.31 131.466 209.844 137 216.65 137L446.184 137C452.99 137 458.524 131.466 458.524 124.66L458.524 40.3403C458.524 33.5343 452.99 28 446.184 28Z" fill="#555555" fill-rule="nonzero" opacity="1" stroke="none"/>
<path d="M446.184 28L216.65 28C209.844 28 204.31 33.5343 204.31 40.3403L204.31 124.66C204.31 131.466 209.844 137 216.65 137L446.184 137C452.99 137 458.524 131.466 458.524 124.66L458.524 40.3403C458.524 33.5343 452.99 28 446.184 28ZM457.227 124.66C457.227 130.752 452.276 135.702 446.184 135.702L216.65 135.702C210.558 135.702 205.608 130.752 205.608 124.66L205.608 40.3403C205.608 34.248 210.558 29.2976 216.65 29.2976L446.184 29.2976C452.276 29.2976 457.227 34.248 457.227 40.3403L457.227 124.66Z" fill="#3f3d56" fill-rule="nonzero" opacity="1" stroke="none"/>
<path d="M229.417 79L433.417 79C435.35 79 436.917 80.567 436.917 82.5L436.917 82.5C436.917 84.433 435.35 86 433.417 86L229.417 86C227.484 86 225.917 84.433 225.917 82.5L225.917 82.5C225.917 80.567 227.484 79 229.417 79Z" fill="#276a75" fill-rule="nonzero" opacity="1" stroke="none"/>
<g opacity="1">
<g opacity="1">
<path d="M67.9521 180.421L65.9077 192.596L84.0383 236.7L93.766 231.699L84.298 190.427L82.9372 174.676L67.9521 180.421Z" fill="#a0616a" fill-rule="nonzero" opacity="1" stroke="none"/>
<path d="M87.9661 111.929C87.9661 111.929 78.4735 107.33 71.1075 122.867C63.7416 138.405 64.6537 172.482 64.6537 172.482C64.6537 172.482 61.9716 175.036 63.6742 176.824C65.3768 178.612 66.9641 181.45 65.2273 184.721C64.3119 186.445 62.1933 189.817 65.6626 190.775C69.132 191.734 85.3605 187.207 85.3605 187.207C85.3605 187.207 91.4289 184.489 87.9809 182.658C84.533 180.827 89.389 169.753 89.389 169.753L93.4015 137.761C93.4015 137.761 87.9661 111.929 87.9661 111.929Z" fill="#276a75" fill-rule="nonzero" opacity="1" stroke="none"/>
<path d="M84.9526 244.049C82.982 237.632 84.4733 231.482 88.2835 230.312C92.0937 229.142 96.7799 233.395 98.7505 239.812C100.721 246.23 99.2298 252.38 95.4196 253.55C91.6094 254.72 86.9232 250.467 84.9526 244.049Z" fill="#a0616a" fill-rule="nonzero" opacity="1" stroke="none"/>
</g>
<g opacity="1">
<path d="M185.278 442.57L194.364 440.131L189.282 403.923L175.872 407.522L185.278 442.57Z" fill="#a0616a" fill-rule="nonzero" opacity="1" stroke="none"/>
<path d="M216.354 434.01L216.354 434.01C216.765 434.411 217.327 435.909 217.475 436.463L217.475 436.463C217.932 438.166 216.922 439.917 215.219 440.374L187.079 447.925C185.917 448.237 184.722 447.548 184.411 446.386L184.096 445.214C184.096 445.214 181.759 442.067 183.461 436.958C183.461 436.958 187.935 439.4 191.829 432.649L192.636 429.385L206.227 434.645L212.733 433.731C214.156 433.531 215.325 433.007 216.354 434.01Z" fill="#2f2e41" fill-rule="nonzero" opacity="1" stroke="none"/>
</g>
<g opacity="1">
<path d="M96.2113 442.361L105.619 442.36L110.095 406.072L96.2094 406.073L96.2113 442.361Z" fill="#a0616a" fill-rule="nonzero" opacity="1" stroke="none"/>
<path d="M128.444 442.148L128.444 442.148C128.737 442.641 128.891 444.233 128.891 444.807L128.891 444.807C128.891 446.57 127.462 448 125.698 448L96.5632 448C95.3601 448 94.3849 447.025 94.3849 445.822L94.3849 444.609C94.3849 444.609 92.9436 440.963 95.911 436.47C95.911 436.47 99.599 439.988 105.11 434.477L106.735 431.533L118.499 440.136L125.019 440.939C126.445 441.115 127.71 440.912 128.444 442.148Z" fill="#2f2e41" fill-rule="nonzero" opacity="1" stroke="none"/>
</g>
<path d="M158.823 226.205L183.561 332.837L195.504 418.996L176.737 421.555L124.7 274.829L112.758 421.555L91.4312 423.261C91.4312 423.261 74.37 249.238 82.0476 227.911L158.823 226.205Z" fill="#2f2e41" fill-rule="nonzero" opacity="1" stroke="none"/>
<g opacity="1">
<path d="M188.269 100.115L196.805 91.1957L206.607 44.529L195.751 43.1957L180.377 82.6504L172.647 96.4413L188.269 100.115Z" fill="#a0616a" fill-rule="nonzero" opacity="1" stroke="none"/>
<path d="M133.21 145.505C133.21 145.505 141.198 160.235 156.025 151.527C170.852 142.819 186.533 108.535 186.533 108.535C186.533 108.535 189.664 99.8198 192.94 98.0911C194.666 97.1801 199.108 96.1976 196.778 93.4547C194.447 90.7118 177.688 84.7153 177.688 84.7153C177.688 84.7153 171.141 83.5517 172.963 87.0043C174.785 90.4569 168.801 88.3181 169.405 91.9721C170.009 95.626 164.543 96.8852 164.543 96.8852C164.543 96.8852 133.21 145.505 133.21 145.505Z" fill="#276a75" fill-rule="nonzero" opacity="1" stroke="none"/>
<path d="M199.505 47.4252C195.696 46.2506 194.212 40.0983 196.19 33.6835C198.168 27.2686 202.86 23.0206 206.668 24.1951C210.477 25.3697 211.961 31.5221 209.983 37.9369C208.005 44.3517 203.313 48.5998 199.505 47.4252Z" fill="#a0616a" fill-rule="nonzero" opacity="1" stroke="none"/>
</g>
<path d="M134.271 94.4735L110.914 94.4735L109.969 101.838C109.969 101.838 80.5127 109.938 81.2491 114.357C81.9855 118.775 86.404 192.416 86.404 192.416L82.7219 229.236C82.7219 229.236 148.999 257.22 159.309 224.082L154.154 185.788C154.154 185.788 166.673 120.248 163.727 117.302C160.781 114.357 136.48 102.574 136.48 102.574C136.48 102.574 134.271 94.4735 134.271 94.4735Z" fill="#276a75" fill-rule="nonzero" opacity="1" stroke="none"/>
<path d="M99.7397 73.6012C99.7397 62.0231 109.126 52.6372 120.704 52.6372C132.282 52.6372 141.668 62.0231 141.668 73.6012C141.668 85.1793 132.282 94.5652 120.704 94.5652C109.126 94.5652 99.7397 85.1793 99.7397 73.6012Z" fill="#a0616a" fill-rule="nonzero" opacity="1" stroke="none"/>
<path d="M136.229 64.9778C138.908 64.7513 141.586 64.5249 144.265 64.2985C143.344 63.8762 142.385 63.4242 141.772 62.6181C141.159 61.8121 141.032 60.5384 141.773 59.8478C142.639 59.0408 144.073 59.4684 145.019 60.1793C144.498 57.4584 142.874 54.9653 140.596 53.3892C137.813 51.4639 130.928 53.7597 127.572 53.3177C123.701 52.8076 123.218 49.5071 119.347 48.9971C117.888 48.805 116.245 48.66 115.098 49.5818C113.825 50.6041 113.683 52.537 112.56 53.7218C110.957 55.4135 108.209 54.9145 105.928 55.3904C102.697 56.0647 100.261 58.898 99.1357 62.0014C98.0107 65.1047 97.9693 68.48 97.9405 71.7809C97.9084 75.4802 97.8968 79.7627 100.572 82.3177C102.202 83.8743 106.643 89.2148 107.122 91.4171C107.463 92.9811 121.356 94.886 124.367 94.7993L134.63 91.4171C135.639 86.9757 133.97 78.1897 131.572 74.3177C132.362 75.3607 136.014 78.5009 136.572 77.3177C137.131 76.1345 136.877 72.426 137.572 71.3177C138.45 69.9188 134.584 65.1169 136.229 64.9778Z" fill="#2f2e41" fill-rule="nonzero" opacity="1" stroke="none"/>
</g>
</g>
</svg>
