<?xml version="1.0" encoding="UTF-8" standalone="no"?>
<!DOCTYPE svg PUBLIC "-//W3C//DTD SVG 1.1//EN" "http://www.w3.org/Graphics/SVG/1.1/DTD/svg11.dtd">
<!-- Created with Vectornator (http://vectornator.io/) -->
<svg height="100%" stroke-miterlimit="10" style="fill-rule:nonzero;clip-rule:evenodd;stroke-linecap:round;stroke-linejoin:round;" version="1.1" viewBox="0 0 602.107 696.919" width="100%" xml:space="preserve" xmlns="http://www.w3.org/2000/svg" xmlns:vectornator="http://vectornator.io" xmlns:xlink="http://www.w3.org/1999/xlink">
<defs/>
<clipPath id="ArtboardFrame">
<rect height="696.919" width="602.107" x="0" y="0"/>
</clipPath>
<g clip-path="url(#ArtboardFrame)" id="Untitled" vectornator:layerName="Untitled">
<path d="M602.107 266C602.107 267.98 602.083 269.957 602.037 271.93C602.017 273.22 601.977 274.51 601.927 275.8C601.917 276.17 601.907 276.53 601.887 276.9C601.857 277.61 601.827 278.31 601.797 279C601.577 283.61 601.237 288.187 600.777 292.73C600.757 292.95 600.737 293.17 600.717 293.38C600.667 293.83 600.627 294.28 600.567 294.73C600.427 296.08 600.277 297.43 600.107 298.76C599.997 299.66 599.887 300.55 599.767 301.45C599.707 301.88 599.647 302.31 599.597 302.73C599.527 303.2 599.467 303.66 599.397 304.12C599.367 304.32 599.337 304.52 599.307 304.73C599.207 305.41 599.107 306.1 598.997 306.78C598.867 307.67 598.727 308.55 598.577 309.44C598.437 310.32 598.287 311.2 598.127 312.08C597.977 312.96 597.817 313.84 597.657 314.72C597.497 315.61 597.327 316.49 597.157 317.37C596.297 321.73 595.337 326.053 594.277 330.34C593.857 332.01 593.427 333.677 592.987 335.34C592.257 338.04 591.487 340.727 590.677 343.4C590.447 344.14 590.217 344.88 589.987 345.61C589.727 346.45 589.457 347.29 589.187 348.12C588.917 348.96 588.647 349.79 588.367 350.62C588.087 351.45 587.807 352.28 587.517 353.11C587.237 353.93 586.947 354.76 586.647 355.58C586.357 356.41 586.057 357.23 585.757 358.05C585.447 358.87 585.147 359.69 584.837 360.5C584.217 362.14 583.58 363.763 582.927 365.37C582.607 366.18 582.277 366.99 581.937 367.79C580.607 371.01 579.213 374.193 577.757 377.34C577.437 378.04 577.117 378.74 576.787 379.43C576.567 379.89 576.357 380.34 576.137 380.8C575.767 381.56 575.407 382.31 575.037 383.06C574.667 383.82 574.287 384.59 573.897 385.36C573.127 386.88 572.343 388.397 571.547 389.91C570.757 391.42 569.947 392.93 569.117 394.42C568.287 395.91 567.447 397.4 566.597 398.87C566.167 399.61 565.737 400.35 565.307 401.08C563.577 404.01 561.79 406.907 559.947 409.77C558.117 412.62 556.227 415.437 554.277 418.22C553.307 419.61 552.317 421 551.317 422.37C550.917 422.92 550.517 423.46 550.117 424C549.627 424.68 549.117 425.35 548.607 426.02C504.809 484.275 439.011 521.991 366.608 530.344C294.205 538.696 221.549 516.953 165.637 470.2C162.717 467.76 159.85 465.26 157.037 462.7C138.984 446.26 123.268 427.425 110.327 406.72C108.717 404.13 107.137 401.51 105.617 398.87C82.2826 358.481 70.0326 312.645 70.1067 266C70.1067 119.09 189.197-4.99316e-05 336.107-4.99316e-05C425.915-0.0544809 509.676 45.2492 558.787 120.44C559.227 121.11 559.667 121.79 560.107 122.47C584.141 159.875 598.356 202.736 601.437 247.09C601.887 253.33 602.11 259.633 602.107 266Z" fill="#555555" fill-rule="nonzero" opacity="1" stroke="none"/>
<path d="M560.107 122.47L191.657 122.47C191.106 122.457 190.666 122.006 190.666 121.455C190.666 120.904 191.106 120.453 191.657 120.44L558.787 120.44C559.227 121.11 559.667 121.79 560.107 122.47Z" fill="#cacaca" fill-rule="nonzero" opacity="1" stroke="none"/>
<path d="M203.085 97.0903C203.085 90.9219 207.977 85.9215 214.01 85.9215C220.044 85.9215 224.936 90.9219 224.936 97.0903C224.936 103.259 220.044 108.259 214.01 108.259C207.977 108.259 203.085 103.259 203.085 97.0903Z" fill="#a7a7a7" fill-rule="nonzero" opacity="1" stroke="none"/>
<path d="M240.827 97.0903C240.827 90.9219 245.719 85.9215 251.753 85.9215C257.786 85.9215 262.678 90.9219 262.678 97.0903C262.678 103.259 257.786 108.259 251.753 108.259C245.719 108.259 240.827 103.259 240.827 97.0903Z" fill="#a7a7a7" fill-rule="nonzero" opacity="1" stroke="none"/>
<path d="M278.569 97.0903C278.569 90.9219 283.461 85.9215 289.495 85.9215C295.529 85.9215 300.42 90.9219 300.42 97.0903C300.42 103.259 295.529 108.259 289.495 108.259C283.461 108.259 278.569 103.259 278.569 97.0903Z" fill="#a7a7a7" fill-rule="nonzero" opacity="1" stroke="none"/>
<path d="M601.437 247.09C591.827 251.46 583.217 258.52 575.697 268.23C567.007 279.46 557.697 287.37 548.187 292.73C547.737 292.98 547.297 293.22 546.847 293.46C538.321 298.054 528.972 300.919 519.337 301.89C516.426 302.183 513.502 302.324 510.577 302.31C509.357 302.3 508.137 302.27 506.927 302.21C504.057 302.07 501.217 301.79 498.427 301.39C482.407 299.11 467.917 292.95 457.187 287.16C442.485 279.052 426.527 273.467 409.977 270.64C407.017 270.15 404.063 269.767 401.117 269.49C399.897 269.37 398.687 269.28 397.477 269.2C394.507 269 391.54 268.907 388.577 268.92C387.057 268.93 385.547 268.96 384.027 269.02C358.487 270.02 325.177 277.3 295.307 302.73C294.907 303.07 294.517 303.41 294.117 303.75C293.747 304.07 293.377 304.4 293.007 304.73C288.279 308.933 283.823 313.432 279.667 318.2C274.902 323.661 270.492 329.423 266.467 335.45C261.686 342.506 256.102 348.983 249.827 354.75C231.067 372.062 220.279 396.345 220.007 421.87L220.007 422.37C219.997 422.91 219.997 423.46 219.997 424L550.127 424C550.527 423.46 550.927 422.92 551.317 422.37C552.317 421 553.307 419.61 554.277 418.22C556.227 415.44 558.117 412.623 559.947 409.77C561.797 406.91 563.583 404.013 565.307 401.08C565.737 400.35 566.167 399.61 566.597 398.87C567.447 397.4 568.287 395.91 569.117 394.42C569.947 392.93 570.757 391.42 571.547 389.91C572.347 388.4 573.13 386.883 573.897 385.36C574.287 384.59 574.667 383.82 575.037 383.06C575.407 382.31 575.767 381.56 576.137 380.8C576.357 380.34 576.567 379.89 576.787 379.43C577.117 378.74 577.437 378.04 577.757 377.34C579.217 374.19 580.61 371.007 581.937 367.79C582.277 366.99 582.607 366.18 582.927 365.37C583.577 363.76 584.213 362.137 584.837 360.5C585.147 359.69 585.447 358.87 585.757 358.05C586.057 357.23 586.357 356.41 586.647 355.58C586.947 354.76 587.237 353.93 587.517 353.11C587.807 352.28 588.087 351.45 588.367 350.62C588.647 349.79 588.917 348.96 589.187 348.12C589.457 347.29 589.727 346.45 589.987 345.61C590.217 344.88 590.447 344.14 590.677 343.4C591.487 340.73 592.257 338.043 592.987 335.34C593.427 333.68 593.857 332.013 594.277 330.34C595.337 326.06 596.297 321.737 597.157 317.37C597.327 316.49 597.497 315.61 597.657 314.72C597.817 313.84 597.977 312.96 598.127 312.08C598.287 311.2 598.437 310.32 598.577 309.44C598.727 308.55 598.867 307.67 598.997 306.78C599.107 306.1 599.207 305.41 599.307 304.73C599.337 304.52 599.367 304.32 599.397 304.12C599.467 303.65 599.527 303.19 599.587 302.73C599.647 302.3 599.707 301.87 599.767 301.45C599.887 300.55 599.997 299.66 600.107 298.76C600.277 297.43 600.427 296.08 600.567 294.73L600.577 294.73C600.617 294.28 600.667 293.83 600.717 293.38C600.737 293.17 600.757 292.95 600.777 292.73C601.237 288.19 601.577 283.613 601.797 279C601.827 278.31 601.857 277.61 601.887 276.9C601.907 276.53 601.917 276.17 601.927 275.8C601.977 274.51 602.017 273.22 602.037 271.93C602.087 269.96 602.11 267.983 602.107 266C602.107 259.64 601.883 253.337 601.437 247.09Z" fill="#276a75" fill-rule="nonzero" opacity="1" stroke="none"/>
<path d="M288.244 314.155L291.893 314.155L291.893 314.155L291.893 421.094L291.893 421.094L288.244 421.094L288.244 421.094L288.244 314.155L288.244 314.155Z" fill="#a7a7a7" fill-rule="nonzero" opacity="1" stroke="none"/>
<path d="M397.473 264.211L401.122 264.211L401.122 264.211L401.122 421.094L401.122 421.094L397.473 421.094L397.473 421.094L397.473 264.211L397.473 264.211Z" fill="#a7a7a7" fill-rule="nonzero" opacity="1" stroke="none"/>
<path d="M506.927 297.047L510.575 297.047L510.575 297.047L510.575 421.094L510.575 421.094L506.927 421.094L506.927 421.094L506.927 297.047L506.927 297.047Z" fill="#a7a7a7" fill-rule="nonzero" opacity="1" stroke="none"/>
<path d="M388.361 266.726C388.361 260.561 393.358 255.564 399.522 255.564C405.686 255.564 410.683 260.561 410.683 266.726C410.683 272.89 405.686 277.887 399.522 277.887C393.358 277.887 388.361 272.89 388.361 266.726Z" fill="#a7a7a7" fill-rule="nonzero" opacity="1" stroke="none"/>
<path d="M497.815 297.737C497.815 291.573 502.812 286.576 508.976 286.576C515.14 286.576 520.137 291.573 520.137 297.737C520.137 303.902 515.14 308.899 508.976 308.899C502.812 308.899 497.815 303.902 497.815 297.737Z" fill="#a7a7a7" fill-rule="nonzero" opacity="1" stroke="none"/>
<path d="M276.907 305.155C276.907 298.991 281.905 293.994 288.069 293.994C294.233 293.994 299.23 298.991 299.23 305.155C299.23 311.32 294.233 316.317 288.069 316.317C281.905 316.317 276.907 311.32 276.907 305.155Z" fill="#a7a7a7" fill-rule="nonzero" opacity="1" stroke="none"/>
<path d="M551.317 422.37C550.917 422.92 550.517 423.46 550.117 424C549.627 424.68 549.117 425.35 548.607 426.02L219.637 426.02L219.637 422.37L551.317 422.37Z" fill="#a7a7a7" fill-rule="nonzero" opacity="1" stroke="none"/>
<path d="M127.115 685.125L137.686 685.125L142.715 644.349L127.113 644.35L127.115 685.125Z" fill="#ffb8b8" fill-rule="nonzero" opacity="1" stroke="none"/>
<path d="M154.617 685.56C153.389 684.321 151.928 683.338 150.317 682.67C148.704 682.01 146.979 681.67 145.237 681.67L139.007 676.95L138.677 677.08L127.397 681.67L124.417 681.67L124.417 695.37L158.507 695.37L158.507 694.94C158.517 691.419 157.116 688.04 154.617 685.56Z" fill="#2f2e41" fill-rule="nonzero" opacity="1" stroke="none"/>
<path d="M176.228 685.125L186.799 685.125L191.828 644.349L176.226 644.35L176.228 685.125Z" fill="#ffb8b8" fill-rule="nonzero" opacity="1" stroke="none"/>
<path d="M203.737 685.56C202.508 684.318 201.042 683.336 199.427 682.67C197.815 682.008 196.089 681.668 194.347 681.67L188.127 676.95L187.787 677.09L176.507 681.67L173.527 681.67L173.537 695.37L207.617 695.37L207.617 694.94C207.626 691.421 206.229 688.044 203.737 685.56Z" fill="#2f2e41" fill-rule="nonzero" opacity="1" stroke="none"/>
<path d="M184.678 461.981L101.619 464.148L103.064 504.594C103.064 504.594 101.619 515.428 104.508 518.317C107.397 521.206 108.842 521.206 107.397 526.262C105.953 531.317 113.585 539.575 112.658 540.502C111.731 541.429 109.564 546.485 109.564 546.485L116.787 587.653C116.787 587.653 121.842 659.155 123.287 660.6C124.731 662.044 126.176 660.6 124.731 664.211C123.287 667.822 121.842 666.378 123.287 667.822C124.566 669.202 125.772 670.648 126.898 672.156L144.36 672.156C144.36 672.156 145.677 664.933 145.677 664.211C145.677 663.489 147.121 659.155 147.121 658.433C147.121 657.711 145.844 656.434 145.844 656.434C145.403 654.966 145.105 653.458 144.954 651.933C144.954 650.488 140.621 594.875 140.621 594.875L149.288 522.65L170.233 593.431C170.233 593.431 170.233 655.544 171.678 656.989C173.122 658.433 173.122 657.711 172.4 660.6C171.678 663.489 168.789 662.767 170.955 664.933C173.122 667.1 173.844 663.489 173.122 667.1L172.4 670.711L194.067 671.021C194.067 671.021 196.956 664.933 195.512 662.767C194.067 660.6 194.154 661.191 195.916 657.645C197.678 654.1 198.401 653.377 197.678 652.655C196.956 651.933 196.956 648.091 196.956 648.091L193.345 578.986C193.345 578.986 192.623 506.039 192.623 503.872C192.568 502.757 192.774 501.645 193.223 500.623L193.223 497.682L190.456 487.26L184.678 461.981Z" fill="#2f2e41" fill-rule="nonzero" opacity="1" stroke="none"/>
<path d="M278.675 304.457C277.867 306.703 276.105 308.476 273.865 309.298C271.624 310.121 269.134 309.908 267.065 308.719L231.011 338.924L229.052 324.159L264.316 297.164C266.595 293.746 271.071 292.572 274.734 294.433C278.398 296.294 280.09 300.6 278.675 304.457Z" fill="#ffb8b8" fill-rule="nonzero" opacity="1" stroke="none"/>
<path d="M97.3067 294.534C97.3067 282.168 107.331 272.144 119.696 272.144C132.062 272.144 142.086 282.168 142.086 294.534C142.086 306.899 132.062 316.923 119.696 316.923C107.331 316.923 97.3067 306.899 97.3067 294.534Z" fill="#ffb8b8" fill-rule="nonzero" opacity="1" stroke="none"/>
<path d="M137.848 272.251C135.763 267.283 126.83 264.333 112.695 264.777C98.5594 265.221 96.0839 282.078 96.0839 282.078C88.2981 289.335 100.868 311.992 103.049 308.868C105.23 305.745 108.891 308.697 108.891 308.697L105.402 289.071C109.087 290.488 113.05 291.44 116.516 289.789L110.773 286.718L125.051 288.495L119.163 283.965C119.306 283.918 119.448 283.869 119.591 283.821C121.953 284.839 124.481 285.413 127.051 285.514C130.053 285.492 133.243 284.085 134.501 281.359C134.836 280.611 135.017 279.803 135.034 278.983C139.173 280.327 141.347 285.176 141.347 285.176C140.561 280.774 139.39 276.449 137.848 272.251Z" fill="#2f2e41" fill-rule="nonzero" opacity="1" stroke="none"/>
<path d="M137.618 317.925C132.618 317.925 129.398 318.615 121.618 319.925C107.258 322.345 115.858 335.989 115.858 335.989C115.858 335.989 116.508 335.659 114.748 335.989C112.988 336.319 106.988 341.509 106.988 341.509L96.2585 351.039C80.0885 363.729 83.7085 383.529 83.7085 383.529L107.288 407.259L96.9585 454.869C96.9585 454.869 101.348 461.939 99.0784 465.109C96.8084 468.279 119.078 467.369 119.078 467.369C134.448 474.219 188.598 468.429 188.598 468.429C187.848 466.469 180.598 451.279 180.598 451.279C183.748 445.839 180.748 437.979 180.748 437.979C180.748 437.979 177.618 400.799 175.618 395.659C173.618 390.519 180.738 362.669 185.418 362.969C190.098 363.269 220.328 347.849 220.328 347.849C220.328 347.849 219.568 346.639 229.548 342.559C235.281 340.307 240.536 336.992 245.038 332.789L249.138 324.599C247.168 325.359 240.518 312.819 240.518 312.819L237.618 313.925L235.938 313.439C235.938 313.439 222.828 317.169 220.148 319.889C217.468 322.609 216.568 321.849 214.148 322.459C211.728 323.069 211.428 324.769 210.668 324.579C209.908 324.389 208.558 326.689 207.498 326.389C206.438 326.089 204.168 327.299 202.658 327.599C201.148 327.899 190.418 332.439 190.418 332.439C183.778 329.079 165.778 330.439 165.778 330.439C165.778 330.439 159.888 326.969 158.218 330.439C157.301 332.452 155.3 333.751 153.088 333.769L145.908 330.699C145.491 332.222 137.66 316.346 137.618 317.925Z" fill="#3f3d56" fill-rule="nonzero" opacity="1" stroke="none"/>
<path d="M57.3312 640.99L56.3335 618.556C45.9324 612.996 34.3314 610.06 22.5379 610.001C38.7693 623.271 36.7409 648.852 47.7454 666.698C54.7843 677.919 66.5445 685.33 79.7046 686.838L93.2877 695.154C97.0597 674.126 91.4348 652.501 77.8949 635.975C74.0962 631.432 69.7405 627.384 64.9305 623.929C61.6773 632.507 57.3312 640.99 57.3312 640.99Z" fill="#f2f2f2" fill-rule="nonzero" opacity="1" stroke="none"/>
<path d="M4.72656e-06 695.729C-0.000936628 696.045 0.124145 696.348 0.347533 696.571C0.570921 696.795 0.874167 696.92 1.19007 696.919L284.48 696.919C285.137 696.919 285.67 696.386 285.67 695.729C285.67 695.071 285.137 694.539 284.48 694.539L1.19007 694.539C0.874171 694.538 0.57093 694.663 0.347545 694.886C0.124159 695.11-0.000925904 695.413 4.72656e-06 695.729Z" fill="#cccccc" fill-rule="nonzero" opacity="1" stroke="none"/>
<path d="M289.494 302.729L295.494 302.729L295.494 302.729L295.494 304.729L295.494 304.729L289.494 304.729L289.494 304.729L289.494 302.729L289.494 302.729Z" fill="#a7a7a7" fill-rule="nonzero" opacity="1" stroke="none"/>
<path d="M307.607 302.73L307.607 304.73L319.727 304.73L319.727 302.73L307.607 302.73ZM331.847 302.73L331.847 304.73L343.957 304.73L343.957 302.73L331.847 302.73ZM356.077 302.73L356.077 304.73L368.197 304.73L368.197 302.73L356.077 302.73ZM380.307 302.73L380.307 304.73L392.427 304.73L392.427 302.73L380.307 302.73ZM404.547 302.73L404.547 304.73L416.657 304.73L416.657 302.73L404.547 302.73ZM428.777 302.73L428.777 304.73L440.897 304.73L440.897 302.73L428.777 302.73ZM453.007 302.73L453.007 304.73L465.127 304.73L465.127 302.73L453.007 302.73ZM477.247 302.73L477.247 304.73L489.357 304.73L489.357 302.73L477.247 302.73ZM501.477 302.73L501.477 304.73L513.597 304.73L513.597 302.73L501.477 302.73ZM525.707 302.73L525.707 304.73L537.827 304.73L537.827 302.73L525.707 302.73ZM549.937 302.73L549.937 304.73L562.057 304.73L562.057 302.73L549.937 302.73ZM574.177 302.73L574.177 304.73L586.287 304.73L586.287 302.73L574.177 302.73ZM598.407 302.73L598.407 304.73L599.307 304.73C599.337 304.52 599.367 304.32 599.397 304.12C599.467 303.66 599.527 303.2 599.597 302.73L598.407 302.73Z" fill="#a7a7a7" fill-rule="nonzero" opacity="1" stroke="none"/>
<path d="M393.494 262.729L399.494 262.729L399.494 262.729L399.494 264.729L399.494 264.729L393.494 264.729L393.494 264.729L393.494 262.729L393.494 262.729Z" fill="#a7a7a7" fill-rule="nonzero" opacity="1" stroke="none"/>
<path d="M411.607 262.73L411.607 264.73L423.727 264.73L423.727 262.73L411.607 262.73ZM435.847 262.73L435.847 264.73L447.957 264.73L447.957 262.73L435.847 262.73ZM460.077 262.73L460.077 264.73L472.197 264.73L472.197 262.73L460.077 262.73ZM484.307 262.73L484.307 264.73L496.427 264.73L496.427 262.73L484.307 262.73ZM508.547 262.73L508.547 264.73L520.657 264.73L520.657 262.73L508.547 262.73ZM532.777 262.73L532.777 264.73L544.897 264.73L544.897 262.73L532.777 262.73ZM557.007 262.73L557.007 264.73L569.127 264.73L569.127 262.73L557.007 262.73ZM581.247 262.73L581.247 264.73L593.357 264.73L593.357 262.73L581.247 262.73Z" fill="#a7a7a7" fill-rule="nonzero" opacity="1" stroke="none"/>
<path d="M504.494 292.729L510.494 292.729L510.494 292.729L510.494 294.729L510.494 294.729L504.494 294.729L504.494 294.729L504.494 292.729L504.494 292.729Z" fill="#a7a7a7" fill-rule="nonzero" opacity="1" stroke="none"/>
<path d="M522.607 292.73L522.607 294.73L534.727 294.73L534.727 292.73L522.607 292.73ZM546.847 292.73L546.847 294.73L558.957 294.73L558.957 292.73L546.847 292.73ZM571.077 292.73L571.077 294.73L583.197 294.73L583.197 292.73L571.077 292.73ZM595.307 292.73L595.307 294.73L600.577 294.73C600.617 294.28 600.667 293.83 600.717 293.38C600.737 293.17 600.757 292.95 600.777 292.73L595.307 292.73Z" fill="#a7a7a7" fill-rule="nonzero" opacity="1" stroke="none"/>
<path d="M153.107 501.309L153.107 436.899C153.11 434.185 155.309 431.985 158.024 431.982L206.667 431.982C209.382 431.985 211.581 434.185 211.584 436.899L211.584 501.309C211.581 504.023 209.382 506.223 206.667 506.226L158.024 506.226C155.309 506.223 153.11 504.023 153.107 501.309Z" fill="#e6e6e6" fill-rule="nonzero" opacity="1" stroke="none"/>
<path d="M156.838 481.855L156.838 440.446C156.841 437.904 158.901 435.844 161.443 435.841L203.248 435.841C205.79 435.844 207.85 437.904 207.853 440.446L207.853 497.762C207.85 500.304 205.79 502.364 203.248 502.367L177.351 502.367C166.027 502.354 156.851 493.178 156.838 481.855Z" fill="#ffffff" fill-rule="nonzero" opacity="1" stroke="none"/>
<path d="M163.607 452C163.609 449.516 165.623 447.503 168.107 447.5L197.107 447.5C199.592 447.5 201.607 449.515 201.607 452C201.607 454.485 199.592 456.5 197.107 456.5L168.107 456.5C165.623 456.497 163.609 454.484 163.607 452Z" fill="#e6e6e6" fill-rule="nonzero" opacity="1" stroke="none"/>
<path d="M163.607 466C163.609 463.516 165.623 461.503 168.107 461.5L197.107 461.5C199.592 461.5 201.607 463.515 201.607 466C201.607 468.485 199.592 470.5 197.107 470.5L168.107 470.5C165.623 470.497 163.609 468.484 163.607 466Z" fill="#e6e6e6" fill-rule="nonzero" opacity="1" stroke="none"/>
<path d="M163.607 480C163.609 477.516 165.623 475.503 168.107 475.5L197.107 475.5C199.592 475.5 201.607 477.515 201.607 480C201.607 482.485 199.592 484.5 197.107 484.5L168.107 484.5C165.623 484.497 163.609 482.484 163.607 480Z" fill="#e6e6e6" fill-rule="nonzero" opacity="1" stroke="none"/>
<path d="M154.256 478.809C152.042 478.85 149.923 477.908 148.47 476.237C147.017 474.565 146.379 472.336 146.727 470.149L105.198 447.41L117.352 440.836L155.838 463.951C159.555 464.798 162.05 468.292 161.646 472.082C161.243 475.873 158.068 478.763 154.256 478.809Z" fill="#ffb8b8" fill-rule="nonzero" opacity="1" stroke="none"/>
<path d="M130.107 462L115.38 459.384L110.107 455L106.56 453.194L94.3375 444.615L94.3011 444.506L74.8797 387.097C73.0283 377.309 79.1308 367.776 88.7943 365.36L88.7943 365.36C94.0006 364.065 99.5124 365.058 103.939 368.088C108.367 371.119 111.286 375.898 111.963 381.22L118.213 430.423L128.574 441.122L133.107 442L134.15 446.881L138.107 453L130.107 462Z" fill="#3f3d56" fill-rule="nonzero" opacity="1" stroke="none"/>
</g>
</svg>
