<?xml version="1.0" encoding="UTF-8" standalone="no"?>
<!DOCTYPE svg PUBLIC "-//W3C//DTD SVG 1.1//EN" "http://www.w3.org/Graphics/SVG/1.1/DTD/svg11.dtd">
<!-- Created with Vectornator (http://vectornator.io/) -->
<svg height="100%" stroke-miterlimit="10" style="fill-rule:nonzero;clip-rule:evenodd;stroke-linecap:round;stroke-linejoin:round;" version="1.1" viewBox="0 0 452.553 472.429" width="100%" xml:space="preserve" xmlns="http://www.w3.org/2000/svg" xmlns:vectornator="http://vectornator.io" xmlns:xlink="http://www.w3.org/1999/xlink">
<defs/>
<clipPath id="ArtboardFrame">
<rect height="472.429" width="452.553" x="0" y="0"/>
</clipPath>
<g clip-path="url(#ArtboardFrame)" id="Untitled" vectornator:layerName="Untitled">
<g opacity="1">
<path d="M182.775 380.824C181.931 379.4 178.278 380.924 177.607 379.632C176.938 378.345 180.331 376.383 182.27 371.902C182.62 371.094 184.823 366.002 183.192 364.431C180.1 361.452 165.952 373.743 161.001 369.721C159.915 368.839 159.155 367.076 155.867 364.215C154.559 363.077 153.767 362.563 153.002 362.755C151.915 363.026 151.829 364.48 150.665 367.339C148.917 371.626 147.884 371.367 146.866 374.788C146.111 377.327 146.283 378.803 145.394 379.091C144.136 379.498 142.978 376.804 141.383 377.045C139.756 377.292 138.772 380.428 138.461 382.775C137.878 387.182 139.496 390.089 140.393 393.146C141.368 396.468 141.946 401.521 139.696 408.674L117.418 471.44C122.337 458.56 136.577 423.254 142.561 410.135C144.288 406.347 146.195 402.505 150.112 400.989C153.882 399.529 159.06 400.401 165.662 398.811C166.433 398.625 168.572 398.081 168.842 396.822C169.064 395.782 167.806 395.201 167.999 394.227C168.259 392.92 170.733 392.904 173.775 391.396C175.919 390.332 177.255 389.068 178.404 387.98C178.75 387.653 183.899 382.719 182.775 380.824C182.775 380.824 182.775 380.824 182.775 380.824Z" fill="#f2f2f2" fill-rule="nonzero" opacity="1" stroke="none"/>
<path d="M95.1299 413.866C94.1875 413.87 93.8818 416.102 93.0539 416.059C92.229 416.016 92.2455 413.785 90.6056 411.54C90.3099 411.135 88.4463 408.585 87.2045 408.932C84.8506 409.59 86.801 420.08 83.3983 421.35C82.6516 421.628 81.5676 421.492 79.2146 422.281C78.2785 422.595 77.798 422.835 77.671 423.266C77.4907 423.877 78.1794 424.339 79.2464 425.735C80.8466 427.83 80.4214 428.262 81.8065 429.749C82.8348 430.852 83.6091 431.194 83.4937 431.713C83.3305 432.448 81.6744 432.239 81.3327 433.092C80.984 433.961 82.2392 435.349 83.302 436.179C85.2962 437.736 87.1901 437.781 88.9493 438.223C90.8612 438.703 93.5079 439.877 96.3691 443.046L120.747 472.089C115.845 465.959 102.626 448.783 97.9127 442.061C96.5522 440.12 95.217 438.076 95.6029 435.716C95.9743 433.444 97.8961 431.154 99.0204 427.455C99.1517 427.023 99.5018 425.816 98.9619 425.321C98.5155 424.911 97.8674 425.362 97.4449 424.986C96.8783 424.481 97.5844 423.262 97.7218 421.334C97.8187 419.975 97.5835 418.954 97.3813 418.077C97.3203 417.812 96.3843 413.861 95.1299 413.866C95.1299 413.866 95.1299 413.866 95.1299 413.866Z" fill="#f2f2f2" fill-rule="nonzero" opacity="1" stroke="none"/>
<path d="M113.929 418.086L113.362 413.018L113.621 412.634C114.821 410.857 115.433 409.122 115.441 407.475C115.442 407.213 115.43 406.952 115.417 406.685C115.368 405.628 115.307 404.314 115.992 402.782C116.377 401.928 117.456 399.95 119.078 400.195C119.515 400.256 119.846 400.457 120.096 400.692C120.133 400.633 120.171 400.574 120.211 400.511C120.717 399.74 121.117 399.409 121.502 399.091C121.798 398.846 122.104 398.594 122.584 397.997C122.794 397.735 122.958 397.505 123.097 397.312C123.516 396.727 124.065 396.03 125.031 396.042C126.064 396.091 126.605 396.945 126.963 397.51C127.603 398.519 127.893 399.245 128.085 399.727C128.155 399.904 128.235 400.102 128.275 400.163C128.608 400.652 131.313 400.195 132.332 400.028C134.622 399.647 136.603 399.316 137.419 400.76C138.004 401.793 137.57 403.158 136.089 404.928C135.628 405.478 135.137 405.897 134.701 406.225C135.062 406.44 135.385 406.771 135.516 407.289L135.516 407.289C135.825 408.518 134.769 409.749 132.379 410.953C131.786 411.254 130.987 411.655 129.867 411.849C129.34 411.939 128.865 411.961 128.459 411.973C128.45 412.208 128.395 412.463 128.252 412.725C127.832 413.495 126.958 413.863 125.642 413.774C124.193 413.699 123 413.422 121.948 413.18C121.029 412.969 120.237 412.791 119.616 412.832C118.463 412.925 117.575 413.848 116.532 415.045L113.93 418.086C113.93 418.086 113.93 418.086 113.929 418.086Z" fill="#f2f2f2" fill-rule="nonzero" opacity="1" stroke="none"/>
<path d="M116.563 387.91L111.805 389.745L111.367 389.592C109.344 388.881 107.511 388.73 105.916 389.14C105.662 389.206 105.412 389.284 105.157 389.363C104.147 389.679 102.891 390.071 101.236 389.797C100.312 389.642 98.1256 389.1 97.9507 387.468C97.8991 387.03 98.0094 386.66 98.1731 386.357C98.1069 386.337 98.0405 386.315 97.9687 386.292C97.0949 385.999 96.6738 385.696 96.2683 385.403C95.9565 385.179 95.6351 384.947 94.9358 384.635C94.6291 384.497 94.365 384.397 94.143 384.312C93.4708 384.055 92.6571 383.702 92.4237 382.763C92.2091 381.752 92.8981 381.012 93.354 380.522C94.1669 379.647 94.7964 379.182 95.214 378.874C95.3668 378.762 95.5383 378.635 95.5873 378.58C95.9763 378.134 94.8474 375.633 94.4279 374.69C93.4779 372.572 92.6559 370.74 93.8455 369.584C94.6961 368.756 96.1272 368.83 98.2142 369.813C98.8638 370.12 99.3931 370.488 99.8208 370.827C99.9375 370.423 100.175 370.027 100.644 369.768L100.644 369.768C101.754 369.158 103.212 369.868 104.983 371.874C105.425 372.371 106.016 373.043 106.487 374.077C106.708 374.564 106.85 375.017 106.965 375.407C107.194 375.356 107.454 375.345 107.744 375.417C108.596 375.627 109.173 376.379 109.421 377.675C109.716 379.096 109.751 380.32 109.783 381.399C109.813 382.341 109.841 383.152 110.039 383.743C110.421 384.834 111.539 385.46 112.961 386.165L116.563 387.91C116.563 387.91 116.563 387.911 116.563 387.91Z" fill="#f2f2f2" fill-rule="nonzero" opacity="1" stroke="none"/>
<path d="M113.929 372.979L113.362 367.911L113.621 367.527C114.821 365.75 115.433 364.015 115.441 362.368C115.442 362.107 115.43 361.845 115.417 361.578C115.368 360.521 115.307 359.207 115.992 357.675C116.377 356.821 117.456 354.843 119.078 355.088C119.515 355.149 119.846 355.35 120.096 355.585C120.133 355.526 120.171 355.467 120.211 355.404C120.717 354.633 121.117 354.302 121.502 353.984C121.798 353.74 122.104 353.487 122.584 352.89C122.794 352.629 122.958 352.398 123.097 352.205C123.516 351.62 124.065 350.923 125.031 350.935C126.064 350.984 126.605 351.838 126.963 352.403C127.603 353.412 127.893 354.138 128.085 354.621C128.155 354.797 128.235 354.995 128.275 355.056C128.608 355.546 131.313 355.088 132.332 354.922C134.622 354.54 136.603 354.209 137.419 355.653C138.004 356.686 137.57 358.051 136.089 359.821C135.628 360.371 135.137 360.79 134.701 361.118C135.062 361.333 135.385 361.664 135.516 362.182L135.516 362.182C135.825 363.411 134.769 364.642 132.379 365.846C131.786 366.147 130.987 366.548 129.867 366.742C129.34 366.832 128.865 366.854 128.459 366.866C128.45 367.101 128.395 367.356 128.252 367.618C127.832 368.389 126.958 368.756 125.642 368.668C124.193 368.592 123 368.315 121.948 368.073C121.029 367.862 120.237 367.684 119.616 367.725C118.463 367.818 117.575 368.741 116.532 369.938L113.93 372.979C113.93 372.979 113.93 372.979 113.929 372.979Z" fill="#f2f2f2" fill-rule="nonzero" opacity="1" stroke="none"/>
<path d="M119.115 471.357L118.053 470.692L117.796 469.466L118.053 470.692L116.815 470.834C116.795 470.719 116.728 470.454 116.626 470.041C116.072 467.775 114.382 460.878 112.973 450.018C111.989 442.436 111.432 434.642 111.317 426.847C111.202 419.041 111.572 413.131 111.868 408.381C112.092 404.798 112.363 401.387 112.63 398.063C113.34 389.185 114.009 380.798 113.511 371.514C113.401 369.441 113.17 365.126 110.649 360.535C109.187 357.873 107.173 355.509 104.662 353.512L106.223 351.549C108.995 353.757 111.223 356.375 112.847 359.331C115.641 364.422 115.893 369.123 116.014 371.382C116.521 380.83 115.844 389.298 115.127 398.262C114.863 401.573 114.591 404.969 114.369 408.537C114.075 413.243 113.709 419.102 113.823 426.808C113.936 434.51 114.486 442.209 115.457 449.695C116.849 460.418 118.514 467.212 119.061 469.444C119.352 470.635 119.414 470.885 119.115 471.357C119.115 471.357 119.115 471.357 119.115 471.357Z" fill="#f2f2f2" fill-rule="nonzero" opacity="1" stroke="none"/>
<path d="M100.066 357.494C99.9633 357.494 99.8593 357.491 99.754 357.484C97.6201 357.369 95.644 356.091 93.8795 353.688C93.0524 352.558 92.629 351.268 91.7847 348.696C91.6538 348.299 91.0175 346.288 90.6308 343.52C90.3775 341.712 90.4094 340.955 90.7679 340.287C91.1656 339.543 91.8092 339.025 92.5335 338.675C92.5017 338.435 92.5274 338.188 92.6314 337.935C93.0585 336.891 94.194 337.028 94.8082 337.094C95.119 337.133 95.5069 337.184 95.9254 337.162C96.5837 337.13 96.9373 336.935 97.4732 336.641C97.9859 336.359 98.6234 336.01 99.5693 335.816C101.434 335.427 102.997 335.956 103.512 336.129C106.222 337.032 107.558 339.139 109.105 341.579C109.413 342.069 110.472 343.85 111.17 346.293C111.674 348.055 111.603 348.838 111.452 349.42C111.143 350.617 110.415 351.302 108.566 352.814C106.636 354.398 105.666 355.191 104.834 355.673C102.897 356.791 101.681 357.494 100.066 357.494C100.066 357.494 100.066 357.494 100.066 357.494Z" fill="#f2f2f2" fill-rule="nonzero" opacity="1" stroke="none"/>
</g>
<g opacity="1">
<path d="M217.451 467.068L224.014 467.067L227.135 441.755L217.45 441.756L217.451 467.068Z" fill="#ffb6b6" fill-rule="nonzero" opacity="1" stroke="none"/>
<path d="M239.935 466.919L239.935 466.919C240.139 467.263 240.247 468.374 240.247 468.774L240.247 468.774C240.247 470.004 239.25 471.002 238.02 471.002L217.697 471.002C216.857 471.002 216.177 470.321 216.177 469.482L216.177 468.636C216.177 468.636 215.172 466.093 217.242 462.959C217.242 462.959 219.814 465.413 223.658 461.569L224.792 459.515L232.997 465.516L237.546 466.076C238.541 466.199 239.423 466.057 239.935 466.919C239.935 466.919 239.935 466.919 239.935 466.919Z" fill="#2f2e41" fill-rule="nonzero" opacity="1" stroke="none"/>
</g>
<g opacity="1">
<path d="M197.451 467.068L204.014 467.067L207.135 441.755L197.45 441.756L197.451 467.068Z" fill="#ffb6b6" fill-rule="nonzero" opacity="1" stroke="none"/>
<path d="M219.935 466.919L219.935 466.919C220.139 467.263 220.247 468.374 220.247 468.774L220.247 468.774C220.247 470.004 219.25 471.002 218.02 471.002L197.697 471.002C196.857 471.002 196.177 470.321 196.177 469.482L196.177 468.636C196.177 468.636 195.172 466.093 197.242 462.959C197.242 462.959 199.814 465.413 203.658 461.569L204.792 459.515L212.997 465.516L217.546 466.076C218.541 466.199 219.423 466.057 219.935 466.919C219.935 466.919 219.935 466.919 219.935 466.919Z" fill="#2f2e41" fill-rule="nonzero" opacity="1" stroke="none"/>
</g>
<path d="M225.032 357.755L232.032 384.862L228.532 454.472L212.032 455.576L211.032 415.505L209.032 456.755L192.032 453.219L191.032 362.469L225.032 357.755Z" fill="#2f2e41" fill-rule="nonzero" opacity="1" stroke="none"/>
<g opacity="1">
<path d="M157.268 266.488C155.01 262.525 151.134 260.477 148.612 261.915C146.09 263.353 145.877 267.731 148.137 271.695C149.018 273.291 150.268 274.653 151.783 275.667L161.565 292.339L169.291 287.582L158.828 271.651C158.728 269.83 158.193 268.06 157.268 266.488Z" fill="#276a75" fill-rule="nonzero" opacity="1" stroke="none"/>
<path d="M201.722 325.344C201.722 325.344 192.452 338.121 186.781 333.555C181.111 328.989 149.784 277.661 149.784 277.661L162.216 270.998C162.216 270.998 201.722 325.344 201.722 325.344Z" fill="#276a75" fill-rule="nonzero" opacity="1" stroke="none"/>
</g>
<path d="M193.032 309.755L205.032 291.755L217.032 296.755L214.032 312.755L193.032 309.755Z" fill="#ffb6b6" fill-rule="nonzero" opacity="1" stroke="none"/>
<path d="M194.032 305.755L215.032 304.755L229.032 308.755L232.032 382.755L190.032 378.755L190.032 339.731L184.032 319.755L194.032 305.755Z" fill="#276a75" fill-rule="nonzero" opacity="1" stroke="none"/>
<path d="M228.69 355.671C227.952 353.519 227.658 351.247 227.848 348.979C228.385 342.581 228.487 330.045 221.965 324.382L218.282 320.391C218.205 320.308 218.119 320.237 218.041 320.156L224.135 305.831L220.454 304.265L214.797 317.562C212.288 316.035 209.394 315.189 206.401 315.189C202.943 315.189 199.638 316.317 196.908 318.302L193.458 305.663L189.598 306.716L193.912 321.131C193.755 321.322 193.584 321.498 193.435 321.697L191.328 324.526C190.815 325.214 190.248 325.854 189.635 326.455C188.341 327.722 185.817 330.798 185.793 335.534C185.785 337.153 185.452 338.755 184.958 340.298L182.453 348.126C182.218 348.861 182.033 349.609 181.908 350.37C180.804 357.073 176.981 388.653 203.109 388.021C227.466 387.432 229.069 372.601 228.927 367.675C228.896 366.606 228.992 365.546 229.192 364.495C229.557 362.568 229.886 359.159 228.69 355.671Z" fill="#3f3d56" fill-rule="nonzero" opacity="1" stroke="none"/>
<path d="M338.723 36.0166L341.001 71.1832L312.36 77.755L314.355 49.3212L338.723 36.0166Z" fill="#ffb6b6" fill-rule="nonzero" opacity="1" stroke="none"/>
<g opacity="1">
<path d="M340.904 463.408L327.994 463.407L321.852 413.611L340.906 413.612L340.904 463.408Z" fill="#ffb6b6" fill-rule="nonzero" opacity="1" stroke="none"/>
<path d="M296.673 463.115L296.673 463.115C296.271 463.792 296.059 465.977 296.059 466.764L296.059 466.764C296.059 469.184 298.02 471.146 300.44 471.146L340.421 471.146C342.072 471.146 343.41 469.808 343.41 468.157L343.41 466.492C343.41 466.492 345.388 461.49 341.316 455.323C341.316 455.323 336.255 460.152 328.693 452.589L326.463 448.549L310.32 460.355L301.373 461.457C299.415 461.697 297.68 461.419 296.673 463.115C296.673 463.115 296.673 463.115 296.673 463.115Z" fill="#2f2e41" fill-rule="nonzero" opacity="1" stroke="none"/>
</g>
<g opacity="1">
<path d="M375.904 463.408L362.994 463.407L356.852 413.611L375.906 413.612L375.904 463.408Z" fill="#ffb6b6" fill-rule="nonzero" opacity="1" stroke="none"/>
<path d="M331.673 463.115L331.673 463.115C331.271 463.792 331.059 465.977 331.059 466.764L331.059 466.764C331.059 469.184 333.02 471.146 335.44 471.146L375.421 471.146C377.072 471.146 378.41 469.808 378.41 468.157L378.41 466.492C378.41 466.492 380.388 461.49 376.316 455.323C376.316 455.323 371.255 460.152 363.693 452.589L361.463 448.549L345.32 460.355L336.373 461.457C334.415 461.697 332.68 461.419 331.673 463.115C331.673 463.115 331.673 463.115 331.673 463.115Z" fill="#2f2e41" fill-rule="nonzero" opacity="1" stroke="none"/>
</g>
<path d="M384.032 226.755C384.032 226.755 395.032 240.755 393.032 248.755C391.032 256.755 377.032 440.755 377.032 440.755L357.032 439.755L345.032 274.755L341.946 440.755L323.032 439.755L299.032 233.755C299.032 233.755 384.032 226.755 384.032 226.755Z" fill="#2f2e41" fill-rule="nonzero" opacity="1" stroke="none"/>
<path d="M268.405 271.394C266.514 278.642 261.241 283.541 256.629 282.337C252.016 281.133 249.811 274.282 251.704 267.031C252.42 264.125 253.822 261.432 255.793 259.178L264.193 228.569L278.473 232.817L268.676 262.541C269.294 265.471 269.201 268.507 268.405 271.394Z" fill="#ffb6b6" fill-rule="nonzero" opacity="1" stroke="none"/>
<path d="M286.884 36.6256C286.884 20.8446 299.677 8.05157 315.458 8.05157C331.239 8.05157 344.032 20.8446 344.032 36.6256C344.032 52.4066 331.239 65.1996 315.458 65.1996C299.677 65.1996 286.884 52.4066 286.884 36.6256Z" fill="#ffb6b6" fill-rule="nonzero" opacity="1" stroke="none"/>
<path d="M312.032 72.755L342.032 66.755L375.032 83.755L382.032 192.755L391.032 233.755L298.032 234.755L302.032 179.755L296.032 92.755L312.032 72.755Z" fill="#e6e6e6" fill-rule="nonzero" opacity="1" stroke="none"/>
<path d="M305.032 95.755C305.032 95.755 289.032 90.755 283.032 99.755C277.032 108.755 266.032 189.755 266.032 189.755L255.032 250.755L275.032 253.755L308.032 146.755L305.032 95.755Z" fill="#e6e6e6" fill-rule="nonzero" opacity="1" stroke="none"/>
<g opacity="1">
<path d="M450.565 236.336C453.825 243.08 452.988 250.228 448.696 252.302C444.404 254.376 438.283 250.591 435.022 243.844C433.683 241.166 433.004 238.207 433.043 235.214L419.591 206.465L433.217 200.44L445.031 229.421C447.402 231.251 449.299 233.622 450.565 236.336Z" fill="#ffb6b6" fill-rule="nonzero" opacity="1" stroke="none"/>
<path d="M362.508 84.7915C362.508 84.7915 376.877 76.1583 384.831 83.4889C392.784 90.8195 422.582 166.939 422.582 166.939L447.661 223.622L428.933 231.256L371.623 135.06C371.623 135.06 362.508 84.7915 362.508 84.7915Z" fill="#e6e6e6" fill-rule="nonzero" opacity="1" stroke="none"/>
</g>
<path d="M431.67 471.239C431.67 471.899 431.14 472.429 430.48 472.429L1.19 472.429C0.53003 472.429 0 471.899 0 471.239C0 470.919 0.12006 470.639 0.32001 470.429L90.04 470.429C91.95 470.429 93.82 470.299 95.66 470.049L430.48 470.049C431.14 470.049 431.67 470.579 431.67 471.239Z" fill="#3f3d56" fill-rule="nonzero" opacity="1" stroke="none"/>
<path d="M255.902 274.545C257.687 270.347 261.3 267.865 263.971 269.001C266.643 270.137 267.361 274.461 265.575 278.66C264.885 280.347 263.801 281.845 262.413 283.027L254.627 300.719L246.402 296.889L254.951 279.854C254.84 278.034 255.166 276.213 255.902 274.545Z" fill="#ffb6b6" fill-rule="nonzero" opacity="1" stroke="none"/>
<path d="M185.506 286.652C185.506 276.494 193.741 268.259 203.899 268.259C214.057 268.259 222.292 276.494 222.292 286.652C222.292 296.81 214.057 305.045 203.899 305.045C193.741 305.045 185.506 296.81 185.506 286.652Z" fill="#ffb6b6" fill-rule="nonzero" opacity="1" stroke="none"/>
<path d="M227.032 308.755L245.032 301.755L251.032 280.755L264.032 285.755L254.032 315.755L227.032 326.07L227.032 308.755Z" fill="#276a75" fill-rule="nonzero" opacity="1" stroke="none"/>
<path d="M201.48 307.103L212.45 298.177C212.45 298.177 211.412 284.801 215.355 283.598C219.299 282.395 223.411 277.59 223.411 277.59C223.411 277.59 216.884 262.846 205.395 265.083C193.907 267.32 196.528 263.917 189.448 267.666C182.368 271.416 180.708 276.419 181.569 281.735C182.43 287.051 179.866 300.258 188.442 300.938C197.017 301.618 201.48 307.103 201.48 307.103Z" fill="#2f2e41" fill-rule="nonzero" opacity="1" stroke="none"/>
<path d="M298.152 43.0228C296.066 39.2202 297.149 37.405 295.268 35.9185C295.268 35.9184 294.511 35.3203 288.811 34.5584L288.811 34.5584C288.267 25.2328 286.756 23.9865 286.756 23.9865C285.016 22.5501 282.246 22.7504 280.481 23.4028C276.748 24.7827 276.877 28.4179 274.398 28.9136C270.974 29.5982 280.31 23.7437 280.201 17.5507C280.112 12.499 283.73 7.88856 284.991 8.24843C286.24 8.60526 289.591 4.96629 291.228 5.15733C292.346 5.2878 297.086 3.66262 298.306 3.91675C299.638 4.19431 303.891 6.86457 304.118 6.35026C305.697 2.77636 305.401 1.72609 306.575 0.761412C308.656-0.947988 311.713 0.602392 316.616 1.69531C326.703 3.944 328.753 0.722322 333.799 3.42012C336.348 4.78292 338.31 8.06573 342.129 14.5757C347.471 23.6799 350.142 28.2319 349.759 33.2618C349.369 38.3915 346.912 37.8675 345.215 45.372C343.325 53.7258 345.597 57.7961 342.559 60.3164C340.211 62.2643 320.743 62.4142 318.566 60.3661C314.838 56.8595 320.665 49.5823 316.707 43.6092C314.277 39.9427 308.959 37.9728 306.33 39.4793C303.358 41.1826 304.458 46.9671 302.434 47.3455C300.7 47.6696 298.515 43.6854 298.152 43.0228Z" fill="#2f2e41" fill-rule="nonzero" opacity="1" stroke="none"/>
<g opacity="1">
<g opacity="1">
<path d="M159.66 275.482C163.641 272.119 162.584 264.323 157.3 258.068C154.987 255.33 152.247 253.342 149.563 252.253L146.479 248.694L106.653 198.792C106.653 198.792 84.5974 149.15 78.0867 143.787C71.5761 138.424 63.9161 141.216 63.9161 141.216L57.9395 148.611L95.1828 217.923L133.299 256.282L138.444 261.646C139.07 264.474 140.572 267.507 142.886 270.245C148.17 276.5 155.68 278.845 159.66 275.482Z" fill="#ffb6b6" fill-rule="nonzero" opacity="1" stroke="none"/>
<path d="M84.4817 153.017L94.4623 167.655L108.79 188.86L83.0453 197.766L60.3144 158.762L84.4817 153.017Z" fill="#e6e6e6" fill-rule="nonzero" opacity="1" stroke="none"/>
</g>
<path d="M94.6149 103.201L87.3865 130.76L59.8279 125.338C59.8279 125.338 70.6706 105.46 67.9599 96.4244C67.9599 96.4244 94.6149 103.201 94.6149 103.201Z" fill="#ffb6b6" fill-rule="nonzero" opacity="1" stroke="none"/>
<g opacity="1">
<path d="M65.5233 461.928L82.1189 461.927L90.0135 397.914L65.52 397.916L65.5233 461.928Z" fill="#ffb6b6" fill-rule="nonzero" opacity="1" stroke="none"/>
<path d="M122.382 461.552L122.382 461.552C122.898 462.422 123.171 465.231 123.171 466.243L123.171 466.243C123.171 469.354 120.649 471.875 117.539 471.875L66.1441 471.875C64.0219 471.875 62.3015 470.155 62.3015 468.033L62.3015 465.893C62.3015 465.893 59.7591 459.462 64.9935 451.536C64.9935 451.536 71.4992 457.742 81.2203 448.021L84.087 442.828L104.838 458.004L116.34 459.42C118.856 459.73 121.087 459.372 122.382 461.552C122.382 461.552 122.382 461.552 122.382 461.552Z" fill="#2f2e41" fill-rule="nonzero" opacity="1" stroke="none"/>
</g>
<path d="M111.603 276.676L88.7354 432.29L60.0444 432.29L63.8595 343.462L65.8674 296.755L60.0444 274.523C60.0444 274.523 57.3895 269.581 55.1528 263.591C52.6318 256.831 50.6406 248.727 53.5967 244.884C54.6843 243.467 57.5122 242.418 61.3551 241.638C63.7033 241.158 66.4363 240.784 69.3868 240.494C86.3538 238.815 110.488 239.864 110.488 239.864L111.101 260.11L111.442 271.416C111.442 271.416 111.603 276.676 111.603 276.676Z" fill="#2f2e41" fill-rule="nonzero" opacity="1" stroke="none"/>
<g opacity="1">
<path d="M36.2897 454.318L52.709 456.73L69.8306 394.547L45.5974 390.986L36.2897 454.318Z" fill="#ffb6b6" fill-rule="nonzero" opacity="1" stroke="none"/>
<path d="M92.5982 462.216L92.5982 462.216C92.9828 463.152 92.844 465.971 92.6968 466.972L92.6968 466.972C92.2443 470.049 89.3826 472.178 86.3048 471.725L35.457 464.249C33.3574 463.941 31.9055 461.989 32.2142 459.889L32.5254 457.772C32.5254 457.772 30.9455 451.04 37.2772 443.959C37.2772 443.959 42.8109 451.046 53.8427 442.842L57.4343 438.121L75.757 456.154L86.9306 459.228C89.3752 459.9 91.6345 459.871 92.598 462.216C92.598 462.216 92.5982 462.216 92.5982 462.216Z" fill="#2f2e41" fill-rule="nonzero" opacity="1" stroke="none"/>
</g>
<path d="M111.963 250.724L108.827 277.736L91.7215 334.658L63.5635 428.37L35.1808 424.199L60.6539 290.954L58.1317 268.106C58.1317 268.106 57.3103 265.835 56.3687 262.51C54.4997 255.932 52.1557 245.22 54.7345 239.756C55.0828 239.013 55.5199 238.368 56.0607 237.847C57.075 236.863 59.1365 236.266 61.8985 235.949C73.4432 234.644 97.2186 238.376 107.798 240.208C107.798 240.208 111.963 250.724 111.963 250.724Z" fill="#2f2e41" fill-rule="nonzero" opacity="1" stroke="none"/>
<path d="M90.0971 122.628L121.27 161.933L115.674 202.911L110.879 244.608L54.4065 236.024C54.4065 236.024 66.6046 206.659 67.9599 205.303C69.3153 203.948 72.7196 207.295 70.3398 202.911C67.9599 198.527 65.2492 198.527 67.5081 196.268C69.767 194.009 49.8887 164.643 49.8887 148.831C49.8887 133.019 59.3761 120.369 59.3761 120.369C59.3761 120.369 90.0971 122.628 90.0971 122.628Z" fill="#e6e6e6" fill-rule="nonzero" opacity="1" stroke="none"/>
<path d="M61.8245 87.406C61.8245 75.8083 71.2263 66.4064 82.8241 66.4064C94.4218 66.4064 103.824 75.8083 103.824 87.406C103.824 99.0037 94.4218 108.406 82.8241 108.406C71.2263 108.406 61.8245 99.0037 61.8245 87.406Z" fill="#ffb6b6" fill-rule="nonzero" opacity="1" stroke="none"/>
<path d="M81.8427 127.556C81.8427 127.556 84.985 102.693 85.5412 95.4622C86.0974 88.2317 96.3037 76.9427 96.3037 76.9427L103.534 82.7828C103.534 82.7828 109.652 82.7828 105.481 73.8837C101.309 64.9845 93.5228 63.5941 93.5228 63.5941C93.5228 63.5941 92.6885 51.914 78.2274 53.3045C63.7663 54.6949 57.3701 66.375 57.3701 66.375C57.3701 66.375 56.5358 51.6359 47.3586 62.4817C38.1814 73.3275 32.8975 77.777 42.6309 81.3923C52.3643 85.0076 59.5949 82.2266 59.5949 82.2266C59.5949 82.2266 50.1396 84.1733 51.8081 90.8476C53.4767 97.5219 29.8384 127.835 40.6842 131.172C51.53 134.509 75.7245 142.574 78.5055 137.29C81.2865 132.006 81.8427 127.556 81.8427 127.556Z" fill="#2f2e41" fill-rule="nonzero" opacity="1" stroke="none"/>
<path d="M168.407 277.564C172.416 274.235 171.424 266.43 166.193 260.131C163.903 257.374 161.18 255.363 158.506 254.252L155.451 250.667L116.044 200.433C116.044 200.433 94.4059 150.608 87.9404 145.191C81.475 139.773 73.7918 142.501 73.7918 142.501L67.7534 149.845L104.415 219.467L142.208 258.144L147.308 263.551C147.91 266.384 149.387 269.43 151.677 272.187C156.909 278.486 164.399 280.894 168.407 277.564Z" fill="#ffb6b6" fill-rule="nonzero" opacity="1" stroke="none"/>
<path d="M65.4657 138.639C65.4657 138.639 75.1127 188.701 86.0902 196.081L107.965 179.024C107.965 179.024 109.88 178.941 106.317 174.917C102.754 170.892 103.666 162.25 103.666 162.25C103.666 162.25 105.269 164.324 101.781 161.445C98.2926 158.566 101.54 138.763 101.54 138.763C101.54 138.763 65.4657 138.639 65.4657 138.639Z" fill="#e6e6e6" fill-rule="nonzero" opacity="1" stroke="none"/>
</g>
<path d="M224.793 345.181C224.332 345.181 223.917 344.86 223.816 344.391L222.716 339.283C221.1 331.771 214.61 326.286 206.933 325.943C199.821 325.624 193.23 329.837 190.529 336.421L187.77 343.146C187.561 343.658 186.978 343.901 186.465 343.692C185.955 343.482 185.711 342.898 185.921 342.387L188.679 335.662C191.701 328.299 199.063 323.597 207.023 323.945C215.607 324.328 222.864 330.462 224.671 338.862L225.771 343.97C225.887 344.51 225.544 345.042 225.005 345.158C224.933 345.173 224.862 345.181 224.793 345.181Z" fill="#ffb6b6" fill-rule="nonzero" opacity="1" stroke="none"/>
<path d="M225.973 361.444C225.944 361.444 225.914 361.443 225.883 361.44L188.879 358.141C188.329 358.091 187.922 357.606 187.971 357.056C188.021 356.506 188.502 356.102 189.056 356.148L226.061 359.448C226.611 359.498 227.017 359.983 226.968 360.533C226.921 361.053 226.486 361.444 225.973 361.444Z" fill="#ffb6b6" fill-rule="nonzero" opacity="1" stroke="none"/>
</g>
</svg>
