<?xml version="1.0" encoding="UTF-8" standalone="no"?>
<!DOCTYPE svg PUBLIC "-//W3C//DTD SVG 1.1//EN" "http://www.w3.org/Graphics/SVG/1.1/DTD/svg11.dtd">
<!-- Created with Vectornator (http://vectornator.io/) -->
<svg height="100%" stroke-miterlimit="10" style="fill-rule:nonzero;clip-rule:evenodd;stroke-linecap:round;stroke-linejoin:round;" version="1.1" viewBox="0 0 512 512" width="100%" xml:space="preserve" xmlns="http://www.w3.org/2000/svg" xmlns:vectornator="http://vectornator.io" xmlns:xlink="http://www.w3.org/1999/xlink">
<defs/>
<g id="Layer-1" vectornator:layerName="Layer 1">
<path d="M223.485 19.2343C207.304 21.6768 192.191 25.4931 178.147 30.6834C164.103 35.8736 150.211 42.743 136.472 51.2916C122.733 59.8402 110.826 68.8468 100.751 78.3113C90.6762 87.7758 81.2117 98.6142 72.3578 110.826C63.5039 123.039 56.1765 135.404 50.3757 147.921C44.5748 160.439 39.8426 174.636 36.1789 190.512C32.5152 206.388 30.5307 221.195 30.2254 234.934C29.9201 248.673 30.5307 261.19 32.0572 272.487C33.5838 283.783 36.1789 296.301 39.8426 310.039C43.5063 323.778 49.7651 340.265 58.619 359.499C67.4729 378.733 75.7162 393.694 83.3488 404.379C90.9815 415.065 100.446 425.598 111.742 435.979C123.039 446.359 132.809 454.144 141.052 459.335C149.295 464.525 156.623 468.646 163.034 471.699C169.445 474.753 176.62 477.653 184.558 480.401C192.496 483.148 200.587 485.438 208.83 487.27C217.073 489.102 228.675 490.476 243.635 491.392C258.595 492.308 273.097 491.85 287.141 490.018C301.185 488.186 316.145 484.522 332.021 479.027C347.897 473.531 362.247 466.967 375.07 459.335C387.893 451.702 399.647 443.153 410.333 433.689C421.018 424.224 430.941 413.538 440.1 401.631C449.259 389.725 457.197 376.902 463.914 363.163C470.631 349.424 475.974 334.617 479.943 318.741C483.912 302.865 486.049 287.141 486.354 271.571C486.66 256 484.828 237.529 480.859 216.157C476.89 194.786 472.463 176.773 467.578 162.118C462.693 147.463 457.197 134.793 451.091 124.107C444.985 113.422 436.742 102.125 426.361 90.2182C415.981 78.3113 406.058 68.6941 396.594 61.3667C387.129 54.0394 376.291 47.1699 364.079 40.7585C351.866 34.347 344.386 30.6834 341.639 29.7674C338.891 28.8515 336.754 28.5462 335.227 28.8515C333.701 29.1568 330.19 28.2409 324.694 26.1038C319.199 23.9666 312.94 22.1348 305.918 20.6082C298.896 19.0817 287.447 17.8605 271.571 16.9445C255.695 16.0286 239.666 16.7919 223.485 19.2343ZM276.15 24.2719C288.973 25.1878 303.628 27.7829 320.114 32.0572C336.601 36.3315 349.424 40.7585 358.583 45.3381C367.742 49.9177 375.986 54.9553 383.313 60.4508C390.64 65.9463 398.273 72.8157 406.211 81.059C414.149 89.3023 421.018 97.0877 426.819 104.415C432.62 111.742 438.726 121.054 445.138 132.351C451.549 143.647 455.976 152.501 458.419 158.912C460.861 165.324 462.998 172.346 464.83 179.979C466.662 187.611 468.036 198.602 468.952 212.952C469.868 227.301 469.868 239.208 468.952 248.673C468.036 258.137 466.815 266.38 465.288 273.403C463.761 280.425 460.556 290.347 455.671 303.17C450.786 315.993 444.374 328.663 436.436 341.181C428.499 353.698 420.408 364.384 412.165 373.238C403.921 382.092 394.304 390.64 383.313 398.884C372.322 407.127 360.262 414.454 347.134 420.866C334.006 427.277 320.572 432.315 306.834 435.979C293.095 439.642 278.135 441.932 261.953 442.848C245.772 443.764 231.117 443.306 217.989 441.474C204.861 439.642 192.343 436.742 180.436 432.773C168.53 428.804 155.859 423.003 142.426 415.37C128.992 407.738 117.696 399.952 108.537 392.014C99.3775 384.076 90.6762 374.917 82.4329 364.537C74.1896 354.156 66.5569 341.944 59.5349 327.9C52.5128 313.856 47.4753 300.27 44.4222 287.141C41.3691 274.013 39.5373 261.038 38.9267 248.215C38.316 235.392 38.774 223.179 40.3005 211.578C41.8271 199.976 44.7275 187.611 49.0018 174.483C53.2761 161.355 59.3822 147.921 67.3202 134.182C75.2582 120.444 84.5701 107.773 95.2558 96.1717C105.942 84.5701 116.475 74.9529 126.855 67.3202C137.236 59.6875 147.921 53.1234 158.912 47.6279C169.903 42.1324 181.963 37.4001 195.091 33.4311C208.219 29.4621 221.806 26.7144 235.85 25.1878C249.894 23.6613 263.327 23.356 276.15 24.2719ZM238.597 80.6011C233.713 81.8223 228.98 83.8068 224.401 86.5546C219.821 89.3023 216.31 91.8974 213.868 94.3399C211.425 96.7823 208.525 101.057 205.166 107.163C201.808 113.269 199.671 118.459 198.755 122.733C197.839 127.008 197.534 132.961 197.839 140.594C198.144 148.227 200.281 157.538 204.25 168.53C208.219 179.521 206.082 187.306 197.839 191.886C189.596 196.465 182.268 201.197 175.857 206.082C169.445 210.967 163.645 216.31 158.454 222.111C153.264 227.912 148.99 233.713 145.631 239.513C142.273 245.314 139.525 252.642 137.388 261.496C135.251 270.349 134.335 278.287 134.64 285.309C134.946 292.332 136.014 299.201 137.846 305.918C139.678 312.634 142.426 319.351 146.089 326.068C149.753 332.785 153.875 338.586 158.454 343.47C163.034 348.355 167.766 352.477 172.651 355.835C177.536 359.194 183.032 362.094 189.138 364.537C195.244 366.979 200.129 368.506 203.792 369.116C207.456 369.727 215.089 369.727 226.691 369.116C238.292 368.506 249.131 366.063 259.206 361.789C269.281 357.515 277.219 352.935 283.02 348.05C285.92 345.608 288.821 343.165 291.721 340.723C293.858 343.776 295.995 346.829 298.132 349.882C302.407 355.988 306.681 360.568 310.955 363.621C315.23 366.674 318.588 368.506 321.03 369.116C323.473 369.727 328.816 369.727 337.059 369.116C345.302 368.506 351.408 367.132 355.377 364.995C359.346 362.857 363.01 359.804 366.369 355.835C369.727 351.866 372.475 347.287 374.612 342.097C376.749 336.906 378.123 330.8 378.733 323.778C379.039 320.267 379.344 316.756 379.649 313.245C378.733 313.245 377.818 313.245 376.902 313.245C375.07 313.245 374.001 315.993 373.696 321.488C373.391 326.984 372.475 332.021 370.948 336.601C369.422 341.181 367.437 344.539 364.995 346.676C362.552 348.813 359.652 350.035 356.293 350.34C352.935 350.645 349.882 350.187 347.134 348.966C344.386 347.745 342.097 346.218 340.265 344.386C338.433 342.555 334.464 336.754 328.358 326.984C322.252 317.214 319.199 311.719 319.199 310.497C319.199 309.276 321.336 304.544 325.61 296.301C329.884 288.057 332.937 280.73 334.769 274.318C336.601 267.907 338.128 259.816 339.349 250.047C340.57 240.277 341.181 230.202 341.181 219.821C341.181 209.441 341.791 201.045 343.013 194.633C344.234 188.222 346.676 183.184 350.34 179.521C354.004 175.857 358.583 173.72 364.079 173.109C369.574 172.499 372.322 171.125 372.322 168.987C372.322 167.919 372.322 166.85 372.322 165.782C359.957 165.782 347.592 165.782 335.227 165.782C322.862 165.782 310.497 165.782 298.132 165.782C298.132 166.85 298.132 167.919 298.132 168.987C298.132 170.056 298.132 171.125 298.132 172.193C300.422 172.193 302.712 172.193 305.002 172.193C309.581 172.193 313.703 172.804 317.367 174.025C321.03 175.246 324.083 177.231 326.526 179.979C328.968 182.726 330.953 187.153 332.479 193.259C334.006 199.366 334.922 208.525 335.227 220.737C335.532 232.949 335.227 242.719 334.311 250.047C333.395 257.374 331.869 264.854 329.732 272.487C327.595 280.119 324.694 287.294 321.03 294.011C319.199 297.369 317.367 300.727 315.535 304.086C304.239 282.562 292.942 261.038 281.646 239.513C259.053 196.465 247.757 174.636 247.757 174.025C247.757 173.414 250.657 171.43 256.458 168.072C262.259 164.713 267.754 159.981 272.945 153.875C278.135 147.769 281.798 141.052 283.936 133.725C286.073 126.397 286.836 119.375 286.225 112.658C285.615 105.942 284.546 100.904 283.02 97.5456C281.493 94.1872 279.509 91.2868 277.066 88.8444C274.624 86.4019 271.418 84.2648 267.449 82.4329C263.48 80.6011 258.9 79.5325 253.71 79.2272C248.52 78.9219 243.482 79.3798 238.597 80.6011ZM257.374 85.1807C262.564 85.7913 266.838 87.4705 270.197 90.2182C273.555 92.966 276.15 96.6297 277.982 101.209C279.814 105.789 280.883 110.216 281.188 114.49C281.493 118.764 281.035 123.802 279.814 129.603C278.593 135.404 277.066 139.983 275.234 143.342C273.403 146.7 270.655 150.211 266.991 153.875C263.327 157.538 258.748 160.897 253.252 163.95C250.504 165.476 247.757 167.003 245.009 168.53C242.566 163.034 240.124 157.538 237.682 152.043C232.797 141.052 229.744 132.045 228.522 125.023C227.301 118.001 226.996 112.658 227.606 108.995C228.217 105.331 229.438 101.82 231.27 98.4615C233.102 95.1032 235.239 92.3554 237.682 90.2182C240.124 88.0811 242.719 86.5546 245.467 85.6386C248.215 84.7227 252.184 84.5701 257.374 85.1807ZM212.036 188.68C224.859 212.799 237.682 236.918 250.504 261.038C276.15 309.276 288.973 334.006 288.973 335.227C288.973 336.448 285.92 339.349 279.814 343.928C273.708 348.508 267.296 352.172 260.58 354.919C253.863 357.667 248.062 359.194 243.177 359.499C238.292 359.804 234.171 359.499 230.812 358.583C227.454 357.667 222.569 354.919 216.157 350.34C209.746 345.76 203.335 339.196 196.923 330.648C190.512 322.099 185.627 314.314 182.268 307.292C178.91 300.27 176.162 293.4 174.025 286.683C171.888 279.967 170.361 270.807 169.445 259.206C168.53 247.604 168.682 239.208 169.903 234.018C171.125 228.828 172.651 224.553 174.483 221.195C176.315 217.837 178.757 214.478 181.81 211.12C184.863 207.761 190.664 203.182 199.213 197.381C203.487 194.481 207.761 191.58 212.036 188.68ZM476.737 260.122C476.89 263.938 477.042 267.754 477.195 271.571C477.5 279.203 476.584 288.515 474.447 299.506C473.379 305.002 472.31 310.497 471.242 315.993C471.089 311.566 470.936 307.139 470.784 302.712C470.478 293.858 471.394 284.546 473.531 274.776C474.6 269.891 475.668 265.007 476.737 260.122ZM466.662 303.17C467.273 303.17 467.73 307.597 468.036 316.451C468.341 325.305 466.509 334.769 462.54 344.844C458.571 354.919 454.45 363.315 450.175 370.032C448.038 373.391 445.901 376.749 443.764 380.107C444.527 375.07 445.29 370.032 446.054 364.995C447.58 354.919 448.191 348.508 447.886 345.76C447.58 343.013 449.412 338.28 453.381 331.564C457.35 324.847 460.403 318.435 462.54 312.329C464.677 306.223 466.051 303.17 466.662 303.17ZM441.016 351.714C440.863 357.667 440.711 363.621 440.558 369.574C440.253 381.481 437.658 390.64 432.773 397.052C427.888 403.463 424.072 407.89 421.324 410.333C419.95 411.554 418.576 412.775 417.202 413.996C417.813 407.89 418.423 401.784 419.034 395.678C420.255 383.466 423.003 375.07 427.277 370.49C431.552 365.911 434.91 361.636 437.352 357.667C438.574 355.683 439.795 353.698 441.016 351.714ZM70.068 364.537C72.8157 367.59 75.5635 370.643 78.3113 373.696C83.8068 379.802 86.5546 384.534 86.5546 387.893C86.5546 389.572 86.5546 391.251 86.5546 392.93C86.2493 392.93 85.9439 392.93 85.6386 392.93C85.028 392.93 83.8068 391.404 81.975 388.351C80.1431 385.298 77.7007 380.565 74.6476 374.154C73.121 370.948 71.5945 367.742 70.068 364.537ZM413.538 385.603C413.538 391.098 413.538 396.594 413.538 402.089C413.538 413.081 410.18 421.629 403.463 427.735C396.747 433.841 390.64 438.726 385.145 442.39C382.397 444.222 379.649 446.054 376.902 447.886C377.207 442.237 377.512 436.589 377.818 430.941C378.428 419.645 381.634 412.012 387.435 408.043C393.236 404.074 399.036 399.342 404.837 393.846C407.738 391.098 410.638 388.351 413.538 385.603ZM92.0501 389.267C95.5611 392.32 99.0722 395.373 102.583 398.426C109.605 404.532 113.422 410.943 114.032 417.66C114.338 421.018 114.643 424.377 114.948 427.735C110.979 423.461 107.01 419.187 103.041 414.912C95.1032 406.364 91.2868 399.952 91.5921 395.678C91.7448 393.541 91.8974 391.404 92.0501 389.267ZM118.612 413.081C122.581 415.37 126.55 417.66 130.519 419.95C138.457 424.53 143.036 430.941 144.258 439.184C144.868 443.306 145.479 447.428 146.089 451.549C145.021 451.091 143.952 450.633 142.884 450.175C140.747 449.259 136.32 446.206 129.603 441.016C122.886 435.826 119.375 429.872 119.07 423.156C118.917 419.797 118.764 416.439 118.612 413.081ZM370.948 419.492C371.406 419.492 371.864 419.492 372.322 419.492C372.169 423.308 372.017 427.125 371.864 430.941C371.559 438.574 371.711 443.764 372.322 446.512C372.933 449.259 368.964 452.923 360.415 457.503C351.866 462.082 344.081 465.746 337.059 468.494C330.037 471.242 322.557 473.684 314.619 475.821C306.681 477.958 299.964 479.332 294.469 479.943C291.721 480.248 288.973 480.553 286.225 480.859C286.225 475.821 286.225 470.784 286.225 465.746C286.225 455.671 292.79 448.954 305.918 445.596C312.482 443.917 319.046 442.237 325.61 440.558C325.61 443.764 325.61 446.97 325.61 450.175C325.61 456.587 326.373 461.472 327.9 464.83C328.663 466.509 329.426 468.188 330.19 469.868C330.342 464.677 330.495 459.487 330.648 454.297C330.953 443.917 335.99 436.589 345.76 432.315C355.53 428.041 361.942 424.835 364.995 422.698C368.048 420.561 370.032 419.492 370.948 419.492ZM148.837 430.483C152.348 432.01 155.859 433.536 159.37 435.063C166.392 438.116 173.262 440.558 179.979 442.39C186.695 444.222 190.206 449.87 190.512 459.335C190.664 464.067 190.817 468.799 190.97 473.531C187.306 472.157 183.642 470.784 179.979 469.41C172.651 466.662 165.782 463.609 159.37 460.25C152.959 456.892 149.6 451.091 149.295 442.848C149.143 438.726 148.99 434.605 148.837 430.483ZM194.633 446.97C199.518 447.886 204.403 448.801 209.288 449.717C219.058 451.549 224.248 457.197 224.859 466.662C225.164 471.394 225.469 476.126 225.775 480.859C223.179 480.553 220.584 480.248 217.989 479.943C212.799 479.332 207.456 478.111 201.961 476.279C196.465 474.447 193.87 469.104 194.175 460.25C194.328 455.823 194.481 451.397 194.633 446.97ZM278.44 451.549C280.577 451.549 281.798 454.908 282.104 461.624C282.409 468.341 283.02 473.379 283.936 476.737C284.394 478.416 284.852 480.095 285.309 481.775C278.593 482.08 271.876 482.385 265.159 482.691C251.726 483.301 241.956 483.301 235.85 482.691C229.744 482.08 226.996 476.89 227.606 467.12C228.217 457.35 234.629 452.618 246.841 452.923C259.053 453.228 266.838 453.076 270.197 452.465C273.555 451.855 276.303 451.549 278.44 451.549Z" fill="#276a75" fill-rule="nonzero" opacity="1" stroke="none"/>
</g>
</svg>
