<?xml version="1.0" encoding="UTF-8" standalone="no"?>
<!DOCTYPE svg PUBLIC "-//W3C//DTD SVG 1.1//EN" "http://www.w3.org/Graphics/SVG/1.1/DTD/svg11.dtd">
<!-- Created with Vectornator (http://vectornator.io/) -->
<svg height="100%" stroke-miterlimit="10" style="fill-rule:nonzero;clip-rule:evenodd;stroke-linecap:round;stroke-linejoin:round;" version="1.1" viewBox="0 0 595.35 255.336" width="100%" xml:space="preserve" xmlns="http://www.w3.org/2000/svg" xmlns:vectornator="http://vectornator.io" xmlns:xlink="http://www.w3.org/1999/xlink">
<defs/>
<clipPath id="ArtboardFrame">
<rect height="255.336" width="595.35" x="0" y="0"/>
</clipPath>
<g clip-path="url(#ArtboardFrame)" id="Layer-1" vectornator:layerName="Layer 1">
<path d="M0.331221-46.1407L0.331221-46.1407L0.331221-45.6845L0.331221-45.6845L0.331221-46.1407Z" fill="#276a75" fill-rule="nonzero" opacity="1" stroke="#e3e3e3" stroke-linecap="butt" stroke-linejoin="round" stroke-width="1"/>
<path d="M0.331221-11.467L0.331221-11.467L0.331221-10.5545L0.331221-10.5545L0.331221-11.467Z" fill="#276a75" fill-rule="nonzero" opacity="1" stroke="#e3e3e3" stroke-linecap="butt" stroke-linejoin="round" stroke-width="1"/>
<path d="M0.331221-47.0532L0.331221-47.0532L0.331221-45.6845L0.331221-45.6845L0.331221-47.0532Z" fill="#276a75" fill-rule="nonzero" opacity="1" stroke="#e3e3e3" stroke-linecap="butt" stroke-linejoin="round" stroke-width="1"/>
<path d="M12.6495-26.9789L25.4241-26.9789L25.4241-25.154L12.6495-25.154L12.6495-26.9789Z" fill="#276a75" fill-rule="nonzero" opacity="1" stroke="#e3e3e3" stroke-linecap="butt" stroke-linejoin="round" stroke-width="1"/>
<path d="M0.331221-41.5784L0.331221-41.5784L0.331221-39.7535L0.331221-39.7535L0.331221-41.5784Z" fill="#276a75" fill-rule="nonzero" opacity="1" stroke="#e3e3e3" stroke-linecap="butt" stroke-linejoin="round" stroke-width="1"/>
<path d="M0.331221-47.0532L0.331221-47.0532L0.331221-43.8596L0.331221-43.8596L0.331221-47.0532Z" fill="#276a75" fill-rule="nonzero" opacity="1" stroke="#e3e3e3" stroke-linecap="butt" stroke-linejoin="round" stroke-width="1"/>
<path d="M108.403 24.9997C105.281 25.8092 102.158 27.1391 99.0358 28.9895C95.9133 30.8398 93.1378 33.0949 90.7092 35.7548C88.2807 38.4147 86.199 41.4793 84.4643 44.9487C82.7296 48.4181 81.5731 51.6563 80.9949 54.6631C80.4167 57.6699 80.1854 61.3706 80.301 65.7652C80.4167 70.1598 80.8793 74.0917 81.6888 77.5612C82.4983 81.0306 83.9439 85.136 86.0255 89.8775C88.1072 94.6191 86.4303 98.5511 80.9949 101.674C75.5595 104.796 70.5289 108.092 65.903 111.561C61.2771 115.031 57.7499 117.98 55.3213 120.408C52.8927 122.837 50.8689 125.092 49.2498 127.174C47.6308 129.255 45.7804 132.146 43.6988 135.847C41.6171 139.548 39.9981 143.306 38.8416 147.123C37.6852 150.939 36.9335 155.276 36.5865 160.133C36.2396 164.99 36.5287 169.963 37.4539 175.051C38.379 180.14 39.5933 184.592 41.0967 188.409C42.6001 192.225 44.7974 196.215 47.6886 200.378C50.5798 204.541 53.8179 208.184 57.4029 211.307C60.988 214.429 64.6887 217.031 68.505 219.113C72.3214 221.195 76.2534 222.756 80.301 223.797C84.3487 224.837 88.5698 225.473 92.9644 225.705C97.3589 225.936 100.828 225.936 103.373 225.705C105.917 225.473 108.634 225.011 111.526 224.317C114.417 223.623 118.522 222.12 123.842 219.807C129.162 217.494 133.267 215.412 136.158 213.562C139.05 211.712 141.536 209.919 143.618 208.184C144.658 207.317 145.699 206.45 146.74 205.582C147.723 206.797 148.706 208.011 149.689 209.225C151.655 211.654 153.795 213.967 156.108 216.164C158.42 218.361 160.791 220.096 163.22 221.368C165.648 222.64 167.846 223.507 169.812 223.97C171.778 224.433 174.322 224.837 177.444 225.184C180.567 225.531 185.251 225.763 191.495 225.878C197.74 225.994 203.234 225.82 207.975 225.358C212.717 224.895 216.822 224.086 220.292 222.929C223.761 221.773 226.132 220.674 227.404 219.633C228.676 218.592 229.832 217.205 230.873 215.47C231.914 213.735 232.55 212.405 232.781 211.48C233.013 210.555 233.071 208.763 232.955 206.103C232.839 203.443 232.261 201.245 231.22 199.511C230.179 197.776 229.023 196.388 227.751 195.347C226.479 194.307 224.686 193.324 222.373 192.398C220.06 191.473 218.21 190.953 216.822 190.837C216.128 190.779 215.434 190.722 214.74 190.664C215.434 190.49 216.128 190.317 216.822 190.143C218.21 189.796 219.829 189.16 221.679 188.235C223.53 187.31 224.975 186.385 226.016 185.46C227.057 184.534 227.924 183.494 228.618 182.337C229.312 181.181 229.775 180.14 230.006 179.215C230.237 178.29 230.237 176.728 230.006 174.531C229.775 172.334 229.428 170.773 228.965 169.847C228.502 168.922 227.519 167.766 226.016 166.378C224.513 164.99 222.258 163.776 219.251 162.735C216.244 161.694 209.363 161.174 198.608 161.174C193.23 161.174 187.853 161.174 182.475 161.174C182.475 161.405 182.475 161.636 182.475 161.868C182.475 162.099 182.475 162.33 182.475 162.562C184.094 162.562 185.713 162.562 187.332 162.562C188.951 162.562 190.57 162.562 192.189 162.562C192.189 170.715 192.189 178.868 192.189 187.021C192.189 195.174 192.189 203.327 192.189 211.48C191.264 210.844 190.339 210.208 189.414 209.572C187.563 208.3 185.308 206.392 182.648 203.848C179.989 201.303 176.519 197.487 172.24 192.398C167.961 187.31 166.458 183.205 167.73 180.082C169.002 176.96 169.638 175.051 169.638 174.358C169.638 173.664 170.39 171.698 171.893 168.46C173.397 165.221 175.305 159.786 177.618 152.153C179.931 144.521 181.55 137.871 182.475 132.204C183.4 126.538 183.921 120.929 184.036 115.378C184.152 109.827 184.036 105.548 183.689 102.541C183.342 99.5341 182.822 97.3368 182.128 95.949C181.434 94.5612 180.162 93.0578 178.312 91.4388C176.461 89.8197 174.9 88.7211 173.628 88.1428C172.356 87.5646 170.621 87.0442 168.424 86.5816C167.325 86.3503 166.227 86.119 165.128 85.8877C166.458 85.483 167.788 85.0782 169.118 84.6734C171.778 83.8639 174.091 82.534 176.057 80.6836C178.023 78.8333 179.295 76.9829 179.873 75.1326C180.451 73.2822 180.451 71.0849 179.873 68.5407C179.295 65.9965 178.196 63.9148 176.577 62.2958C174.958 60.6767 172.992 59.4046 170.679 58.4794C168.366 57.5542 166.4 56.976 164.781 56.7447C163.162 56.5134 158.941 56.4556 152.118 56.5713C148.706 56.6291 145.295 56.6869 141.883 56.7447C141.941 55.4148 141.999 54.0848 142.056 52.7549C142.172 50.095 142.114 47.7243 141.883 45.6426C141.652 43.561 141.247 41.595 140.669 39.7446C140.09 37.8943 139.223 36.0439 138.067 34.1936C136.91 32.3432 135.58 30.782 134.077 29.5099C132.573 28.2378 130.665 27.0813 128.352 26.0405C126.039 24.9997 122.917 24.3636 118.985 24.1323C115.053 23.901 111.526 24.1901 108.403 24.9997ZM118.811 27.6017C121.009 27.6017 122.975 27.833 124.709 28.2956C126.444 28.7582 128.294 29.7412 130.26 31.2446C132.226 32.748 133.672 34.3092 134.597 35.9283C135.522 37.5473 136.274 39.282 136.852 41.1324C137.431 42.9827 137.778 45.9896 137.893 50.1529C138.009 54.3161 137.199 56.4556 135.465 56.5713C133.73 56.6869 132.863 56.976 132.863 57.4386C132.863 57.6699 132.863 57.9012 132.863 58.1325C133.672 58.1325 134.482 58.1325 135.291 58.1325C136.101 58.1325 136.91 58.1325 137.72 58.1325C137.72 58.2481 137.72 58.3638 137.72 58.4794C137.72 58.7107 137.315 60.0407 136.505 62.4692C135.696 64.8978 134.482 67.3842 132.863 69.9285C131.243 72.4727 129.22 74.8435 126.791 77.0407C124.362 79.238 121.529 81.3197 118.291 83.2857C116.672 84.2687 115.053 85.2517 113.434 86.2347C111.641 82.187 109.849 78.1394 108.056 74.0917C104.471 65.9965 102.332 60.3876 101.638 57.2651C100.944 54.1427 100.597 51.5406 100.597 49.459C100.597 47.3773 100.886 45.18 101.464 42.8671C102.043 40.5542 102.737 38.646 103.546 37.1426C104.356 35.6392 105.512 34.1358 107.015 32.6324C108.519 31.1289 110.311 29.9147 112.393 28.9895C114.475 28.0643 116.614 27.6017 118.811 27.6017ZM527.46 54.4444C525.725 54.907 524.337 55.4274 523.296 56.0056C522.255 56.5838 520.81 57.856 518.959 59.822C517.109 61.788 515.837 63.6961 515.143 65.5465C514.449 67.3968 514.16 69.8254 514.276 72.8322C514.391 75.8391 514.738 77.9207 515.317 79.0772C515.895 80.2336 516.993 81.5057 518.613 82.8935C520.232 84.2813 521.735 85.3221 523.123 86.016C524.511 86.7099 527.922 87.8663 533.358 89.4854C538.793 91.1044 542.378 92.4344 544.113 93.4752C545.847 94.516 547.293 95.9038 548.449 97.6385C549.606 99.3732 550.184 101.628 550.184 104.404C550.184 107.179 549.837 109.319 549.143 110.822C548.449 112.326 547.119 113.829 545.153 115.332C543.187 116.836 541.511 117.761 540.123 118.108C538.735 118.455 536.364 118.571 533.011 118.455C529.657 118.339 527.113 117.935 525.378 117.241C523.643 116.547 522.024 115.506 520.521 114.118C519.017 112.73 517.745 111.111 516.704 109.261C515.664 107.411 514.854 105.329 514.276 103.016C513.698 100.703 513.235 99.5467 512.888 99.5467C512.715 99.5467 512.541 99.5467 512.368 99.5467C512.368 102.727 512.368 105.907 512.368 109.088C512.368 112.268 512.368 115.448 512.368 118.628C512.599 118.628 512.83 118.628 513.061 118.628C513.524 118.628 514.044 118.281 514.623 117.588C515.201 116.894 515.837 116.547 516.531 116.547C517.225 116.547 518.728 116.952 521.041 117.761C523.354 118.571 525.609 119.149 527.806 119.496C530.004 119.843 532.085 120.016 534.051 120.016C536.017 120.016 537.926 119.843 539.776 119.496C541.626 119.149 543.708 118.397 546.021 117.241C548.334 116.084 550.3 114.639 551.919 112.904C553.538 111.169 554.752 109.434 555.562 107.7C556.371 105.965 556.892 104.519 557.123 103.363C557.354 102.207 557.412 100.414 557.296 97.9854C557.181 95.5568 556.834 93.7065 556.256 92.4344C555.677 91.1623 554.868 89.948 553.827 88.7915C552.786 87.635 551.341 86.5364 549.49 85.4956C547.64 84.4547 543.014 82.72 535.613 80.2915C528.211 77.8629 523.759 75.9547 522.255 74.5669C520.752 73.1792 519.769 71.7336 519.306 70.2302C518.844 68.7268 518.728 67.1077 518.959 65.373C519.191 63.6383 519.769 62.0771 520.694 60.6893C521.619 59.3016 522.891 58.1451 524.511 57.2199C526.13 56.2947 528.096 55.6587 530.409 55.3117C532.721 54.9648 534.803 54.9648 536.653 55.3117C538.504 55.6587 540.181 56.2947 541.684 57.2199C543.187 58.1451 544.575 59.4172 545.847 61.0363C547.119 62.6553 548.16 64.7948 548.97 67.4547C549.779 70.1145 550.358 71.4445 550.705 71.4445C550.878 71.4445 551.051 71.4445 551.225 71.4445C551.225 68.7268 551.225 66.0091 551.225 63.2914C551.225 60.5737 551.225 57.856 551.225 55.1383C551.051 55.1383 550.878 55.1383 550.705 55.1383C550.358 55.1383 550.011 55.4274 549.664 56.0056C549.317 56.5838 548.739 56.9308 547.929 57.0464C547.119 57.1621 545.385 56.6995 542.725 55.6587C540.065 54.6179 537.289 54.0396 534.398 53.924C531.507 53.8083 529.194 53.9818 527.46 54.4444ZM184.21 57.0917C184.21 57.323 184.21 57.5542 184.21 57.7855C185.829 57.7855 187.448 57.7855 189.067 57.7855C190.686 57.7855 192.305 57.7855 193.924 57.7855C193.924 65.3026 193.924 72.8196 193.924 80.3367C193.924 95.3708 194.04 103.64 194.271 105.143C194.502 106.646 195.081 108.439 196.006 110.521C196.931 112.602 198.03 114.279 199.302 115.551C200.574 116.823 201.846 117.806 203.118 118.5C204.39 119.194 206.414 119.83 209.189 120.408C211.965 120.987 215.03 121.16 218.383 120.929C221.737 120.697 224.628 120.061 227.057 119.021C229.485 117.98 231.451 116.65 232.955 115.031C234.458 113.412 235.499 112.024 236.077 110.867C236.656 109.711 237.118 108.323 237.465 106.704C237.812 105.085 237.986 96.5272 237.986 81.0306C237.986 73.2822 237.986 65.5339 237.986 57.7855C239.605 57.7855 241.224 57.7855 242.843 57.7855C246.081 57.7855 247.758 57.6121 247.873 57.2651C247.931 57.0917 247.989 56.9182 248.047 56.7447C244.52 56.6869 240.992 56.6291 237.465 56.5713C233.938 56.5134 230.411 56.4556 226.883 56.3978C226.883 56.6291 226.883 56.8604 226.883 57.0917C226.883 57.323 226.883 57.5542 226.883 57.7855C228.502 57.7855 230.122 57.7855 231.741 57.7855C233.36 57.7855 234.979 57.7855 236.598 57.7855C236.54 65.8808 236.482 73.9761 236.424 82.0714C236.309 98.2619 235.73 107.514 234.69 109.827C233.649 112.14 232.377 113.99 230.873 115.378C229.37 116.765 227.693 117.806 225.843 118.5C223.992 119.194 221.679 119.599 218.904 119.714C216.128 119.83 214.047 119.714 212.659 119.367C211.271 119.021 209.883 118.327 208.496 117.286C207.108 116.245 206.067 115.089 205.373 113.816C204.679 112.544 204.101 110.867 203.638 108.786C203.176 106.704 202.945 97.6837 202.945 81.7244C202.945 73.7448 202.945 65.7652 202.945 57.7855C204.564 57.7855 206.183 57.7855 207.802 57.7855C209.421 57.7855 211.04 57.7855 212.659 57.7855C212.659 57.5542 212.659 57.323 212.659 57.0917C212.659 56.8604 212.659 56.6291 212.659 56.3978C207.917 56.3978 203.176 56.3978 198.434 56.3978C193.693 56.3978 188.951 56.3978 184.21 56.3978C184.21 56.6291 184.21 56.8604 184.21 57.0917ZM252.557 57.0917C252.557 57.323 252.557 57.5542 252.557 57.7855C254.176 57.7855 255.795 57.7855 257.414 57.7855C259.033 57.7855 260.652 57.7855 262.271 57.7855C262.271 67.9046 262.271 78.0237 262.271 88.1428C262.271 98.2619 262.271 108.381 262.271 118.5C260.652 118.5 259.033 118.5 257.414 118.5C254.176 118.5 252.499 118.674 252.384 119.021C252.326 119.194 252.268 119.367 252.21 119.541C258.397 119.599 264.584 119.657 270.771 119.714C283.146 119.83 290.547 119.541 292.976 118.847C295.404 118.153 298.122 116.881 301.129 115.031C304.136 113.18 306.738 110.81 308.935 107.918C311.132 105.027 312.636 102.425 313.445 100.112C314.255 97.7994 314.775 95.8334 315.006 94.2143C315.238 92.5952 315.353 90.5714 315.353 88.1428C315.353 85.7143 315.122 83.2857 314.659 80.8571C314.197 78.4285 313.156 75.653 311.537 72.5305C309.918 69.4081 307.952 66.806 305.639 64.7244C303.326 62.6427 300.319 60.8502 296.618 59.3468C292.918 57.8434 290.316 56.976 288.812 56.7447C287.309 56.5134 280.89 56.3978 269.557 56.3978C263.89 56.3978 258.224 56.3978 252.557 56.3978C252.557 56.6291 252.557 56.8604 252.557 57.0917ZM389.906 57.0917C389.906 57.323 389.906 57.5542 389.906 57.7855C391.525 57.7855 393.144 57.7855 394.763 57.7855C396.382 57.7855 398.001 57.7855 399.62 57.7855C399.62 67.9046 399.62 78.0237 399.62 88.1428C399.62 98.2619 399.62 108.381 399.62 118.5C398.001 118.5 396.382 118.5 394.763 118.5C393.144 118.5 391.525 118.5 389.906 118.5C389.906 118.731 389.906 118.963 389.906 119.194C389.906 119.425 389.906 119.657 389.906 119.888C398.927 119.888 407.947 119.888 416.967 119.888C425.988 119.888 435.008 119.888 444.029 119.888C444.029 116.65 444.029 113.412 444.029 110.174C444.029 106.935 444.029 103.697 444.029 100.459C443.855 100.459 443.682 100.459 443.508 100.459C443.161 100.459 442.872 101.153 442.641 102.541C442.41 103.929 441.831 105.663 440.906 107.745C439.981 109.827 438.593 111.793 436.743 113.643C434.893 115.493 433.042 116.765 431.192 117.459C429.342 118.153 425.121 118.5 418.529 118.5C415.233 118.5 411.937 118.5 408.641 118.5C408.641 113.18 408.641 107.861 408.641 102.541C408.641 97.2211 408.641 91.9014 408.641 86.5816C410.318 86.5816 411.995 86.5816 413.671 86.5816C417.025 86.5816 419.049 86.6973 419.743 86.9286C420.437 87.1598 421.362 87.7959 422.518 88.8367C423.675 89.8775 424.716 91.8435 425.641 94.7347C426.566 97.6259 427.26 99.1871 427.723 99.4184C427.954 99.5341 428.185 99.6497 428.416 99.7654C428.416 95.1973 428.416 90.6292 428.416 86.0612C428.416 81.4931 428.416 76.9251 428.416 72.357C428.185 72.4149 427.954 72.4727 427.723 72.5305C427.26 72.6462 426.797 73.687 426.335 75.653C425.872 77.619 425.005 79.4693 423.733 81.204C422.461 82.9387 421.131 84.0374 419.743 84.5C418.355 84.9626 416.158 85.1938 413.151 85.1938C411.648 85.1938 410.144 85.1938 408.641 85.1938C408.641 80.6258 408.641 76.0577 408.641 71.4897C408.641 66.9216 408.641 62.3536 408.641 57.7855C411.532 57.7855 414.423 57.7855 417.314 57.7855C423.097 57.7855 426.74 57.959 428.243 58.306C429.746 58.6529 431.365 59.5202 433.1 60.908C434.835 62.2958 436.338 64.4352 437.61 67.3264C438.882 70.2176 439.692 71.721 440.039 71.8366C440.212 71.8945 440.386 71.9523 440.559 72.0101C440.559 69.4081 440.559 66.806 440.559 64.2039C440.559 61.6019 440.559 58.9998 440.559 56.3978C432.117 56.3978 423.675 56.3978 415.233 56.3978C406.79 56.3978 398.348 56.3978 389.906 56.3978C389.906 56.6291 389.906 56.8604 389.906 57.0917ZM451.158 55.419C450.858 58.7386 451.128 68.4589 451.07 71.1766C451.302 71.1766 451.533 71.1766 451.764 71.1766C452.227 71.1766 452.805 70.078 453.499 67.8807C454.193 65.6834 455.407 63.5439 457.142 61.4623C458.876 59.3806 460.785 57.9929 462.866 57.299C464.948 56.6051 470.221 56.434 473.076 56.6583C474.224 56.7485 473.968 66.6664 473.968 86.7889C473.968 96.8502 473.968 106.911 473.968 116.973C472.291 116.973 470.615 116.973 468.938 116.973C467.261 116.973 465.584 116.973 463.907 116.973C463.907 117.204 463.907 117.435 463.907 117.667C463.907 117.898 463.907 118.129 463.907 118.361C468.706 118.361 473.506 118.361 478.305 118.361C483.104 118.361 487.904 118.361 492.703 118.361C492.645 118.129 492.588 117.898 492.53 117.667C492.414 117.204 490.737 116.973 487.499 116.973C485.88 116.973 484.261 116.973 482.642 116.973C482.642 106.854 482.642 96.7346 482.642 86.6155C482.642 76.4964 482.642 66.3773 482.642 56.2582C483.972 56.2582 485.302 56.2582 486.632 56.2582C489.292 56.2582 491.547 56.5473 493.397 57.1255C495.247 57.7037 496.809 58.5711 498.081 59.7276C499.353 60.884 500.451 62.2718 501.377 63.8908C502.302 65.5099 502.996 67.129 503.458 68.748C503.921 70.3671 504.326 71.1766 504.673 71.1766C504.846 71.1766 505.02 71.1766 505.193 71.1766C505.193 68.4589 505.193 65.7412 505.193 63.0235C505.193 60.3058 505.193 57.5881 505.193 54.8704C496.23 54.8704 487.268 54.8704 478.305 54.8704C460.38 54.8704 451.185 55.1228 451.158 55.419ZM281.006 57.7855C284.707 58.0168 287.771 58.5951 290.2 59.5202C292.629 60.4454 294.768 61.7175 296.618 63.3366C298.469 64.9556 299.914 66.6904 300.955 68.5407C301.996 70.3911 302.748 72.0679 303.21 73.5713C303.673 75.0747 304.078 76.8673 304.425 78.9489C304.772 81.0306 304.945 84.153 304.945 88.3163C304.945 92.4796 304.598 96.1225 303.904 99.2449C303.21 102.367 302.343 104.969 301.302 107.051C300.261 109.133 299.278 110.752 298.353 111.908C297.428 113.065 296.329 114.106 295.057 115.031C293.785 115.956 292.397 116.708 290.894 117.286C289.391 117.864 287.945 118.269 286.557 118.5C285.169 118.731 282.278 118.789 277.884 118.674C273.489 118.558 271.292 108.381 271.292 88.1428C271.292 67.9046 271.986 57.7277 273.373 57.6121C274.761 57.4964 277.305 57.5542 281.006 57.7855ZM151.944 57.7855C153.737 57.8434 155.529 57.9012 157.322 57.959C160.907 58.0747 163.162 58.306 164.087 58.6529C165.012 58.9998 165.995 59.6359 167.036 60.5611C168.077 61.4862 168.944 62.874 169.638 64.7244C170.332 66.5747 170.679 68.9455 170.679 71.8366C170.679 74.7278 170.39 77.0407 169.812 78.7754C169.233 80.5101 168.482 81.8401 167.557 82.7653C166.631 83.6904 165.359 84.3843 163.74 84.8469C162.121 85.3095 159.693 85.5408 156.454 85.5408C154.835 85.5408 153.216 85.5408 151.597 85.5408C151.655 80.9149 151.713 76.289 151.771 71.6632C151.829 67.0373 151.886 62.4114 151.944 57.7855ZM142.056 58.1325C142.23 58.1325 142.403 58.1325 142.577 58.1325C142.577 68.2516 142.577 78.3707 142.577 88.4898C142.577 98.6089 142.577 108.728 142.577 118.847C140.958 118.847 139.339 118.847 137.72 118.847C136.101 118.847 134.482 118.847 132.863 118.847C132.863 119.021 132.863 119.194 132.863 119.367C132.863 119.714 137.315 120.004 146.22 120.235C155.125 120.466 160.791 120.466 163.22 120.235C165.648 120.004 168.424 119.31 171.546 118.153C174.669 116.997 177.04 115.609 178.659 113.99C179.468 113.18 180.278 112.371 181.087 111.561C180.972 113.874 180.856 116.187 180.74 118.5C180.509 123.126 179.699 129.024 178.312 136.194C176.924 143.364 175.247 149.84 173.281 155.623C171.315 161.405 169.118 166.841 166.689 171.929C165.475 174.473 164.261 177.017 163.046 179.562C162.295 178.521 161.543 177.48 160.791 176.439C159.288 174.358 151.25 159.381 136.679 131.51C122.107 103.64 116.961 88.3163 121.24 85.5408C125.519 82.7653 128.641 80.3945 130.607 78.4285C132.573 76.4625 134.482 73.9761 136.332 70.9693C138.182 67.9625 139.512 65.0713 140.322 62.2958C141.131 59.5202 141.709 58.1325 142.056 58.1325ZM151.597 87.9694C152.985 88.085 154.373 88.2007 155.761 88.3163C158.536 88.5476 160.791 88.8945 162.526 89.3571C164.261 89.8197 165.533 90.2823 166.342 90.7449C167.152 91.2075 168.193 92.1327 169.465 93.5204C170.737 94.9082 171.72 96.6429 172.414 98.7245C173.108 100.806 173.339 103.119 173.108 105.663C172.876 108.208 172.356 110.405 171.546 112.255C170.737 114.106 169.754 115.493 168.597 116.418C167.441 117.344 165.822 118.038 163.74 118.5C161.659 118.963 159.114 119.136 156.108 119.021C153.101 118.905 151.597 113.701 151.597 103.408C151.597 98.2619 151.597 93.1157 151.597 87.9694ZM90.5358 99.7654C97.7637 113.643 104.992 127.521 112.22 141.398C126.675 169.153 135.696 186.096 139.281 192.225C142.866 198.354 144.196 201.939 143.271 202.98C142.346 204.021 139.859 205.929 135.812 208.705C131.764 211.48 128.41 213.504 125.75 214.776C123.09 216.048 120.893 216.916 119.158 217.378C117.424 217.841 114.764 218.13 111.179 218.246C107.594 218.361 104.645 218.072 102.332 217.378C100.019 216.684 97.8215 215.701 95.7399 214.429C93.6582 213.157 91.2875 211.307 88.6276 208.878C85.9677 206.45 83.4813 203.79 81.1684 200.899C78.8554 198.007 76.8316 195.174 75.0969 192.398C73.3622 189.623 71.454 186.038 69.3724 181.643C67.2907 177.249 65.4404 172.392 63.8213 167.072C62.2023 161.752 61.1036 157.126 60.5254 153.194C59.9472 149.262 59.6581 145.735 59.6581 142.613C59.6581 139.49 60.1206 135.905 61.0458 131.857C61.971 127.81 63.1275 124.572 64.5152 122.143C65.903 119.714 67.8112 117.228 70.2397 114.684C72.6683 112.14 75.4439 109.711 78.5663 107.398C81.6888 105.085 84.4643 103.235 86.8929 101.847C88.1072 101.153 89.3215 100.459 90.5358 99.7654ZM408.507 161.174C406.078 162.099 403.939 163.487 402.088 165.337C400.238 167.187 398.908 169.153 398.099 171.235C397.289 173.317 396.826 175.225 396.711 176.96C396.595 178.694 396.653 180.198 396.884 181.47C397.116 182.742 397.52 183.956 398.099 185.113C398.677 186.269 399.775 187.541 401.395 188.929C403.014 190.317 404.864 191.473 406.946 192.398C409.027 193.324 412.323 194.422 416.833 195.694C421.344 196.967 424.524 198.123 426.374 199.164C428.225 200.205 429.786 201.65 431.058 203.501C432.33 205.351 432.966 207.606 432.966 210.266C432.966 212.926 432.561 215.123 431.752 216.858C430.942 218.592 429.728 220.096 428.109 221.368C426.49 222.64 424.755 223.507 422.905 223.97C421.054 224.433 418.626 224.606 415.619 224.49C412.612 224.375 410.184 223.97 408.333 223.276C406.483 222.582 404.806 221.541 403.303 220.154C401.799 218.766 400.527 217.147 399.486 215.297C398.446 213.446 397.636 211.365 397.058 209.052C396.48 206.739 396.017 205.582 395.67 205.582C395.497 205.582 395.323 205.582 395.15 205.582C395.15 208.763 395.15 211.943 395.15 215.123C395.15 218.303 395.15 221.484 395.15 224.664C395.323 224.664 395.497 224.664 395.67 224.664C396.017 224.664 396.48 224.317 397.058 223.623C397.636 222.929 398.388 222.582 399.313 222.582C400.238 222.582 402.435 223.103 405.905 224.144C409.374 225.184 413.248 225.647 417.527 225.531C421.806 225.416 425.391 224.664 428.282 223.276C431.174 221.888 433.313 220.443 434.701 218.939C436.089 217.436 437.245 215.701 438.17 213.735C439.095 211.769 439.674 210.208 439.905 209.052C440.136 207.895 440.136 205.987 439.905 203.327C439.674 200.667 439.211 198.701 438.517 197.429C437.823 196.157 437.014 195.058 436.089 194.133C435.163 193.208 434.007 192.341 432.619 191.531C431.231 190.722 427.473 189.392 421.344 187.541C415.214 185.691 411.167 184.303 409.201 183.378C407.235 182.453 405.673 181.412 404.517 180.256C403.361 179.099 402.551 177.885 402.088 176.613C401.626 175.341 401.51 173.664 401.741 171.582C401.973 169.5 402.667 167.708 403.823 166.204C404.98 164.701 406.367 163.545 407.986 162.735C409.605 161.926 411.629 161.405 414.058 161.174C416.486 160.943 418.337 160.943 419.609 161.174C420.881 161.405 422.095 161.81 423.252 162.388C424.408 162.966 425.507 163.718 426.548 164.643C427.589 165.568 428.687 167.014 429.844 168.98C431 170.946 431.81 172.854 432.272 174.705C432.735 176.555 433.14 177.48 433.487 177.48C433.66 177.48 433.833 177.48 434.007 177.48C434.007 174.762 434.007 172.045 434.007 169.327C434.007 166.609 434.007 163.892 434.007 161.174C433.776 161.174 433.544 161.174 433.313 161.174C432.85 161.174 432.446 161.463 432.099 162.041C431.752 162.619 431.289 162.966 430.711 163.082C430.133 163.198 428.282 162.677 425.16 161.521C422.037 160.364 419.088 159.786 416.313 159.786C413.537 159.786 410.935 160.249 408.507 161.174ZM234.863 161.868C234.863 162.099 234.863 162.33 234.863 162.562C236.54 162.562 238.217 162.562 239.894 162.562C241.571 162.562 243.247 162.562 244.924 162.562C244.924 172.623 244.924 182.684 244.924 192.745C244.924 212.868 245.249 223.219 244.91 223.219C241.749 223.221 235.334 223.455 234.892 223.474C234.661 223.485 234.863 224.433 234.863 224.664C239.605 224.664 244.171 224.653 248.913 224.635C252.422 224.621 264.187 224.344 263.894 224.466C263.592 224.592 263.601 223.507 263.659 223.276C261.982 223.276 260.305 223.276 258.628 223.276C256.952 223.276 255.275 223.276 253.598 223.276C253.598 213.157 253.598 203.038 253.598 192.919C253.598 182.8 253.598 172.681 253.598 162.562C255.275 162.562 256.952 162.562 258.628 162.562C260.305 162.562 261.982 162.562 263.659 162.562C263.659 162.33 263.659 162.099 263.659 161.868C263.659 161.636 263.659 161.405 263.659 161.174C258.86 161.174 254.06 161.174 249.261 161.174C244.462 161.174 239.662 161.174 234.863 161.174C234.863 161.405 234.863 161.636 234.863 161.868ZM330.272 161.868C330.272 162.099 330.272 162.33 330.272 162.562C331.891 162.562 333.51 162.562 335.129 162.562C336.748 162.562 338.367 162.562 339.986 162.562C339.986 172.681 339.986 182.8 339.986 192.919C339.986 203.038 339.986 213.157 339.986 223.276C338.367 223.276 336.748 223.276 335.129 223.276C333.51 223.276 331.891 223.276 330.272 223.276C330.272 223.507 330.272 223.739 330.272 223.97C330.272 224.201 330.272 224.433 330.272 224.664C339.292 224.664 348.313 224.664 357.333 224.664C366.354 224.664 375.374 224.664 384.394 224.664C384.394 221.368 384.394 218.072 384.394 214.776C384.394 211.48 384.394 208.184 384.394 204.888C384.221 204.946 384.047 205.004 383.874 205.062C383.527 205.177 382.833 206.739 381.792 209.746C380.752 212.752 379.884 214.776 379.19 215.817C378.496 216.858 377.34 218.072 375.721 219.46C374.102 220.848 372.309 221.831 370.343 222.409C368.377 222.987 364.33 223.276 358.2 223.276C355.136 223.276 352.071 223.276 349.006 223.276C349.006 213.157 349.006 203.038 349.006 192.919C349.006 182.8 349.006 172.681 349.006 162.562C350.626 162.562 352.245 162.562 353.864 162.562C355.483 162.562 357.102 162.562 358.721 162.562C358.721 162.33 358.721 162.099 358.721 161.868C358.721 161.636 358.721 161.405 358.721 161.174C353.979 161.174 349.238 161.174 344.496 161.174C339.755 161.174 335.013 161.174 330.272 161.174C330.272 161.405 330.272 161.636 330.272 161.868ZM206.067 162.215C208.611 162.215 210.635 162.388 212.138 162.735C213.642 163.082 215.03 163.776 216.302 164.817C217.574 165.858 218.441 166.783 218.904 167.592C219.366 168.402 219.771 169.674 220.118 171.409C220.465 173.143 220.581 175.225 220.465 177.654C220.349 180.082 220.06 181.99 219.598 183.378C219.135 184.766 218.326 186.038 217.169 187.194C216.013 188.351 214.798 189.103 213.526 189.449C212.254 189.796 209.883 189.97 206.414 189.97C204.679 189.97 202.945 189.97 201.21 189.97C201.21 185.402 201.21 180.834 201.21 176.266C201.21 167.13 201.383 162.504 201.73 162.388C202.077 162.272 203.523 162.215 206.067 162.215ZM201.21 191.358C203.349 191.358 205.489 191.358 207.628 191.358C211.907 191.358 214.972 191.878 216.822 192.919C218.672 193.96 220.002 195.174 220.812 196.562C221.621 197.95 222.2 199.453 222.547 201.072C222.894 202.691 223.067 204.599 223.067 206.797C223.067 208.994 222.894 210.902 222.547 212.521C222.2 214.14 220.985 215.412 218.904 216.337C216.822 217.263 214.567 217.725 212.138 217.725C209.71 217.725 207.281 217.436 204.853 216.858C202.424 216.28 201.21 211.885 201.21 203.674C201.21 199.569 201.21 195.463 201.21 191.358ZM348.732 55.8774C346.42 56.4556 344.222 57.323 342.141 58.4794C340.059 59.6359 337.862 61.3128 335.549 63.5101C333.236 65.7074 331.559 67.5577 330.518 69.0611C329.477 70.5645 328.436 72.5883 327.396 75.1326C326.355 77.6768 325.661 79.8163 325.314 81.551C324.967 83.2857 324.794 85.5408 324.794 88.3163C324.794 91.0918 325.256 94.0987 326.181 97.3368C327.106 100.575 328.379 103.466 329.998 106.01C331.617 108.555 333.294 110.694 335.028 112.429C336.763 114.163 338.382 115.551 339.885 116.592C341.389 117.633 343.008 118.5 344.743 119.194C346.477 119.888 348.443 120.408 350.641 120.755C352.838 121.102 355.093 121.218 357.406 121.102C359.719 120.987 361.974 120.582 364.171 119.888C366.369 119.194 368.45 118.327 370.416 117.286C372.382 116.245 373.943 115.725 375.1 115.725C376.256 115.725 377.124 116.014 377.702 116.592C378.28 117.17 378.743 117.459 379.09 117.459C379.263 117.459 379.437 117.459 379.61 117.459C379.61 114.106 379.61 110.752 379.61 107.398C379.61 104.044 379.61 100.691 379.61 97.3368C380.767 97.3368 381.923 97.3368 383.08 97.3368C384.236 97.3368 385.393 97.3368 386.549 97.3368C386.549 97.1055 386.549 96.8742 386.549 96.6429C386.549 96.4116 386.549 96.1803 386.549 95.949C382.039 95.949 377.529 95.949 373.018 95.949C368.508 95.949 363.998 95.949 359.488 95.949C359.545 96.1803 359.603 96.4116 359.661 96.6429C359.777 97.1055 361.685 97.3368 365.386 97.3368C367.236 97.3368 369.086 97.3368 370.937 97.3368C370.937 99.1293 370.937 100.922 370.937 102.714C370.937 106.299 370.821 108.497 370.59 109.306C370.358 110.116 369.896 111.157 369.202 112.429C368.508 113.701 367.756 114.742 366.947 115.551C366.137 116.361 364.75 117.228 362.784 118.153C360.818 119.078 358.562 119.599 356.018 119.714C353.474 119.83 351.277 119.657 349.426 119.194C347.576 118.731 345.61 117.633 343.528 115.898C341.447 114.163 340.001 112.544 339.192 111.041C338.382 109.538 337.515 106.704 336.59 102.541C335.664 98.3776 335.144 94.5612 335.028 91.0918C334.913 87.6224 334.97 84.3843 335.202 81.3775C335.433 78.3707 336.069 75.0747 337.11 71.4897C338.151 67.9046 339.423 65.1291 340.926 63.1631C342.43 61.1971 343.933 59.7515 345.437 58.8264C346.94 57.9012 348.328 57.2651 349.6 56.9182C350.872 56.5713 352.954 56.3978 355.845 56.3978C358.736 56.3978 360.933 56.6291 362.437 57.0917C363.94 57.5542 365.79 58.7107 367.988 60.5611C370.185 62.4114 371.746 64.2039 372.671 65.9386C373.597 67.6733 374.233 69.4659 374.58 71.3162C374.926 73.1666 375.331 74.0917 375.794 74.0917C376.025 74.0917 376.256 74.0917 376.488 74.0917C376.43 71.1428 376.372 68.1938 376.314 65.2448C376.199 59.3468 375.967 56.3978 375.62 56.3978C375.273 56.3978 374.811 56.6869 374.233 57.2651C373.654 57.8434 372.845 58.1903 371.804 58.306C370.763 58.4216 368.508 57.9012 365.039 56.7447C361.569 55.5883 358.562 55.01 356.018 55.01C353.474 55.01 351.045 55.2991 348.732 55.8774Z" fill="#276a75" fill-rule="nonzero" opacity="1" stroke="none"/>
<path d="M269.81 161.807C269.81 162.039 269.81 162.27 269.81 162.501C271.429 162.501 273.048 162.501 274.667 162.501C276.287 162.501 277.906 162.501 279.525 162.501C279.525 172.62 279.525 182.739 279.525 192.859C279.525 202.978 279.525 213.097 279.525 223.216C277.906 223.216 276.287 223.216 274.667 223.216C273.048 223.216 271.429 223.216 269.81 223.216C269.81 223.447 269.81 223.678 269.81 223.91C269.81 224.141 269.81 224.372 269.81 224.604C278.831 224.604 287.851 224.604 296.872 224.604C305.892 224.604 314.913 224.604 323.933 224.604C323.933 221.308 323.933 218.012 323.933 214.716C323.933 211.42 323.933 208.124 323.933 204.828C323.76 204.886 323.586 204.944 323.413 205.001C323.066 205.117 322.372 206.678 321.331 209.685C320.29 212.692 319.423 214.716 318.729 215.757C318.035 216.797 316.879 218.012 315.26 219.399C313.64 220.787 311.848 221.77 309.882 222.348C307.916 222.927 303.868 223.216 297.739 223.216C294.674 223.216 291.61 223.216 288.545 223.216C288.545 213.097 288.545 202.978 288.545 192.859C288.545 182.739 288.545 172.62 288.545 162.501C290.164 162.501 291.783 162.501 293.402 162.501C295.021 162.501 296.64 162.501 298.259 162.501C298.259 162.27 298.259 162.039 298.259 161.807C298.259 161.576 298.259 161.345 298.259 161.113C293.518 161.113 288.776 161.113 284.035 161.113C279.293 161.113 274.552 161.113 269.81 161.113C269.81 161.345 269.81 161.576 269.81 161.807Z" fill="#276a75" fill-rule="nonzero" opacity="1" stroke="none"/>
</g>
<g id="Layer-2" vectornator:layerName="Layer 2"/>
</svg>
